<svg id="Layer_1" data-name="Layer 1" xmlns="http://www.w3.org/2000/svg" viewBox="0 0 7898.96 5402.16"> <defs> <style> .cls-1 { fill: #000; } </style> </defs> <title>adidas-1</title> <path d="M5307.17,2242.44v26.84c90,0,164.72-74.67,164.72-166.57A166,166,0,0,0,5307.17,1938v24.87c76.58,0,139.79,61.37,139.79,137.94C5447,2179.22,5383.75,2242.44,5307.17,2242.44Z" transform="translate(2407.99 1646.72)" class="cls-1" /> <path d="M5307.17,2097v19.14h15.33l28.74,70.85h24.87l-36.38-78.49c44.07-11.45,44.07-90-24.87-90h-7.69v17.24h9.6c49.74,0,44,61.31-3.82,61.31h-5.78Zm0-134.12V1938c-88.09,0-162.75,74.67-162.75,164.72,0,91.9,74.67,166.57,162.75,166.57v-26.84c-76.58,0-139.79-63.22-139.79-141.64A140.6,140.6,0,0,1,5307.17,1961v1.85Z" transform="translate(2407.99 1646.72)" class="cls-1" /> <path d="M5307.17,2035.67v-17.24H5253.5v168.48h21.11v-70.79h32.56V2097h-32.56v-61.31h32.56Zm-6602.6,350.44v72.76a691.45,691.45,0,0,0-400.18-126.37h-1.91c-388.78,0-710.47,319.78-710.47,710.42,0,388.73,321.69,710.42,710.42,710.42h1.91c151.24,0,287.22-47.89,400.18-128.34v70.91h306.36V2386.11h-306.31Zm-400.23,1045.53h-1.91c-214.46,0-386.82-174.26-386.82-388.73,0-212.61,172.3-388.78,386.82-388.78h1.91c212.55,0,388.73,176.17,388.73,388.78C-1306.94,3257.37-1483.11,3431.63-1695.67,3431.63ZM3819.25,2388v70.85c-114.87-78.43-256.62-126.37-404-126.37h-1.91c-388.73,0-710.42,319.78-710.42,710.42s321.69,710.42,710.42,710.42h1.91c147.43,0,289.13-47.89,404-126.43v70.85h304.51V2388Zm-404,1045.53h-1.91c-212.55,0-386.82-176.17-386.82-390.63,0-210.7,174.26-386.82,386.82-386.82h1.91c212.55,0,388.73,176.17,388.73,386.82C3803.92,3257.37,3627.75,3433.54,3415.25,3433.54ZM236.51,1941.8v517c-113-74.67-252.75-126.37-400.23-126.37h-1.91c-390.63,0-708.51,321.69-708.51,708.51,0,392.54,317.87,712.33,708.51,712.33h1.91c147.49,0,289.19-47.89,400.23-126.43v68.94H542.87v-1754ZM-163.73,3431.63h-1.91c-212.55,0-386.82-174.26-386.82-390.63,0-210.7,174.26-386.82,386.82-386.82h1.91C48.83,2654.18,225,2830.35,225,3041,225,3257.37,48.83,3431.63-163.73,3431.63ZM2293.09,1941.8v517c-116.89-74.67-256.62-126.37-404.05-126.37h-1.85c-386.82,0-706.66,321.69-706.66,708.51,0,392.54,319.78,712.33,706.66,712.33H1889c147.49,0,289.13-47.89,404.05-126.43v68.94h300.64v-1754ZM1889,3431.63h-1.85c-212.61,0-384.91-174.26-384.91-390.63,0-210.7,172.3-386.82,384.91-386.82H1889c212.55,0,388.78,176.17,388.78,386.82C2277.82,3257.37,2101.59,3431.63,1889,3431.63ZM759.24,2278.82h306.42v-333.2H759.24Zm0,1420.83h306.42V2391.83H759.24V3699.65ZM4252,3272.7c7.69,329.33,308.33,488.26,637.66,482.6,361.95-5.78,605.1-170.45,601.28-469.18-7.63-522.73-861.66-344.65-861.66-561,0-92,78.49-130.25,224.06-130.25,183.87,0,222.15,84.27,237.42,176.23h335.11c-7.69-153.15-139.79-453.91-587.86-453.91-384.91,0-555.35,208.74-555.35,463.45,0,513.19,846.39,329.33,846.39,566.81,0,61.31-63.22,145.58-233.61,145.58-153.21,0-275.77-67-275.77-220.24H4252v-.06Z" transform="translate(2407.99 1646.72)" class="cls-1" /> <path d="M759.24,1945.62H2293.09L1029.29-396.28-161.82,247.16,759.24,1945.62Zm467.21-2948.9,1189.14-643.44L4359.27,1945.62H2819.7ZM242.23,1945.62-349.44,854.11l-1189.2,641.53,245.11,450H242.23Z" transform="translate(2407.99 1646.72)" class="cls-1" />
</svg>