<svg version="1.1" id="Layer_1" xmlns="http://www.w3.org/2000/svg" xmlns:xlink="http://www.w3.org/1999/xlink" viewBox="0 0 455 455" xml:space="preserve"><g>	<path d="M235.916,190.817c-10.274,0.966-32.834,4.09-43.941,13.309		c-14.653,12.159-20.575,52.996,11.215,52.996c4.959,0,9.285-0.5,13.073-1.346c14.641-3.251,24.968-16.399,24.968-31.399v-28.722		C241.231,192.791,238.768,190.545,235.916,190.817z"/>	<path d="M0,0v455h455V0H0z M215.655,111.854c-19.068,0-31.26,20.675-35.458,29.166		c-1.041,2.116-3.351,3.277-5.673,2.885l-38.255-6.464c-3.168-0.53-5.173-3.698-4.251-6.778		c4.815-16.085,23.591-59.949,85.197-59.949c75.437,0,82.607,48.625,82.607,60.468v98.509c0,0-0.314,8.416,7.169,19.015		c2.399,3.382,4.34,6.073,5.878,8.155c2.649,3.59,2.202,8.58-1.03,11.659l-27.895,26.576c-3.288,3.113-8.408,3.285-11.845,0.336		c-3.557-3.049-7.95-7.116-11.237-11.196c-3.068-3.796-5.445-7.244-7.114-9.846c-1.369-2.127-4.415-2.224-5.923-0.208		c-6.736,9.091-24.893,28.45-57.097,28.45c-42.084,0-70.134-33.981-70.134-63.278c0-29.305,18.701-66.716,59.224-75.132		c28.439-5.9,46.898-5.673,55.381-5.001c2.929,0.228,5.401-2.094,5.401-5.023v-22.7		C240.601,131.499,239.668,111.865,215.655,111.854z M319.162,358.74c-24.632,13.711-48.637,25.546-105.667,25.546		c-69.298,0-124.701-44.091-135.6-57.497c-10.912-13.409-7.333-20.262-7.333-20.262s4.207-8.266,16.052,0		c11.845,8.252,67.335,47.226,122.51,47.226c55.176,0,93.508-14.655,105.981-19.959c12.462-5.292,26.498-11.92,29.927-5.49		C348.459,334.739,343.783,345.021,319.162,358.74z M354.142,359.132c-7.267-3.937,0.239-11.931,3.274-21.508		c3.038-9.588,4.676-18.004,0-22.127c-4.673-4.132-11.454-2.191-26.887-0.325c-15.424,1.877-14.492-5.143-14.492-5.143		s0-2.796,3.504-5.14c3.504-2.333,50.891-21.9,62.192-4.437C395.326,321.452,362.634,363.73,354.142,359.132z"/></g></svg>