<svg viewBox="1 2 139.114 45.168" version="1.1" id="svg1" sodipodi:docname="asics.svg" inkscape:version="1.3.2 (091e20ef0f, 2023-11-25)" xmlns:inkscape="http://www.inkscape.org/namespaces/inkscape" xmlns:sodipodi="http://sodipodi.sourceforge.net/DTD/sodipodi-0.dtd" xmlns="http://www.w3.org/2000/svg" xmlns:svg="http://www.w3.org/2000/svg" class="dark:fill-black fill-black" style="fill:#000"> <path d="m 19.104884,33.540132 c -2.363908,0 -3.499062,-1.817897 -2.908085,-3.922106 1.226003,-4.358915 9.100498,-10.819287 14.466093,-10.819287 3.917517,0 3.616523,3.500898 1.323274,6.488819 l -1.268214,1.402194 c -4.548872,4.465365 -8.766467,6.85038 -11.613068,6.85038 z M 38.285946,4.143608 c -6.848544,0.00275 -14.392679,4.1928175 -19.12692,8.161724 l 0.373491,0.541424 C 26.882106,7.6940591 37.083803,4.3418239 39.89645,9.3688001 41.381234,12.021774 38.859487,17.376357 35.309954,21.610469 36.161548,19.740265 35.599937,16.151272 30.650962,16.151272 22.420413,16.150354 6.2236018,27.052231 6.2236018,38.206465 c 0,4.469953 3.098959,7.386296 8.2039372,7.386296 13.66864,0 32.207335,-22.405741 32.207335,-33.659083 -9.17e-4,-3.9744134 -2.287742,-7.79007 -8.348928,-7.79007 z m 17.596252,29.396524 c -0.793781,0 -1.456336,-0.279889 -1.870204,-0.783687 -0.432221,-0.532247 -0.560694,-1.283816 -0.355137,-2.062914 0.45241,-1.689424 2.272142,-3.011781 4.141428,-3.011781 h 4.397457 l -1.569209,5.859299 z M 68.52764,15.972327 c -1.259956,-1.547185 -3.294422,-2.238188 -4.753511,-2.238188 h -7.99471 l -1.357228,5.06093 h 7.538629 l 0.721286,0.07617 c 0.0083,0 0.694673,0.07984 1.073669,0.594648 0.310171,0.42855 0.354219,1.068164 0.133062,1.904158 l -0.356972,1.330616 h -4.748924 c -4.089121,0 -9.787829,2.931944 -11.056961,7.669855 -0.632273,2.362991 -0.07892,4.409387 1.148918,5.913442 1.218661,1.492125 3.51558,2.313437 5.998785,2.313437 h 4.398374 l -0.0018,0.0018 h 5.592259 l 2.621773,-9.793335 1.93077,-7.199093 c 0.757992,-2.82733 -0.06332,-4.625956 -0.887384,-5.634471 z m 54.90949,-2.238188 c -2.16203,0 -4.16988,0.639613 -5.80608,1.851851 -1.64996,1.222331 -2.56029,2.692433 -3.10263,4.716805 -1.17553,4.38828 2.27123,6.506254 5.04533,8.006638 1.98675,1.078258 3.7037,2.006937 3.33388,3.383436 -0.26429,0.988327 -0.69467,1.851851 -3.14025,1.851851 h -7.4643 l -1.35539,5.061847 h 8.26083 c 2.21525,0 4.26072,-0.462503 5.90794,-1.727048 1.65088,-1.268215 2.58047,-3.037475 3.1586,-5.194909 0.55244,-2.054655 0.17711,-4.015708 -1.14249,-5.481221 -1.10028,-1.22692 -2.68693,-2.081267 -4.0827,-2.835589 -1.78853,-0.963549 -3.4752,-1.872039 -3.17971,-2.974156 0.17802,-0.664391 0.84242,-1.594905 2.2859,-1.594905 h 7.25874 l 1.35723,-5.060929 h -7.33674 v -0.0037 z m -43.320282,0 c -2.162021,0 -4.170793,0.639613 -5.806075,1.851851 -1.649964,1.222331 -2.559371,2.692433 -3.105382,4.716805 -1.175531,4.38828 2.274894,6.506254 5.046247,8.006638 1.987665,1.078258 3.705536,2.006937 3.335717,3.383436 -0.265206,0.988327 -0.695591,1.851851 -3.14209,1.851851 H 68.98372 l -1.357228,5.061847 h 8.26175 c 2.217082,0 4.26256,-0.462503 5.907936,-1.727048 1.651799,-1.268215 2.581395,-3.037475 3.158607,-5.194909 0.552436,-2.054655 0.176192,-4.015708 -1.140659,-5.481221 -1.099364,-1.22692 -2.687845,-2.081267 -4.086368,-2.835589 -1.786696,-0.963549 -3.473367,-1.872039 -3.176961,-2.974156 0.17711,-0.664391 0.842418,-1.594905 2.283154,-1.594905 h 7.256905 l 1.358146,-5.060929 h -7.333071 v -0.0037 z m 11.273531,0 -6.479642,24.86784 h 5.47388 l 6.47597,-24.86784 z m 20.036331,0 c -9.63733,0.03487 -14.679913,6.453947 -16.283073,12.433461 -1.898654,7.090808 1.87571,12.435297 8.778393,12.435297 h 4.62688 l 1.35539,-5.061848 h -4.62412 c -2.58415,0 -6.137353,-2.034466 -4.70488,-7.373449 1.13699,-4.245124 5.27292,-7.372531 9.81628,-7.372531 h 2.93562 l 1.35722,-5.06093 z m 18.96266,23.730852 h 0.4781 v -1.075505 h 0.38083 c 0.25603,0 0.43498,0.02753 0.53317,0.08626 0.17252,0.101861 0.26061,0.312007 0.26061,0.627684 v 0.217487 l 0.008,0.08718 c 0.004,0.01285 0.005,0.02202 0.008,0.03212 l 0.006,0.02478 h 0.45057 l -0.0165,-0.03304 a 0.45608017,0.45608017 0 0 1 -0.0239,-0.142239 2.6428791,2.6428791 0 0 1 -0.007,-0.203722 v -0.200051 a 0.7524864,0.7524864 0 0 0 -0.14774,-0.423044 c -0.0991,-0.144991 -0.25695,-0.234005 -0.47168,-0.268876 0.16793,-0.02569 0.30099,-0.06699 0.39643,-0.133062 0.17894,-0.115626 0.26704,-0.292736 0.26612,-0.53867 9.2e-4,-0.34229 -0.13948,-0.572624 -0.42121,-0.691003 -0.15875,-0.06424 -0.40652,-0.09544 -0.74606,-0.09544 h -0.95437 v 2.72914 m 1.37099,-1.47102 c -0.0991,0.03946 -0.25236,0.06057 -0.45608,0.06057 h -0.43589 v -0.988326 h 0.40928 c 0.26704,0 0.46158,0.03212 0.58272,0.100025 0.12205,0.06791 0.18261,0.200969 0.18261,0.400103 0,0.210145 -0.0945,0.352384 -0.28264,0.427632 z m 1.39485,-1.640787 a 2.4235568,2.4235568 0 0 0 -1.7665,-0.724039 c -0.68183,0 -1.26822,0.242264 -1.75275,0.724039 a 2.3896032,2.3896032 0 0 0 -0.72587,1.75366 c 0,0.691921 0.24043,1.281063 0.72128,1.76559 0.4827,0.486364 1.07,0.730463 1.75917,0.730463 0.68917,0 1.27739,-0.244099 1.76284,-0.730463 0.48636,-0.48728 0.73046,-1.075505 0.73046,-1.76559 0,-0.685496 -0.24318,-1.270968 -0.72863,-1.75366 z m -0.2496,0.241346 c 0.41845,0.417538 0.62676,0.922255 0.62676,1.511397 0,0.596483 -0.20831,1.103952 -0.62676,1.524243 -0.41387,0.420292 -0.9195,0.631355 -1.51323,0.631355 -0.59373,0 -1.09753,-0.210146 -1.51599,-0.631355 a 2.0950323,2.0950323 0 0 1 -0.62034,-1.524243 c 0,-0.590977 0.20923,-1.093859 0.62309,-1.511397 a 2.0601609,2.0601609 0 0 1 1.5114,-0.630437 2.0619963,2.0619963 0 0 1 1.51507,0.630437 z"/></svg>