<svg version="1.1" viewBox="0 0 178 26" fill="none" role="img" aria-label="logo da centauro"
  sodipodi:docname="centauro.svg" inkscape:version="1.3.2 (091e20ef0f, 2023-11-25)"
  xmlns:inkscape="http://www.inkscape.org/namespaces/inkscape"
  xmlns:sodipodi="http://sodipodi.sourceforge.net/DTD/sodipodi-0.dtd" xmlns="http://www.w3.org/2000/svg"
  xmlns:svg="http://www.w3.org/2000/svg">
  <defs />
  <sodipodi:namedview pagecolor="#ffffff" bordercolor="#111111" borderopacity="1" inkscape:showpageshadow="0"
    inkscape:pageopacity="0" inkscape:pagecheckerboard="1" inkscape:deskcolor="#d1d1d1" inkscape:zoom="5.6966292"
    inkscape:cx="89" inkscape:cy="13.077909" inkscape:window-width="1600" inkscape:window-height="831"
    inkscape:window-x="0" inkscape:window-y="0" inkscape:window-maximized="1" inkscape:current-layer="svg14" />
  <g transform="matrix(0.8936578,0,0,0.8936578,8.3759439,1.4015964)" class="fill-black dark:fill-lime-400">
    <path fill="#ffffff"
      d="m 15.816406,10.683594 c -4.253906,4.425781 -0.914062,8.046875 7.453125,8.175781 l -0.796875,1.441406 C 11.789062,20.183594 7.273438,16.046875 12.375,10.996094 16.101562,7.300781 24.65625,3.429688 32.261719,2.34375 l -0.664063,1.222656 c -6.257812,1.183594 -12.65625,3.875 -15.78125,7.117188 z m 0,0"
      class="fill-black dark:fill-lime-400" />
    <path fill="#ffffff"
      d="m 11.296875,10.960938 c -5.484375,5.425781 -0.6875,9.898437 10.785156,10.027343 l -1.128906,2.027344 c -0.414063,0 -0.816406,0 -1.226563,0 C 6.644531,23.023438 1.648438,17.203125 7.742188,10.878906 12.613281,5.804688 23.644531,1.574219 32.96875,1.046875 L 32.445312,2.011719 C 24.050781,3.046875 15.300781,6.992188 11.296875,10.960938 Z m 0,0"
      class="fill-black dark:fill-lime-400" />
    <path fill="#ffffff"
      d="M 3.066406,10.9375 C 8.886719,4.992188 21.9375,0.4375 33.554688,0 L 33.140625,0.699219 C 23.101562,1.207031 11.90625,5.472656 6.78125,10.800781 0.378906,17.445312 5.558594,23.699219 19.316406,23.699219 c 0.433594,0 0.835938,0 1.261719,-0.02344 L 19.375,25.816406 C 17.820312,25.921875 12.652344,26.210938 7.722656,24.675781 -0.417969,22.140625 -2.375,16.46875 3.058594,10.9375"
      class="fill-black dark:fill-lime-400" />
    <path fill="#ffffff"
      d="m 25.457031,20.238281 c -0.757812,0.03516 -1.578125,0.05859 -2.140625,0.07031 l 0.757813,-1.4375 c 0.546875,0 1.324219,-0.02344 1.921875,-0.04687 z m 0,0"
      class="fill-black dark:fill-lime-400" />
    <path fill="#ffffff"
      d="m 23.523438,25.472656 c -0.960938,0.09375 -2.152344,0.195313 -2.960938,0.265625 l 1.054688,-2.085937 c 0.703124,-0.03125 1.765624,-0.08984 2.625,-0.148438 z m 0,0"
      class="fill-black dark:fill-lime-400" />
    <path fill="#ffffff"
      d="m 24.492188,22.886719 c -0.683594,0.04297 -1.542969,0.08984 -2.523438,0.125 l 1.011719,-2 c 0.832031,0 1.609375,-0.04687 2.238281,-0.08203 z m 0,0"
      class="fill-black dark:fill-lime-400" />
    <path fill="#ffffff"
      d="m 69.488281,25.226562 h -5.640625 c -2.105468,0 -3.535156,-0.539062 -4.375,-1.582031 -0.839844,-1.042969 -1.039062,-2.617187 -0.601562,-4.734375 L 61.410156,6.886719 c 0.53125,-2.515625 1.367188,-4.195313 2.4375,-5.074219 1.070313,-0.878906 2.90625,-1.269531 5.375,-1.269531 h 4.875 L 73.5,3.335938 h -3.535156 c -1.105469,0 -1.871094,0.234374 -2.40625,0.703124 -0.535156,0.46875 -0.867188,1.308594 -1.101563,2.488282 l -0.46875,2.148437 h 5.875 l -0.699219,3.296875 h -5.878906 l -1.339844,6.382813 c -0.300781,1.476562 -0.300781,2.519531 0.07031,3.15625 0.367187,0.640625 1.167969,0.941406 2.367187,0.941406 h 3.710938 z m 0,0"
      class="fill-black dark:fill-lime-400" />
    <path fill="#ffffff"
      d="M 86.355469,25.226562 H 81.410156 L 85.554688,5.6875 C 85.6875,4.945312 85.621094,4.417969 85.320312,4.039062 85.019531,3.660156 84.417969,3.46875 83.582031,3.46875 h -0.867187 l -4.609375,21.757812 h -4.941407 l 5.207032,-24.6875 h 8.222656 c 1.566406,0 2.703125,0.4375 3.371094,1.3125 0.667968,0.871094 0.902344,2.082032 0.566406,3.660157 z m 0,0"
      class="fill-black dark:fill-lime-400" />
    <path fill="#ffffff"
      d="m 107.82813,3.328125 h -4.67579 L 98.542969,25.226562 H 93.601562 L 98.210938,3.328125 h -4.578126 l 0.570313,-2.789063 h 14.195315 z m 0,0"
      class="fill-black dark:fill-lime-400" />
    <path fill="#ffffff"
      d="m 119.15625,25.226562 h -4.98437 l 2.80859,-13.269531 h -3.90625 l -2.80469,13.269531 h -4.94531 l 3.83984,-18.207031 c 0.46875,-2.179687 1.41016,-3.859375 2.80469,-4.988281 1.39453,-1.128906 3.28125,-1.746094 5.55469,-1.746094 2.40234,0 4.03906,0.535156 4.91015,1.609375 0.86719,1.109375 1.03516,2.792969 0.56641,5.140625 z m -1.46875,-16.5625 0.56641,-2.683593 c 0.23437,-1.015625 0.23437,-1.746094 0,-2.183594 -0.23047,-0.433594 -0.63672,-0.636719 -1.33594,-0.636719 -0.76953,0 -1.33594,0.234375 -1.70313,0.636719 -0.36718,0.40625 -0.66796,1.140625 -0.86718,2.183594 l -0.57032,2.683593 z m 0,0"
      class="fill-black dark:fill-lime-400" />
    <path fill="#ffffff"
      d="m 138.98828,18.40625 c -0.50781,2.453125 -1.46875,4.265625 -2.80469,5.441406 -1.33593,1.175782 -3.20703,1.777344 -5.48047,1.777344 -2.20312,0 -3.73828,-0.605469 -4.67187,-1.847656 -0.9375,-1.238282 -1.10547,-2.992188 -0.60156,-5.375 l 3.77343,-17.863282 h 4.94141 l -3.73828,17.761719 c -0.30078,1.347657 -0.36719,2.285157 -0.23438,2.855469 0.13282,0.570312 0.56641,0.839844 1.30079,0.839844 0.30859,0.01172 0.61328,-0.05469 0.88671,-0.195313 0.27344,-0.140625 0.50782,-0.351562 0.67969,-0.609375 0.40235,-0.507812 0.73438,-1.476562 1.03516,-2.886718 l 3.74219,-17.761719 h 4.9414 z m 0,0"
      class="fill-black dark:fill-lime-400" />
    <path fill="#ffffff"
      d="m 177.02734,12.941406 c -1.07031,5.003906 -2.375,8.375 -3.9414,10.105469 -0.75391,0.832031 -1.67578,1.496094 -2.70703,1.941406 -1.02735,0.445313 -2.14063,0.664063 -3.26172,0.640625 -2.40625,0 -4.03907,-0.875 -4.91016,-2.589844 -0.87109,-1.710937 -0.75391,-5.101562 0.30078,-10.105468 1.07031,-5.074219 2.40625,-8.433594 3.94141,-10.148438 0.76953,-0.824218 1.70312,-1.472656 2.73828,-1.90625 1.03516,-0.433594 2.15234,-0.644531 3.27344,-0.613281 2.4375,0 4.10547,0.757813 4.97265,2.28125 0.8711,1.523437 0.73828,5.003906 -0.39843,10.378906 z m -5.11328,0 c 0.51172,-2.257812 0.89063,-4.546875 1.13672,-6.851562 0.16797,-1.582032 -0.30078,-2.386719 -1.33594,-2.386719 -1.03515,0 -1.80078,0.804687 -2.37109,2.417969 -0.71094,2.238281 -1.28906,4.515625 -1.73438,6.820312 -0.70312,3.296875 -1.10546,5.675782 -1.16796,7.117188 -0.0664,1.441406 0.39843,2.117187 1.39843,2.117187 1,0 1.80469,-0.761719 2.33985,-2.386719 0.53515,-1.574218 1.10156,-3.863281 1.73437,-6.851562"
      class="fill-black dark:fill-lime-400" />
    <path fill="#ffffff"
      d="M 54.929688,25.226562 H 49.25 c -2.066406,0 -3.53125,-0.539062 -4.371094,-1.582031 -0.84375,-1.042969 -1.035156,-2.617187 -0.570312,-4.734375 L 46.847656,6.886719 c 0.535156,-2.515625 1.335938,-4.195313 2.4375,-5.074219 1.101563,-0.878906 2.871094,-1.269531 5.375,-1.269531 h 4.84375 l -0.601562,2.792969 h -3.535156 c -1.066407,0 -1.871094,0.234374 -2.367188,0.703124 -0.503906,0.46875 -0.902344,1.308594 -1.136719,2.488282 l -0.46875,2.148437 -0.667969,3.296875 -1.367187,6.382813 c -0.300781,1.476562 -0.269531,2.519531 0.0625,3.15625 0.335937,0.640625 1.171875,0.941406 2.40625,0.941406 h 3.675781 z m 0,0"
      class="fill-black dark:fill-lime-400" />
    <path fill="#ffffff"
      d="m 154.98437,7.15625 c 0.33204,-1.523438 0.36719,-2.554688 0.16797,-3.089844 -0.20312,-0.535156 -0.73828,-0.804687 -1.60547,-0.804687 h -1.30078 l -1.60547,7.609375 h 1.4375 c 0.34375,0.01172 0.6875,-0.05859 1,-0.203125 0.31641,-0.144531 0.58985,-0.363281 0.80469,-0.636719 0.4336,-0.535156 0.80078,-1.507812 1.10156,-2.886719 z m -1.36718,8.574219 C 153.75,15.09375 153.64844,14.625 153.38281,14.320312 153.11328,14.019531 152.67969,13.8125 152.07812,13.8125 h -2.07031 l -2.40625,11.417969 h -4.9414 l 5.21093,-24.691407 h 7.54688 c 2.07031,0 3.47265,0.472657 4.20703,1.445313 0.73437,0.972656 0.93359,2.386719 0.50781,4.332031 -0.30078,1.480469 -0.83594,2.6875 -1.63672,3.59375 -0.79297,0.921875 -1.83593,1.589844 -3.0039,1.914063 1.13281,0.132812 1.96875,0.570312 2.46875,1.308593 0.5,0.738282 0.60156,1.648438 0.36718,2.722657 l -2.0039,9.371093 h -4.71094 z m 0,0"
      class="fill-black dark:fill-lime-400" />
  </g>
</svg>