<svg viewBox="0 0 80 81" xmlns="http://www.w3.org/2000/svg" fill="none">
<rect width="80" height="80" transform="translate(0 0.250977)" fill="none" />
<path d="M30.0146 43.4526L29.9818 35.3371L37.7499 32.4546L29.9268 29.8918L29.7629 21.8959L25.0173 28.3473L17.2543 25.9534L21.7606 32.7257L17.362 39.5104L25.0238 36.9706L30.0146 43.4526Z" />
<path d="M30.9848 51.9833H44.8989L62.3376 32.6934L44.8148 13.3799H31.0348L47.4234 32.665L30.9848 51.9833Z" />
<path fill="#ccc" d="M0 62.3665C0 59.8597 2.1188 57.3944 5.01456 57.3944C6.98704 57.3944 9.20056 59.6188 9.20056 59.6188L6.8024 61.0145C6.8024 61.0145 6.40624 59.9677 4.92744 59.9677C3.42408 59.9677 2.53952 61.2024 2.52912 62.3229C2.51752 63.5755 3.54424 64.6781 4.84016 64.6781C5.85704 64.6781 6.9332 63.5877 6.9332 63.5877L8.98264 65.0706C8.98264 65.0706 7.44904 66.9461 4.88384 66.9461C2.31336 66.9461 0 65.3957 0 62.3665Z" />
<path fill-rule="evenodd" clip-rule="evenodd" d="M14.9526 57.5213C12.2554 57.5213 10.0727 59.6762 10.0727 62.326C10.0727 64.9756 12.2554 67.122 14.9526 67.122C17.6498 67.122 19.8409 64.9756 19.8409 62.326C19.8409 59.6762 17.6498 57.5213 14.9526 57.5213ZM14.9526 59.9237C16.3012 59.9237 17.3967 61.0011 17.3967 62.326C17.3967 63.6508 16.3012 64.7197 14.9526 64.7197C13.604 64.7197 12.5169 63.6508 12.5169 62.326C12.5169 61.0011 13.604 59.9237 14.9526 59.9237ZM21.674 57.6572V66.6382H24.0248V61.7842L27.9032 66.6382H30.22V57.6572H27.8608V62.9057L24.0248 57.6572H21.674ZM32.138 57.6572L35.312 66.6382H38.8086L41.9826 57.6572H39.4111L37.0603 64.7877L34.7095 57.6572H32.138ZM43.6714 57.6572V66.6382H50.8935V64.5669H46.0222V63.0645H50.4014V61.2309H46.0222V59.7963H50.8935V57.6571L43.6714 57.6572ZM72.7779 57.6572V66.6382H80V64.5669H75.1287V63.0645H79.5079V61.2309H75.1287V59.7963H80V57.6571L72.7779 57.6572ZM53.5499 57.827V66.6806H55.6375V63.1918H56.8342L58.6673 66.6806H61.3576L59.5415 62.8947C61.9027 61.4786 61.4352 58.5146 58.8031 57.827H53.5499ZM55.5952 59.9661H58.0054C58.8428 59.9661 58.7884 61.2648 58.0054 61.2648H55.5952V59.9661Z" />
<path d="M62.612 65.4405C62.7046 65.9957 64.8927 67.0443 67.052 67.0443C69.035 67.0443 70.6288 66.092 70.6288 64.2017C70.6288 61.8769 67.9154 61.3388 67.9154 61.3388C67.9154 61.3388 65.6611 61.307 65.6029 60.2593C65.5755 59.7664 66.2621 59.4884 66.8671 59.4884C67.8575 59.4884 68.9637 60.4753 68.9637 60.4753L70.5362 58.7791C70.5362 58.7791 68.5466 57.2062 66.8671 57.2062C65.2632 57.2062 62.9821 58.2568 62.9821 60.4444C62.9821 62.3057 65.6227 63.1618 65.6227 63.1618C65.6227 63.1618 68.4088 63.4587 68.4088 64.3303C68.4088 64.9235 67.3984 65.1013 66.8054 65.1013C65.3658 65.1013 64.1538 63.8369 64.1538 63.8369L62.612 65.4405Z" />
</svg>