<svg viewBox="0 0 289 20" fill="none" xmlns="http://www.w3.org/2000/svg">
    <path d="M15.793 19.703H11.72v-8.38H4.103v8.38H0V.297h4.074v7.608h7.616V.297h4.074v19.406h.03zm16.65 0l-1.388-4.606h-7.026l-1.387 4.606h-4.399L25.033.238h4.989l6.819 19.465h-4.399zM30.08 11.62c-1.3-4.19-2.008-6.538-2.185-7.103-.147-.535-.265-.98-.354-1.307-.295 1.129-1.122 3.922-2.48 8.41h5.019zm13.254-2.705h1.329c1.298 0 2.243-.208 2.863-.653.62-.417.915-1.1.915-2.051 0-.921-.325-1.575-.944-1.961-.62-.387-1.594-.595-2.923-.595h-1.24v5.26zm0 3.329v7.43h-4.074V.296h5.61c2.627 0 4.545.476 5.815 1.427 1.27.95 1.889 2.407 1.889 4.368 0 1.13-.325 2.14-.945 3.061-.62.892-1.505 1.575-2.657 2.08 2.894 4.369 4.783 7.192 5.668 8.44h-4.546l-4.605-7.43h-2.155zm29.727-2.437c0 3.18-.886 5.646-2.716 7.34-1.8 1.694-4.398 2.556-7.823 2.556h-5.461V.297h6.052c3.129 0 5.579.832 7.32 2.496 1.742 1.694 2.628 4.012 2.628 7.014zm-4.251.119c0-4.16-1.83-6.241-5.49-6.241h-2.185v12.63h1.741c3.956-.03 5.934-2.14 5.934-6.39zm16.413-6.479c-1.535 0-2.716.565-3.572 1.754-.826 1.159-1.27 2.793-1.27 4.873 0 4.31 1.624 6.479 4.842 6.479 1.358 0 2.981-.327 4.9-1.01v3.447C88.56 19.643 86.79 20 84.84 20c-2.804 0-4.93-.862-6.435-2.556-1.476-1.723-2.214-4.16-2.214-7.37 0-2.02.354-3.774 1.092-5.29.738-1.515 1.771-2.674 3.13-3.476C81.77.505 83.392.089 85.223.089c1.86 0 3.749.446 5.638 1.367l-1.328 3.329a15.331 15.331 0 0 0-2.185-.892 4.97 4.97 0 0 0-2.125-.446zm25.948 6.538c0 3.21-.797 5.676-2.362 7.4-1.594 1.723-3.837 2.585-6.789 2.585-2.952 0-5.225-.861-6.79-2.585-1.594-1.724-2.361-4.19-2.361-7.43 0-3.239.797-5.705 2.39-7.4C96.856.863 99.129 0 102.08 0c2.952 0 5.225.862 6.789 2.585 1.535 1.694 2.303 4.16 2.303 7.4zm-14.051 0c0 2.17.413 3.804 1.21 4.904.826 1.1 2.037 1.634 3.66 1.634 3.248 0 4.901-2.17 4.901-6.538s-1.624-6.538-4.871-6.538c-1.624 0-2.864.565-3.69 1.664-.797 1.07-1.21 2.705-1.21 4.874zm22.139-1.07h1.329c1.299 0 2.243-.208 2.863-.653.62-.417.915-1.1.915-2.051 0-.921-.324-1.575-.944-1.961-.62-.387-1.594-.595-2.923-.595h-1.24v5.26zm0 3.329v7.43h-4.073V.296h5.609c2.627 0 4.546.476 5.815 1.427 1.269.95 1.889 2.407 1.889 4.368 0 1.13-.325 2.14-.944 3.061-.62.892-1.506 1.575-2.657 2.08 2.893 4.369 4.782 7.192 5.668 8.47h-4.546l-4.606-7.43h-2.155v-.03zm24.827 7.459h-11.1V.297h11.1v3.358h-7.026v4.28h6.524v3.358h-6.524v4.992h7.026v3.418zm6.465 0h-2.244V.297h10.745v2.021h-8.501v7.103h7.97v2.02h-7.97v8.262zm28.427-9.718c0 3.12-.797 5.557-2.332 7.31-1.564 1.784-3.719 2.675-6.494 2.675-2.834 0-5.019-.861-6.554-2.615-1.535-1.753-2.302-4.22-2.302-7.4 0-3.15.767-5.616 2.332-7.34C165.164.892 167.378 0 170.212 0c2.775 0 4.93.892 6.494 2.645 1.476 1.783 2.273 4.22 2.273 7.34zm-15.35-.03c0 2.616.561 4.607 1.653 5.974 1.122 1.367 2.716 2.05 4.841 2.05 2.126 0 3.749-.683 4.842-2.02 1.092-1.368 1.623-3.359 1.623-5.974s-.531-4.576-1.623-5.943c-1.093-1.338-2.687-2.021-4.812-2.021-2.126 0-3.749.683-4.871 2.05-1.122 1.338-1.653 3.299-1.653 5.884zm36.368.03c0 3.12-.797 5.557-2.332 7.31-1.564 1.784-3.719 2.675-6.494 2.675-2.834 0-5.018-.861-6.553-2.615-1.535-1.753-2.303-4.22-2.303-7.4 0-3.15.768-5.616 2.332-7.34C186.182.892 188.396 0 191.23 0c2.775 0 4.93.892 6.494 2.645 1.476 1.783 2.273 4.22 2.273 7.34zm-15.35-.03c0 2.616.561 4.607 1.653 5.974 1.122 1.367 2.716 2.05 4.841 2.05 2.126 0 3.75-.683 4.842-2.02 1.092-1.368 1.623-3.359 1.623-5.974s-.531-4.576-1.623-5.943c-1.092-1.338-2.687-2.021-4.812-2.021-2.125 0-3.749.683-4.871 2.05-1.122 1.338-1.653 3.299-1.653 5.884zm24.767 9.748h-2.243V2.318h-6.111V.298h14.435v2.02h-6.081v17.385zm25.801 0h-2.214l-3.897-12.987a67.375 67.375 0 0 1-.62-2.17c-.236-.89-.354-1.396-.354-1.574a35.592 35.592 0 0 1-.915 3.833l-3.779 12.898h-2.214L216.115.297h2.362l3.04 11.976c.414 1.694.738 3.21.916 4.577.236-1.635.59-3.21 1.062-4.755L226.949.297h2.362l3.631 11.887c.413 1.367.767 2.913 1.062 4.636.178-1.248.473-2.793.945-4.576L237.99.297h2.361l-5.136 19.406zm18.892 0h-10.745V.297h10.745v2.021h-8.501v6.24h7.97v1.992h-7.97v7.132h8.501v2.02zm16.384 0L268.1 13.55h-7.734l-2.362 6.152h-2.273L263.347.238h1.889l7.587 19.465h-2.332zm-3.1-8.202l-2.243-6.003a29.082 29.082 0 0 1-.886-2.794 30.883 30.883 0 0 1-.826 2.794l-2.273 6.003h6.228zm10.303.119v8.053h-2.244V.297h5.284c2.362 0 4.104.446 5.225 1.367 1.122.921 1.683 2.288 1.683 4.101 0 2.556-1.299 4.31-3.867 5.2L289 19.674h-2.657l-4.664-8.053h-3.985zm0-1.932h3.07c1.594 0 2.745-.327 3.483-.951.738-.624 1.093-1.575 1.093-2.853 0-1.278-.384-2.199-1.122-2.764-.738-.564-1.949-.861-3.602-.861h-2.922v7.429z" fill="#fff"></path>
  </svg>