<svg version="1.1" id="Layer_1" class="img-fluid" xmlns="http://www.w3.org/2000/svg" xmlns:xlink="http://www.w3.org/1999/xlink" x="0px" y="0px" width="639.21px" height="98.834px" viewBox="101.366 247.847 639.21 98.834" enable-background="new 101.366 247.847 639.21 98.834" xml:space="preserve" fill="#fff">
    <path d="M248.778,247.877v-0.03H136.144c-19.208,0-34.777,15.57-34.777,34.777h-0.001v29.266h0.001
        c0,19.207,15.567,34.775,34.772,34.777v-0.008c2.846,0,13.865,0.006,13.865,0.006c0-2.381-0.144-5.203,0.598-10.396
        c0.606-4.277,1.31-7.592,2.479-9.855c1.148-2.262,3.229-4.021,5.539-5.275c2.851-1.512,6.994-2.041,12.396-1.938h12.223v27.467
        h15.703v-27.467h12.223c5.4-0.104,9.543,0.426,12.396,1.938c2.311,1.256,4.391,3.016,5.539,5.275
        c1.166,2.266,1.871,5.578,2.478,9.855c0.739,5.193,0.597,8.031,0.597,10.412c0,0,12.421-0.02,15.375-0.02v0.006
        c0.014,0,0.025,0,0.037,0c19.207,0,34.777-15.568,34.777-34.775c0,0,0-0.008,0-0.012v-29.255
        C282.359,263.819,267.43,248.51,248.778,247.877z M271.377,311.906c-0.008,12.732-10.018,23.129-22.599,23.752v0.027h-0.149
        c-0.014-0.309-0.021-0.447-0.021-0.447c-0.297-3.115-0.635-5.461-1.014-7.066c-0.408-1.627-1.074-3.291-1.98-5.006
        c-1.221-2.211-2.566-3.883-4.053-4.998c-1.481-1.141-3.664-2.178-6.563-3.1c3.626-1.275,6.503-3.057,8.655-5.381
        c3.502-3.835,5.213-9.24,5.122-16.24c-0.046-3.476-0.858-6.64-2.42-9.523c-1.564-2.862-3.723-5.154-6.521-6.879
        c-4.112-2.571-9.135-3.337-19.424-3.337h-4.436c-8.699,0.334-14.543,4.98-14.543,12.741h18.662c2.809-0.033,4.813,0.163,6.053,0.565
        c3.527,1.224,5.327,4.069,5.387,8.546c0.05,4.029-1.086,6.87-3.402,8.554c-1.528,1.104-4.084,1.954-7.756,2h-58.573
        c-3.673-0.046-6.228-0.896-7.759-2c-2.313-1.684-3.451-4.524-3.401-8.554c0.062-4.477,1.858-7.322,5.389-8.546
        c1.238-0.403,3.242-0.598,6.052-0.565h18.662c0-7.761-5.843-12.407-14.544-12.741h-4.435c-10.286,0-15.312,0.766-19.425,3.337
        c-2.8,1.725-4.955,4.018-6.521,6.879c-1.562,2.883-2.375,6.047-2.42,9.523c-0.09,7,1.623,12.405,5.121,16.24
        c2.154,2.324,5.03,4.104,8.657,5.381c-2.901,0.922-5.084,1.959-6.564,3.1c-1.485,1.115-2.832,2.787-4.052,4.998
        c-0.906,1.715-1.573,3.379-1.981,5.006c-0.378,1.605-0.716,3.951-1.011,7.066c0,0-0.008,0.096-0.016,0.305
        c-11.92-1.289-21.199-11.377-21.207-23.637v-29.281c0-13.142,10.653-23.796,23.796-23.796h112.635v0.031
        c12.586,0.624,22.599,11.025,22.599,23.766V311.906z M740.576,285.777v-26.976h-75.518v43.936h42.635v16.067h-9.752v-10.051h-32.883
        v26.975h75.518v-43.935h-42.635v-16.069h9.752v10.053H740.576z M491.753,335.728h75.519v-26.975h-32.883v10.053h-9.753v-43.081
        h9.753v10.053h32.883v-26.976h-75.519V335.728z M361.115,291.794H348.26v-32.992h-32.883v76.926h32.883v-32.99h12.855v32.99h32.883
        v-76.926h-32.883V291.794z M620.902,258.802v33.955h-9.807v-33.955h-32.883v76.926h32.883v-32.027h9.807v32.027h39.922
        l-21.964-38.463l21.964-38.464L620.902,258.802L620.902,258.802z M404.941,335.728h75.868v-76.926h-75.868V335.728z
         M437.823,275.725h10.104v43.081h-10.104V275.725z"></path>
    </svg>