<svg viewBox="0 0 160 25" fill="#000" version="1.1" class="fill-black dark:fill-lime-400" id="svg8" sodipodi:docname="netshoes.svg" inkscape:version="1.3.2 (091e20ef0f, 2023-11-25)" xmlns:inkscape="http://www.inkscape.org/namespaces/inkscape" xmlns:sodipodi="http://sodipodi.sourceforge.net/DTD/sodipodi-0.dtd" xmlns="http://www.w3.org/2000/svg" xmlns:svg="http://www.w3.org/2000/svg" class="fill-black dark:fill-lime-400">
  <sodipodi:namedview class="fill-black dark:fill-lime-400" id="namedview8" pagecolor="#ffffff" bordercolor="#111111" borderopacity="1" inkscape:showpageshadow="0" inkscape:pageopacity="0" inkscape:pagecheckerboard="1" inkscape:deskcolor="#d1d1d1" inkscape:zoom="6.6625" inkscape:cx="80" inkscape:cy="12.532833" inkscape:window-width="1600" inkscape:window-height="831" inkscape:window-x="0" inkscape:window-y="0" inkscape:window-maximized="1" inkscape:current-layer="svg8" />
  <g clip-path="url(#clip0_1917_3031)" class="fill-black dark:fill-lime-400" id="g8" transform="matrix(0.95050378,0,0,0.95050378,4.0005399,0.56050657)">
    <path d="m 56.6071,17.848 c 0,-0.4064 0.063,-0.9693 0.3434,-2.2819 l 1.1877,-5.3452 H 63.077 L 64.1397,5.25068 H 59.201 L 60.2952,-9.76562e-4 H 54.0438 L 50.7306,15.5966 c -0.4064,1.844 -0.4999,2.6568 -0.4999,3.4066 0,3.9075 2.8448,5.97 6.1895,5.97 1.4691,0 2.4688,-0.1565 3.7195,-0.4999 l 1.0628,-5.0007 c -0.8443,0.0935 -1.5627,0.1564 -2.282,0.1564 -1.5321,0 -2.3134,-0.6248 -2.3134,-1.782 z" class="fill-black dark:fill-lime-400" id="path1" />
    <path d="m 41.6659,4.72021 c -7.0012,0 -11.3151,5.00074 -11.3151,11.97149 0,5.3136 3.6881,8.3149 8.9397,8.3149 2.5004,0 4.4074,-0.2185 6.3449,-0.7813 l 1.0313,-4.9073 c -1.5941,0.3749 -3.3447,0.5314 -5.3767,0.5314 -3.3131,0 -5.1572,-1.1257 -5.1572,-3.4697 0,-0.0619 0,-0.1259 0.003,-0.1908 1.476,0.2145 2.9668,0.3158 5.2172,0.3158 4.7203,0 7.752,-1.6876 7.752,-6.1894 0,-3.06323 -1.9375,-5.59509 -7.4391,-5.59509 z m 1.7191,6.28189 c -0.2499,1.2192 -1.2192,1.907 -4.0325,1.907 -0.6278,0 -1.5272,-0.0659 -2.5259,-0.2027 0.7291,-1.9001 2.1057,-3.61029 4.4644,-3.61029 1.4377,0 2.1255,0.74981 2.1255,1.59409 0,0.0935 0,0.2185 -0.0315,0.3129 z" class="fill-black dark:fill-lime-400" id="path2" />
    <path d="m 113.309,4.75073 c -6.283,0 -9.628,3.40665 -10.847,9.31467 -0.218,1.0942 -0.343,2.1254 -0.343,3.0317 0,5.4386 3.719,7.9085 8.595,7.9085 6.095,0 9.533,-3.0947 10.815,-9.2832 0.219,-1.0627 0.313,-2.0319 0.313,-2.9382 0,-5.09521 -3.282,-8.03347 -8.533,-8.03347 z m 2.25,9.56557 -0.313,1.5321 c -0.468,2.3439 -1.812,3.7196 -4.157,3.7196 -1.876,0 -2.688,-1.1877 -2.688,-2.8448 0,-0.3749 0.031,-0.8128 0.124,-1.2507 l 0.313,-1.5321 c 0.469,-2.3134 1.719,-3.7825 4.033,-3.7825 1.937,0 2.813,1.2811 2.813,2.9697 0,0.3749 -0.031,0.7813 -0.125,1.1877 z" class="fill-black dark:fill-lime-400" id="path3" />
    <path d="m 21.5675,15.504 c -0.5943,2.7503 -1.1562,3.4381 -1.7505,3.4381 -0.8748,0 -0.9693,-0.8443 -1.2812,-2.8133 L 17.661,10.9087 C 16.9112,6.37632 14.5348,4.78223 11.0967,4.78223 c -4.72032,0 -7.59559,3.06322 -8.93975,9.47107 L 0,24.5057 H 6.09496 L 8.25191,14.2533 c 0.59434,-2.7503 1.15621,-3.4381 1.75059,-3.4381 0.8747,0 0.9692,0.8443 1.2811,2.8133 l 0.8748,5.2202 c 0.7498,4.5323 3.1262,6.1264 6.5644,6.1264 4.7203,0 7.5955,-3.0632 8.9397,-9.4711 L 29.8194,5.2516 h -6.0949 z" class="fill-black dark:fill-lime-400" id="path4" />
    <path d="m 134.757,16.5037 c 4.72,0 7.752,-1.6875 7.752,-6.1894 0,-3.0632 -1.937,-5.59506 -7.439,-5.59506 -7.001,0 -11.315,5.00074 -11.315,11.97146 0,5.3137 3.688,8.3149 8.94,8.3149 2.5,0 4.407,-0.2185 6.345,-0.7813 l 1.031,-4.9073 c -1.594,0.3749 -3.345,0.5314 -5.377,0.5314 -3.313,0 -5.157,-1.1257 -5.157,-3.4696 0,-0.062 0,-0.126 0.003,-0.1909 1.476,0.2145 2.967,0.3158 5.217,0.3158 z m -0.062,-7.40759 c 1.438,0 2.126,0.74982 2.126,1.59409 0,0.0935 0,0.2185 -0.032,0.3129 -0.25,1.2192 -1.219,1.907 -4.032,1.907 -0.628,0 -1.527,-0.0659 -2.526,-0.2027 0.729,-1.9001 2.106,-3.6103 4.464,-3.6103 z" class="fill-black dark:fill-lime-400" id="path5" />
    <path d="m 74.9245,9.47103 c 1.1877,0 2.8448,0.15646 4.6888,0.43788 L 80.5825,5.31359 C 78.832,4.93868 76.5501,4.75073 74.3626,4.75073 c -4.5953,0 -8.9082,1.81255 -8.9082,6.00147 0,2.0635 0.9692,3.1262 3.876,5.2517 1.969,1.4376 2.8753,2.0939 2.8753,2.6253 0,0.9693 -1.1257,1.3442 -3.5631,1.3442 -1.5006,0 -3.2197,-0.188 -5.0637,-0.5314 l -0.9998,4.9073 c 1.6876,0.4378 4.1574,0.6563 7.0642,0.6563 5.1887,0 9.0647,-2.3134 9.0647,-6.7828 0,-2.2504 -1.6256,-3.7825 -4.3759,-5.6885 L 73.1129,11.69 c -0.8443,-0.5629 -1.1877,-0.8128 -1.1877,-1.1877 0,-0.78133 0.9998,-1.03127 3.0003,-1.03127 z" class="fill-black dark:fill-lime-400" id="path6" />
    <path d="m 154.342,9.47103 c 1.188,0 2.845,0.15646 4.689,0.43788 L 160,5.31359 c -1.751,-0.37491 -4.032,-0.56286 -6.22,-0.56286 -4.595,0 -8.908,1.81255 -8.908,6.00147 0,2.0635 0.969,3.1262 3.876,5.2517 1.969,1.4376 2.875,2.0939 2.875,2.6253 0,0.9693 -1.126,1.3442 -3.563,1.3442 -1.501,0 -3.22,-0.188 -5.064,-0.5314 l -0.999,4.9073 c 1.687,0.4378 4.157,0.6563 7.064,0.6563 5.188,0 9.064,-2.3134 9.064,-6.7828 0,-2.2504 -1.625,-3.7825 -4.375,-5.6885 L 152.53,11.69 c -0.844,-0.5629 -1.187,-0.8128 -1.187,-1.1877 0,-0.78133 0.999,-1.03127 3,-1.03127 z" class="fill-black dark:fill-lime-400" id="path7" />
    <path d="m 95.5227,4.7508 c -2.1992,0 -4.0314,0.69569 -5.7259,2.11956 L 91.2403,0 h -6.2514 l -5.1572,24.5058 h 6.2514 l 2.8753,-13.6905 c 1.0942,-0.5314 2.157,-0.8128 3.1882,-0.8128 1.4376,0 2.1255,0.5313 2.1255,1.5941 0,0.2184 0,0.4378 -0.063,0.6878 l -2.5634,12.2214 h 6.283 l 2.5943,-12.2844 c 0.157,-0.7813 0.25,-1.5321 0.25,-2.1884 0,-3.75108 -2.5629,-5.2822 -5.2512,-5.2822 z" class="fill-black dark:fill-lime-400" id="path8" />
  </g>
  <defs class="fill-black dark:fill-lime-400" id="defs8">
    <clipPath class="fill-black dark:fill-lime-400" id="clip0_1917_3031">
      <rect width="160" height="25.0057" class="fill-black dark:fill-lime-400" id="rect8" />
    </clipPath>
  </defs>
</svg>
