<svg xmlns="http://www.w3.org/2000/svg" xml:space="preserve" viewBox="0 0 841.89 595.28"  ><g id="Ebene_1"><path d="m391.33 333.8 27.03-72.03h17.89l-22.41 59.77H428l-4.52 12.27h-32.15zm39.02 0 9.63-25.91 5.7-46.12h16.52l-5.7 25.52h.89l13.07-25.52h17.6l-29.1 46.42-9.54 25.61h-19.07zm74.81 0 13.08-32.97h-1.57l-17.79 32.97h-12.09l7.18-32.97h-1.38L480.7 333.8h-14.65l26.84-72.03h18.58L504 300.14h1.38l21.23-38.37h20.55l-27.03 72.03h-14.97zm71.08 0 26.93-72.03h17.89l-26.94 72.03h-17.88zm-16.81-36.31.49-.1c4.33 0 7.57-1.27 9.24-5.69l3.83-10.3c1.87-4.91 1.47-8.14-3.93-8.14h-.49l-9.14 24.23zm-31.46 36.31 26.94-72.03h15.43c15.04 0 23.1 10.89 18.09 25.91l-.59 1.77c-4.72 14.03-16.91 19.33-32.54 19.33l-9.44 25.02h-17.89zm146.48.88c-14.35 0-20.94-9.62-15.63-23.94l18.29-48.97h17.99l-21.63 57.7c-.89 2.36 0 3.83 2.55 3.83 2.26 0 3.44-1.18 4.52-4.12l21.63-57.41h17.79l-20.25 54.17c-2.36 6.38-5.7 11.19-9.73 14.23-3.93 2.94-9.14 4.51-15.53 4.51m-290.59-62.41c-2.46 0-4.13 1.47-5.21 4.32l-15.63 41.51c-.39 1.18-.49 1.67-.49 2.26 0 1.37 1.18 2.45 3.34 2.45 2.46 0 4.23-1.37 5.31-4.32l15.43-41.32c.29-.69.59-1.77.59-2.36 0-1.36-1.18-2.54-3.34-2.54M364 334.68c-17.79 0-20.94-16.49-13.37-35.72l2.46-6.28c6.78-17.27 16.81-31.8 32.64-31.8 17.79 0 20.35 16.59 13.27 35.62l-2.36 6.38c-6.49 17.48-16.91 31.8-32.64 31.8m267-.88-2.36-23.75h-1.08l-8.06 23.75h-17.7l27.03-72.03h17.89l-10.42 24.24h1.38l16.12-24.24h18.48l-28.8 41.12 4.23 30.91H631zm91.42.88c-10.03 0-17.4-4.91-17.4-14.13 0-2.16.49-4.61 1.47-6.77l1.87-4.32h15.93l-3.64 9.72c-.98 2.94-.1 4.51 2.36 4.51 3.83 0 5.7-3.92 6-7.75 0-4.12-1.38-6.18-4.23-13.45l-1.08-2.75c-2.56-6.38-4.52-11.58-4.52-17.86 0-12.46 10.32-21 25.36-21 9.24 0 16.61 5.3 16.61 13.74 0 2.26-.49 4.61-1.38 7.16l-1.77 5.2h-16.22l4.13-11.38c.59-1.86.1-3.73-2.56-3.73-4.03 0-5.7 3.43-6.09 7.75 0 3.83 1.57 8.93 3.54 13.35l1.18 2.65c2.46 5.59 5.11 12.56 5.11 17.47.01 13.15-10.32 21.59-24.67 21.59M266.79 277.51c-3.19 0-6.3.14-9.34.39-9.3-10.31-29.93-17.86-53.84-17.86-23.89 0-44.54 7.54-53.86 17.87-3.07-.25-6.18-.39-9.33-.39-32.51 0-59.12 13-59.12 29.56 0 16.05 26.62 29.05 59.12 29.05 23.78 0 44.6-6.94 54.12-16.91a117.687 117.687 0 0 0 18.13 0c9.52 9.98 30.32 16.91 54.12 16.91 32.51 0 59.12-13 59.12-29.05 0-16.56-26.62-29.57-59.12-29.57zm0 48.05c-19.5 0-48.05-5.49-48.05-18.49 0-9.14 13.51-15.34 28.65-17.88.3-.1.41-.3.3-.61-1.02-2.84-3.25-5.08-5.69-6.6-.41-.3-.81-.41-1.32-.3-18.59 2.44-33.52 14.02-33.52 25.4 0 1 .11 1.99.31 2.96-1.32.06-2.61.09-3.87.09-1.24 0-2.53-.03-3.86-.09v-.01c-.47-.01-.93-.04-1.4-.06-16.69-.96-38.83-6.39-41.67-17.92-.1-.3-.2-.41-.51-.51-3.76-.51-7.21-.71-10.87-.81-.51 0-.81.3-.71.81 1.27 12.28 16.41 21.69 36.33 25.79-9.8 5.71-27.21 8.25-40.49 8.25-19 0-47.04-5.49-47.04-18.49 0-14.02 28.04-19.5 47.04-19.5 17.37 0 45.21 4.67 47.95 17.57.1.51.3.71.81.81 3.56.61 6.91.91 10.36 1.02.3 0 .51-.2.51-.51-.68-12.29-16.49-22.36-37.22-26.68 9.39-6.79 27.29-10.3 40.78-10.3 18.34 0 44.9 6.46 46.99 18.94.01.09.04.18.05.26h.01c.06.43.1.87.1 1.32 0 9.04-12.49 15.04-28.04 18.49-.41.1-.51.3-.3.61 1.42 2.64 3.66 4.77 7.01 6.6.61.3 1.02.41 1.52.3 19.2-4.27 31.8-14.93 31.8-26.01 0-.79-.08-1.58-.21-2.36 1.46-.05 2.89-.08 4.28-.08 19 0 47.03 5.49 47.03 19.5-.03 13.01-28.07 18.49-47.06 18.49z" fill="#fff" width="100%"></path></g></svg>