<?xml version="1.0" encoding="UTF-8"?>
<svg id="Layer_1" data-name="Layer 1" xmlns="http://www.w3.org/2000/svg" viewBox="0 0 595.28 336.79">
  <defs>
    <style>
      .cls-1 {
        fill: #fff;
        stroke-width: 0px;
      }
    </style>
  </defs>
  <path class="cls-1" d="M127.98,95.31c13.28-.22,24.14-11.11,24.19-24.2.05-13.13-10.74-23.66-24.01-23.43-13.29.21-24.17,11.08-24.21,24.2-.05,13.11,10.75,23.65,24.03,23.43Z"/>
  <path class="cls-1" d="M214.58,95.31c13.27-.21,24.14-11.1,24.17-24.2.05-13.12-10.73-23.64-24.03-23.43-13.26.22-24.15,11.08-24.2,24.2-.05,13.11,10.73,23.65,24.05,23.43Z"/>
  <path class="cls-1" d="M494.75,195.19c-6.91-5.39-17.38-9.74-31.11-12.94l-31.16-7.28c-11.81-2.73-19.66-5.14-23.3-7.17-5.45-2.93-8.09-7.22-8.09-13.16,0-6.51,2.71-11.47,8.29-15.11,5.64-3.68,13.35-5.55,22.88-5.55,8.56,0,15.85,1.46,21.6,4.31,8.62,4.31,13.12,11.39,13.76,21.6l-.02,11.11h37.73v-11.68l-.03-1.02h-.05c-1-18.15-8.19-32.26-21.35-41.94-13.48-9.9-29.99-14.92-49.07-14.92-22.84,0-40.41,5.33-52.27,15.87-.18.16-.36.32-.52.48v-11.23h-39.79v108.9c0,11.84-1.41,20.58-4.22,26.01-4.28,9.4-13.77,14.15-28.2,14.15s-24.03-4.76-28.32-14.21c-2.77-5.37-4.21-14.12-4.21-25.95v-108.9h-39.76v24.35c-2.66-3.41-5.37-6.34-8.21-8.91-13.54-13.81-33.38-20.81-58.92-20.81s-45.37,7-58.86,20.76c-18.1,16.26-27.3,40.89-27.3,73.19s9.17,56.31,27.24,73.15c13.56,13.81,33.38,20.82,58.92,20.82s45.36-7.01,58.87-20.78c5.11-4.78,9.64-10.46,13.51-16.95,1.14,3.22,2.34,5.93,3.63,8.26,11.13,19.32,32.47,29.11,63.41,29.11s50.44-9.03,61.85-26.85c2.97,4.11,6.51,7.8,10.57,10.96,13.51,10.55,32.27,15.89,55.78,15.89s41.13-5.43,53.8-16.16c12.7-10.77,19.16-24.46,19.16-40.75s-5.46-28.24-16.26-36.66ZM382.02,217.74c.01-.32.04-1.88.04-2.21v-20.16c.32.26.65.5,1.01.74,7.13,4.9,20.37,9.47,39.29,13.62l19.22,4.16c11.06,2.35,19.25,5.08,24.3,8.1,4.9,3.01,7.28,7.13,7.28,12.6,0,9.54-4.96,15.88-15.15,19.42-5.45,1.85-12.66,2.79-21.42,2.79-14.51,0-24.87-3.53-30.78-10.48-3.22-3.78-5.4-9.67-6.51-17.33v-11.25h-17.27ZM204.56,240.28c-8.37,10.41-19.86,15.69-34.14,15.69s-25.84-5.28-34.34-15.7c-8.55-10.48-12.89-25.67-12.89-45.12s4.33-34.62,12.89-45.09c8.5-10.45,20.06-15.72,34.34-15.72s25.77,5.3,34.14,15.76c8.44,10.52,12.72,25.68,12.72,45.05s-4.28,34.65-12.72,45.13Z"/>
</svg>