<svg xmlns="http://www.w3.org/2000/svg" xmlns:xlink="http://www.w3.org/1999/xlink" version="1.1" xml:space="preserve" viewBox="88.97 73.21 428.07 113.6">
    <path d="M164.23,84.67c-7.35-6.04-18.12-9.1-32-9.1H90.48c-0.83,0-1.51,0.67-1.51,1.49v105.24c0,1.18,0.97,2.14,2.17,2.14h13.43   c1.2,0,2.17-0.96,2.17-2.14v-37.8c0-1.18,0.97-2.14,2.17-2.14h23.32c13.88,0,24.65-3.06,32-9.11c7.23-5.94,10.9-14.14,10.9-24.37   C175.13,98.76,171.46,90.61,164.23,84.67z M149.92,124.48c-4.45,3.52-11.22,5.3-20.14,5.3H108.9c-1.2,0-2.17-0.96-2.17-2.14V90.28   c0-1.18,0.97-2.14,2.17-2.14h20.88c8.92,0,15.69,1.78,20.14,5.3c4.59,3.63,6.92,8.82,6.92,15.44   C156.84,115.61,154.51,120.85,149.92,124.48z"></path>
    <path d="M329.33,161.58c-6.21-7.68-9.37-18.31-9.37-31.58c0-13.28,3.18-23.9,9.46-31.59c6.42-7.87,14.98-11.69,26.15-11.69   c8.58,0,15.69,2.27,21.13,6.74c4.3,3.53,7.24,9.43,8.79,15.04c0.26,0.94,1.09,1.62,2.08,1.62h13.94c1.34,0,2.4-1.2,2.14-2.49   c-1.02-5.18-2.98-11.24-5.84-15.51c-3.94-5.87-9.59-10.53-16.79-13.85c-7.27-3.36-15.83-5.06-25.45-5.06   c-11.08,0-20.81,2.32-28.92,6.9c-8.06,4.55-14.32,11.13-18.63,19.57c-4.33,8.49-6.53,18.69-6.53,30.34   c0,11.65,2.17,21.86,6.45,30.34c4.25,8.44,10.46,15.02,18.45,19.56c8.04,4.57,17.68,6.89,28.65,6.89   c14.47,0,26.24-3.57,34.98-10.61c7.17-5.77,11.85-14.77,13.94-24.28c0.29-1.31-0.77-2.55-2.13-2.55h-14.18   c-0.98,0-1.81,0.66-2.08,1.59c-1.7,5.85-4.8,11.9-9.24,15.52h0c-5.55,4.52-12.72,6.81-21.29,6.81   C344.11,173.28,335.7,169.45,329.33,161.58z"></path>
    <path d="M503.74,75.57h-69.92c-1.2,0-2.17,0.96-2.17,2.14v8.76c0,1.18,0.97,2.14,2.17,2.14h63.27c1.2,0,2.17,0.96,2.17,2.14   l0.02,29.3c0,1.18-0.97,2.14-2.17,2.14h-63.29c-1.2,0-2.17,0.96-2.17,2.14v8.6c0,1.18,0.97,2.14,2.17,2.14h63.29   c1.2,0,2.17,0.96,2.17,2.14v32.03c0,1.18-0.97,2.14-2.17,2.14h-63.29c-1.2,0-2.17,0.96-2.17,2.14v8.76c0,1.18,0.97,2.14,2.17,2.14   h81.05c1.2,0,2.17-0.96,2.17-2.14V95.4c0-1.18-0.97-2.14-2.17-2.14h-6.77c-1.2,0-2.16-0.96-2.17-2.14L505.9,77.7   C505.9,76.52,504.93,75.57,503.74,75.57z"></path>
    <path d="M288.73,181.5L246.07,75.57h-25.99L177.42,181.5c-0.57,1.41,0.48,2.93,2.01,2.93h13.82c0.9,0,1.71-0.55,2.03-1.39   l10.46-27.64c0.32-0.84,1.13-1.39,2.03-1.39h50.61c0.9,0,1.71,0.55,2.03,1.39l10.46,27.64c0.32,0.84,1.13,1.39,2.03,1.39h13.82   C288.25,184.44,289.3,182.91,288.73,181.5z M251.37,140.75h-36.59c-1.49,0-2.54-1.46-2.08-2.88l18.2-55.79   c0.66-2.01,3.49-2.02,4.15-0.01l18.39,55.79C253.91,139.29,252.86,140.75,251.37,140.75z"></path>
  </svg>