<?xml version="1.0" encoding="UTF-8"?>
<svg id="Layer_1" data-name="Layer 1" xmlns="http://www.w3.org/2000/svg" viewBox="0 0 120.35 46.11">
  <defs>
    <style>
      .logo-main-qix-1, .logo-main-qix-2 {
        stroke-width: 0px;
      }

      .logo-main-qix-2 {
        fill: #ca0f2e;
      }
    </style>
  </defs>
  <path class="logo-main-qix-1" d="m72.52,40.56c-.16-.14-.38-.24-.61-.3-.23-.07-.64-.1-1.24-.1h-1.76l-.93,5.81h1.49l.36-2.27.83,1.94.13.33h1.79l-1.21-2.34c.44-.09.8-.28,1.07-.56.26-.28.42-.65.5-1.1.04-.29.03-.56-.05-.81-.06-.24-.19-.44-.38-.6m-1.18,1.63c-.03.25-.14.42-.31.55-.09.06-.22.11-.36.12-.13.03-.27.05-.41.05h-.3l.24-1.52h.47c.27.02.45.08.56.17.13.12.16.33.11.63Zm-14.74.85c-.01.14-.03.3-.05.49-.02.19-.03.41-.05.64-.06-.25-.14-.47-.21-.64-.06-.19-.12-.31-.16-.38l-1.71-2.98h-1.52l-.93,5.81h1.52l.46-2.87c.03-.14.05-.31.06-.5.02-.19.03-.39.03-.64.08.25.14.47.22.64.06.18.11.31.14.37l1.71,3h1.52l.93-5.81h-1.51l-.47,2.88Zm23.18-2.88h-1.52l-.46,2.88c-.01.14-.05.3-.06.49-.02.19-.02.41-.03.64-.08-.25-.14-.47-.2-.64-.08-.19-.13-.31-.16-.38l-1.71-2.98h-1.52l-.93,5.81h1.52l.46-2.87c.03-.14.05-.31.06-.5.02-.19.02-.39.03-.64.08.25.14.47.2.64.08.18.12.31.16.37l1.71,3h1.52l.74-4.66.19-1.15Zm-30.67,5.81h1.6l.93-5.81h-1.6l-.93,5.81Zm14.35-.49l-.08.49h3.56l.2-1.3h-2.01l.16-.99h1.9l.19-1.24h-1.9l.17-1h2.01l.2-1.27h-3.56l-.85,5.32Zm.08-5.32h-4.17l-.22,1.37h1.3l-.7,4.44h1.57l.71-4.44h1.3l.14-.88.08-.49Zm26.73,0h-4.17l-.22,1.37h1.31l-.7,4.44h1.57l.72-4.44h1.29l.17-1,.05-.36Zm19.21,0h-.42l-2.75,5.45-.19.36h1.57l.47-1.05h2.24l.13,1.05h1.58l-1.08-5.81h-1.56Zm0,3.64h-.8l.8-1.7.1-.22c.05-.13.11-.25.15-.38.06-.13.11-.27.18-.41.01.2.03.37.05.5,0,.13.02.22.02.28l.3,1.91h-.79Zm-3-3.64h-1.51l-.46,2.88c-.03.14-.05.3-.06.49-.02.19-.03.41-.03.64-.08-.25-.16-.47-.22-.64-.06-.19-.11-.31-.14-.38l-1.73-2.98h-1.52l-.92,5.81h1.52l.47-2.87c.02-.14.03-.31.05-.5.02-.19.03-.39.03-.64.08.25.16.47.22.64.06.18.11.31.16.37l1.71,3h1.51l.75-4.66.17-1.15Zm7.97,4.44l.72-4.44h-1.59l-.93,5.81h3.55l.22-1.37h-1.98Zm-15.57-3.67c-.23-.3-.53-.52-.89-.67-.36-.14-.74-.22-1.16-.22-.16,0-.31.02-.49.03-.25.03-.49.11-.74.19-.41.16-.77.38-1.1.67-.34.28-.63.61-.85.98-.21.36-.35.75-.41,1.17-.08.41-.06.8.03,1.16.11.36.28.69.53.99.24.28.54.5.9.66.34.16.74.22,1.15.22.17,0,.33,0,.49-.03.25-.03.5-.09.74-.19.41-.16.79-.38,1.11-.66.35-.3.63-.61.83-.99.22-.36.34-.75.42-1.16.06-.42.05-.82-.05-1.17-.1-.38-.27-.69-.52-.98Zm-1.02,2.15c-.08.49-.28.9-.63,1.21-.27.27-.57.41-.9.47-.08.02-.17.02-.27.02-.45,0-.78-.16-1.02-.47-.24-.33-.3-.74-.22-1.23.08-.5.28-.89.61-1.22.27-.25.57-.41.89-.47.09,0,.19-.01.28-.01.42,0,.75.16,1,.49.24.33.31.74.24,1.22Zm-7.65,2.51l-.06.38h1.6l.93-5.81h-1.6l-.86,5.43Zm-7.46-5.43h-.42l-2.75,5.45-.17.36h1.56l.47-1.05h2.25l.12,1.05h1.57l-1.07-5.81h-1.57Zm0,3.64h-.78l.78-1.7.11-.22c.05-.13.09-.25.16-.38.05-.13.11-.27.16-.41.02.2.03.37.05.5.02.13.02.22.03.28l.28,1.91h-.79Zm-9.8-21.31c.18-.67.33-1.35.45-2.06.48-2.89.32-5.44-.45-7.65-.43-1.24-1.06-2.37-1.89-3.4-2.3-2.86-5.7-4.29-10.18-4.29-.88,0-1.71.06-2.54.17-3.42.44-6.45,1.82-9.06,4.12-3.25,2.86-5.23,6.55-5.98,11.06-.75,4.51.02,8.18,2.32,11.05,2.29,2.86,5.68,4.29,10.17,4.29.89,0,1.75-.05,2.55-.15,1.84-.22,3.4-.69,4.7-1.41l3.31,4.06,4.77-4.02-2.86-3.57c2.27-2.31,3.84-5.03,4.69-8.18Zm-8.7-2.06c-.26,1.54-.67,2.84-1.22,3.89l-2.09-2.5-2.6,2.15-2.15,1.79,2.06,2.53c-.44.12-.84.17-1.24.17-1.48,0-2.66-.52-3.56-1.56-1.15-1.38-1.48-3.54-1.01-6.47.48-2.92,1.54-5.09,3.15-6.48.85-.72,1.77-1.2,2.75-1.42.44-.09.88-.14,1.32-.14,1.5,0,2.69.52,3.57,1.56,1.16,1.39,1.5,3.56,1.02,6.48Zm56.08-14.63h-10.53l-5.16,6.07-3.17-6.07h-10.92l7.13,14.08-10.95,12.89-1.97,2.31h10.48l6.5-7.61,3.82,7.61h11.02l-8.05-15.49,11.8-13.78Zm-32.7-.01h-9.15l-4.11,24.93-.71,4.34h9.15l2.85-17.3,1.97-11.97Z"/>
  <path class="logo-main-qix-2" d="m42.35,46.05l-42.29.04L0,.04l42.29-.04.02,8.25c-.54-2.37-3.03-4.16-6-4.16h-7.45s-18.21.02-18.21.02c-3.35,0-6.09,2.31-6.08,5.14l.02,23.51c0,2.82,2.75,5.13,6.1,5.13l4.01-.02,3.08,4.12h1.67s12.79-.01,12.79-.01l-3.01-4.13h7.12c2.96,0,5.45-1.81,5.98-4.19l.02,12.37Z"/>
  <path class="logo-main-qix-2" d="m26.65,13.03l-1.27-1.75c-.85-1.18-2.51-1.45-3.69-.6l-5.83,4.21c-1.17.85-1.45,2.51-.59,3.69l7.45,10.27,1.26,1.76c.85,1.17,2.5,1.44,3.68.59l5.82-4.21c1.18-.84,1.44-2.5.6-3.68l-7.43-10.29Z"/>
</svg>