<?xml version="1.0" encoding="utf-8"?><svg xmlns="http://www.w3.org/2000/svg" xmlns:xlink="http://www.w3.org/1999/xlink"><symbol fill="none" viewBox="0 0 51 50" id="3d-iframe" xmlns="http://www.w3.org/2000/svg"><path d="M16.057 26.667c5.819 0 6.683-1.896 6.683-4.188 0-2.041-.632-3.166-1.792-3.395v-.042c1.329-.459 1.603-1.459 1.603-2.917 0-2.708-1.076-4.041-6.747-4.041H10.47v3.229h5.334c1.77 0 2.382.166 2.382 1.27 0 .938-.316 1.292-1.539 1.292h-3.036v3.063h3.057c1.223 0 1.73.354 1.73 1.229 0 .77-.633 1.27-2.489 1.27h-5.44v3.23h5.588zM33.82 26.667c3.395 0 6.452-.959 6.452-5.334v-3.895c0-4.521-3.142-5.354-6.452-5.354h-6.978v14.583h6.978zm-2.825-11.271h2.003c2.087 0 3.12.208 3.12 2.52v3.043c0 2.208-.8 2.395-3.12 2.395h-2.003v-7.958z" fill="#000"/><mask id="aaa" style="mask-type:alpha" maskUnits="userSpaceOnUse" x="0" y="16" width="51" height="24"><path fill="#D9D9D9" d="M5.192 28.333h38.794V40H5.192z"/></mask><g mask="url(#aaa)"><path fill-rule="evenodd" clip-rule="evenodd" d="M10.47 35v-3.23h5.44c1.855 0 2.487-.5 2.487-1.27 0-.875-.506-1.23-1.729-1.23h-3.057v-3.062h3.036c1.223 0 1.54-.354 1.54-1.291 0-1.105-.612-1.271-2.383-1.271H10.47v-3.23h5.334c5.671 0 6.747 1.334 6.747 4.042 0 1.141-.168 2.002-.878 2.542a2.559 2.559 0 01-.716.372l-.009.003v.041l.016.004c.27.055.512.16.723.314.687.501 1.053 1.524 1.053 3.078 0 2.292-.864 4.188-6.683 4.188H10.47zm11.754-7.64c.243.21.448.473.614.782.37.691.535 1.598.535 2.67 0 1.214-.228 2.5-1.392 3.438-1.12.902-2.978 1.375-5.924 1.375h-6.22v-4.48h6.072c.894 0 1.38-.124 1.625-.263a.456.456 0 00.184-.165.429.429 0 00.047-.217c0-.313-.083-.393-.142-.435-.112-.08-.375-.17-.955-.17h-3.69v-4.312h3.67c.592 0 .761-.096.805-.134.02-.018.1-.1.1-.533 0-.227-.032-.337-.058-.388-.016-.033-.038-.063-.112-.099-.093-.044-.252-.09-.528-.119-.271-.029-.614-.04-1.051-.04H9.837v-4.479h5.967c2.842 0 4.708.325 5.861 1.118 1.235.848 1.518 2.124 1.518 3.55 0 .75-.067 1.48-.364 2.1a2.532 2.532 0 01-.595.8zm3.985-7.569h7.611c1.683 0 3.453.207 4.813 1.084 1.416.913 2.272 2.473 2.272 4.896v3.895c0 2.351-.835 3.902-2.234 4.827-1.348.892-3.117 1.132-4.85 1.132h-7.612V19.79zM33.82 35c3.395 0 6.452-.959 6.452-5.334v-3.895c0-4.521-3.141-5.355-6.452-5.355h-6.978V35h6.978zm-.822-10.646h-1.37v6.708h1.37c.579 0 1.027-.012 1.384-.058.357-.047.565-.12.695-.207.202-.133.41-.428.41-1.506V26.25c0-1.092-.248-1.444-.496-1.607-.151-.1-.373-.178-.715-.227-.343-.049-.76-.062-1.278-.062zm-2.003-.625v7.958h2.003c2.32 0 3.12-.187 3.12-2.396V26.25c0-2.313-1.032-2.521-3.12-2.521h-2.003z" fill="#000"/></g><mask id="aab" style="mask-type:alpha" maskUnits="userSpaceOnUse" x="0" y="20" width="51" height="30"><path fill="#D9D9D9" d="M5.192 37.5h38.794v11.667H5.192z"/></mask><g mask="url(#aab)"><path fill-rule="evenodd" clip-rule="evenodd" d="M10.47 40v-3.229h5.44c1.855 0 2.487-.5 2.487-1.27 0-.876-.506-1.23-1.729-1.23h-3.057V31.21h3.036c1.223 0 1.54-.354 1.54-1.292 0-1.104-.612-1.27-2.383-1.27H10.47v-3.23h5.334c5.671 0 6.747 1.333 6.747 4.042 0 1.14-.168 2.001-.878 2.541a2.559 2.559 0 01-.716.372l-.009.003v.042l.016.003c.27.056.512.16.723.314.687.502 1.053 1.524 1.053 3.079 0 2.291-.864 4.187-6.683 4.187H10.47zm11.754-7.64c.243.21.448.474.614.783.37.69.535 1.597.535 2.67 0 1.214-.228 2.5-1.392 3.437-1.12.902-2.978 1.375-5.924 1.375h-6.22v-4.479h6.072c.894 0 1.38-.124 1.625-.263a.456.456 0 00.184-.165.428.428 0 00.047-.218c0-.312-.083-.392-.142-.434-.112-.08-.375-.17-.955-.17h-3.69v-4.312h3.67c.592 0 .761-.096.805-.135.02-.017.1-.099.1-.532 0-.227-.032-.338-.058-.389-.016-.033-.038-.063-.112-.098-.093-.045-.252-.09-.528-.12-.271-.028-.614-.039-1.051-.039H9.837v-4.479h5.967c2.842 0 4.708.325 5.861 1.117 1.235.849 1.518 2.125 1.518 3.55 0 .75-.067 1.48-.364 2.1a2.532 2.532 0 01-.595.8zm3.985-7.568h7.611c1.683 0 3.453.206 4.813 1.083 1.416.914 2.272 2.474 2.272 4.896v3.896c0 2.35-.835 3.9-2.234 4.827-1.348.892-3.117 1.131-4.85 1.131h-7.612V24.792zM33.82 40c3.395 0 6.452-.958 6.452-5.333v-3.896c0-4.52-3.141-5.354-6.452-5.354h-6.978V40h6.978zm-.822-10.645h-1.37v6.708h1.37c.579 0 1.027-.012 1.384-.059.357-.046.565-.12.695-.206.202-.133.41-.428.41-1.506V31.25c0-1.092-.248-1.444-.496-1.607-.151-.1-.373-.178-.715-.226-.343-.05-.76-.063-1.278-.063zm-2.003-.625v7.958h2.003c2.32 0 3.12-.188 3.12-2.396V31.25c0-2.312-1.032-2.52-3.12-2.52h-2.003z" fill="#000"/></g></symbol><symbol viewBox="0 0 50 50" id="account" xmlns="http://www.w3.org/2000/svg"><path d="M22.5 7.6a4.3 4.3 0 00-4.2 4.3v5.7a4.3 4.3 0 004.2 4.3h5.6a4.3 4.3 0 004.3-4.3v-5.7A4.3 4.3 0 0028 7.6h-5.6zm5.6 16.9h-5.6a6.9 6.9 0 01-6.9-7V12a6.9 6.9 0 017-6.9H28a6.9 6.9 0 016.9 6.9v5.7a6.9 6.9 0 01-7 6.9M10.6 42.1h28.8v-7.4a4.3 4.3 0 00-4.3-4.3H14.9a4.3 4.3 0 00-4.3 4.3v7.4zM42 44.7H8v-10a6.9 6.9 0 016.9-6.9h20.2a6.9 6.9 0 016.9 7v10z"/></symbol><symbol viewBox="0 0 50 50" id="account-online" xmlns="http://www.w3.org/2000/svg"><path d="M22.5 7.6a4.3 4.3 0 00-4.2 4.3v5.7a4.3 4.3 0 004.2 4.3h5.6a4.3 4.3 0 004.3-4.3v-5.7A4.3 4.3 0 0028 7.6h-5.6zm5.6 16.9h-5.6a6.9 6.9 0 01-6.9-7V12a6.9 6.9 0 017-6.9H28a6.9 6.9 0 016.9 6.9v5.7a6.9 6.9 0 01-7 6.9m10.2 7.1c.8.8 1.3 1.9 1.3 3H42s0-2.8-2-4.8c-1.3-1.3-3-2-5-2H15a6.9 6.9 0 00-7 6.7v10h21.8L27.3 42H10.6v-7.4a4.3 4.3 0 014.3-4.3h20.2c1.1 0 2.2.5 3 1.3z"/><path fill="#eb0054" fill-rule="evenodd" clip-rule="evenodd" d="M48.5 34c.7.7.7 1.7 0 2.4l-9.8 10.2a1.7 1.7 0 01-2.4 0L31 41a1.7 1.7 0 112.4-2.4l4 4.2 8.7-8.9c.6-.7 1.7-.7 2.4 0z"/></symbol><symbol viewBox="0 0 23 21" id="advice" xmlns="http://www.w3.org/2000/svg"><path fill-rule="evenodd" clip-rule="evenodd" d="M22.241 4.452c-.043 0-.524-.262-1.44-.48V.524A.504.504 0 0020.277 0h-.873c-5.326 0-7.42 3.361-8.076 4.933-.829-.568-2.488-1.44-4.976-1.44-3.58 0-5.412.916-5.456.96a.537.537 0 00-.306.48v14.492c0 .174.088.349.262.436a.73.73 0 00.524.044c.087-.044 1.746-.83 4.976-.83 3.187 0 4.845 1.572 4.845 1.616a.553.553 0 00.393.174c.088 0 .131 0 .219-.044.043 0 .087-.043.087-.043l.087-.087s1.615-1.616 4.845-1.616c3.274 0 4.977.83 4.977.83.174.087.349.087.523-.044.175-.087.262-.262.262-.48V4.933a.676.676 0 00-.349-.48zm-15.54.175v3.929l-.96-.655c-.087-.044-.174-.088-.262-.088-.087 0-.174.044-.262.088l-.96.655V4.758a14.95 14.95 0 012.095-.131c.131-.044.262-.044.35 0zm4.322 14.623c-.96-.567-2.488-1.222-4.67-1.222-2.314 0-3.886.393-4.671.655V5.282c.305-.131.829-.306 1.615-.437v4.54c0 .13.043.262.13.35a.496.496 0 00.35.13c.087 0 .174-.044.262-.087l1.484-.917 1.484.917a.424.424 0 00.393.043c.13-.043.218-.13.305-.218.044-.087.088-.174.088-.262V4.714c1.833.262 2.924 1.048 3.317 1.353V19.25h-.087zm1.091-13.357c.175-.568 1.572-4.802 7.29-4.802h.349v13.445h-.35c-3.971 0-6.154 1.877-7.289 3.535V5.893zm9.341 12.746c-.785-.262-2.357-.655-4.67-.655-1.746 0-3.1.437-3.972.83.873-1.354 2.75-3.274 6.59-3.274h.874a.53.53 0 00.524-.524V5.063c.305.088.524.175.654.219v13.357z"/></symbol><symbol viewBox="0 0 50 50" id="arrow-down" xmlns="http://www.w3.org/2000/svg"><path fill-rule="evenodd" clip-rule="evenodd" d="M40.737 17.737a1.786 1.786 0 010 2.526l-14.9 14.9a2.143 2.143 0 01-3.03 0l-14.9-14.9a1.786 1.786 0 012.526-2.526l13.89 13.89 13.889-13.89a1.786 1.786 0 012.525 0z"/></symbol><symbol viewBox="0 0 55 54" fill="none" id="arrow-down-rounded" xmlns="http://www.w3.org/2000/svg"><circle cx="27.5" cy="27" r="26" transform="rotate(90 27.5 27)" stroke="#fff" stroke-width="2"/><path d="M28.484 37.133V15.75H26.7v21.383h1.784z" fill="#fff" stroke="#fff" stroke-width=".6"/><path d="M13.936 25.735l1.188-1.189 12.469 12.465 12.469-12.465 1.188 1.189-13.657 13.657-13.657-13.657z" fill="#fff" stroke="#fff" stroke-width=".6"/></symbol><symbol viewBox="0 0 30 30" id="arrow-down-slider" xmlns="http://www.w3.org/2000/svg"><path d="M16 24.55V3.15h-1.8v21.4H16z"/><path d="M1.4 13.15l1.2-1.2 12.5 12.5 12.5-12.5 1.1 1.2-13.6 13.7-13.7-13.7z"/></symbol><symbol viewBox="0 0 40 40" fill="none" id="arrow-down-small" xmlns="http://www.w3.org/2000/svg"><path d="M9 15l11 11 11-11" stroke="#000" stroke-width="2" stroke-linecap="round" stroke-linejoin="round"/></symbol><symbol viewBox="0 0 50 50" id="arrow-left" xmlns="http://www.w3.org/2000/svg"><path fill-rule="evenodd" clip-rule="evenodd" d="M31.263 40.737a1.786 1.786 0 01-2.526 0l-14.9-14.9a2.143 2.143 0 010-3.03l14.9-14.9a1.786 1.786 0 012.526 2.526l-13.89 13.89 13.89 13.889a1.786 1.786 0 010 2.525z"/></symbol><symbol viewBox="0 0 25 28" id="arrow-left-slider" xmlns="http://www.w3.org/2000/svg"><g clip-path="url(#aja)"><path d="M2.9 15h21.4v-1.8H2.9V15z"/><path d="M14.3.4l1.2 1.2L3 14.1l12.5 12.5-1.2 1.1L.6 14.2 14.3.4z"/></g><defs><clipPath id="aja"><path transform="rotate(-180 12.1 13.9)" d="M0 0h23.6v27.3H0z"/></clipPath></defs></symbol><symbol viewBox="0 0 50 50" id="arrow-right" xmlns="http://www.w3.org/2000/svg"><path fill-rule="evenodd" clip-rule="evenodd" d="M16.447 9.263a1.786 1.786 0 012.526 0l14.9 14.9a2.143 2.143 0 010 3.03l-14.9 14.9a1.786 1.786 0 01-2.526-2.526l13.89-13.89-13.89-13.889a1.786 1.786 0 010-2.525z"/></symbol><symbol viewBox="0 0 25 28" id="arrow-right-slider" xmlns="http://www.w3.org/2000/svg"><g clip-path="url(#ala)"><path d="M22.1 13H.7v1.8h21.4V13z"/><path d="M10.7 27.6l-1.2-1.2L22 13.9 9.5 1.4 10.7.3l13.7 13.6-13.7 13.7z"/></g><defs><clipPath id="ala"><path transform="translate(.8 .3)" d="M0 0h23.6v27.3H0z"/></clipPath></defs></symbol><symbol viewBox="0 0 50 50" id="arrow-up" xmlns="http://www.w3.org/2000/svg"><path fill-rule="evenodd" clip-rule="evenodd" d="M9.263 32.264a1.786 1.786 0 010-2.526l14.9-14.9a2.143 2.143 0 013.03 0l14.9 14.9a1.786 1.786 0 11-2.526 2.526l-13.89-13.89-13.889 13.89a1.786 1.786 0 01-2.525 0z"/></symbol><symbol viewBox="0 0 50 50" id="at-delivery-point" xmlns="http://www.w3.org/2000/svg"><path fill-rule="evenodd" clip-rule="evenodd" d="M12.952 11.5l-1.75 7h4.75l1.646-7h-4.646zm7.214 0l-1.647 7h5.231v-7h-3.584zm11.642 7H26.25v-7h3.683l1.875 7zm2.589 0h5.401l-1.75-7h-5.527l1.876 7zM12.562 9a2 2 0 00-1.94 1.515l-2 8A2 2 0 0010.561 21H11v20.006c0 1.102.893 1.994 1.994 1.994h24.81a1.994 1.994 0 001.993-1.994V21h.642a2 2 0 001.94-2.485l-2-8A2 2 0 0038.439 9H12.561zm.653 31.785V21h24.367v19.785H13.215z"/></symbol><symbol viewBox="0 0 50 50" id="at-home" xmlns="http://www.w3.org/2000/svg"><path fill-rule="evenodd" clip-rule="evenodd" d="M25.744 8.217a1.108 1.108 0 00-1.316 0L6.449 21.508a1.108 1.108 0 001.317 1.781l2.664-1.97v19.687c0 1.101.893 1.994 1.994 1.994h24.81a1.994 1.994 0 001.994-1.994V20.94l2.664 1.97a1.107 1.107 0 101.317-1.782L25.744 8.217zm11.269 11.085l-11.927-8.817-12.44 9.197v21.103h24.367V19.302z"/></symbol><symbol viewBox="0 0 50 50" id="bank" xmlns="http://www.w3.org/2000/svg"><path fill-rule="evenodd" clip-rule="evenodd" d="M44.518 10a4.844 4.844 0 014.84 4.84v20.324A4.844 4.844 0 0144.517 40H14.516v-7.741a.967.967 0 011.863-.37.969.969 0 01.073.37v5.807h28.066a2.908 2.908 0 002.903-2.904 2.908 2.908 0 00-2.903-2.903h-3.872V10h3.872zm-5.806 10.646a.968.968 0 010 1.936H24.096c-.31 1.466-1.336 2.493-2.803 2.804v6.029a3.883 3.883 0 012.78 2.78h18.511a.968.968 0 010 1.936H22.261v-.969a1.938 1.938 0 00-1.936-1.936h-.968V23.55h.968c1.748 0 1.936-1.353 1.936-1.936v-.967h16.45zm-4.843 2.905a4.81 4.81 0 013.425 1.417 4.797 4.797 0 011.418 3.422 4.799 4.799 0 01-1.418 3.42 4.85 4.85 0 01-8.274-3.416 4.852 4.852 0 014.847-4.843h.002zm-22.095 7.478a.96.96 0 110 1.921H.961a.96.96 0 110-1.92h10.813zm22.095-5.544a2.915 2.915 0 00-2.913 2.907 2.913 2.913 0 004.972 2.049c.547-.549.85-1.276.847-2.05a2.876 2.876 0 00-.847-2.053 2.893 2.893 0 00-2.06-.853zm10.65-13.549h-1.935v18.387h1.934c1.089 0 2.094.362 2.903.97V14.84a2.908 2.908 0 00-2.903-2.903zm-28.06 15.525a.96.96 0 110 1.921H6.551a.96.96 0 010-1.92h9.908zm10.64-.041a.968.968 0 010 1.936H25.16a.968.968 0 110-1.936h1.937zM9.661 23.893a.96.96 0 110 1.921H4.218a.96.96 0 010-1.92h5.444zm29.05-7.12a.968.968 0 010 1.937h-22.26v5.806a.969.969 0 01-1.936 0v-7.742h24.196z"/></symbol><symbol viewBox="0 0 19 23" fill="none" id="bell" xmlns="http://www.w3.org/2000/svg"><path d="M9.408 4.716a6.697 6.697 0 00-6.698 6.698s0 6.698-.945 6.698H17.05c-.944 0-.944-6.698-.944-6.698 0-3.7-2.999-6.698-6.698-6.698zm0 0V3M1 18.112h16.822m-4.746 0a3.664 3.664 0 01-3.668 3.668 3.664 3.664 0 01-3.668-3.668" stroke="currentColor" stroke-width="1.3" stroke-linecap="round" stroke-linejoin="round"/></symbol><symbol viewBox="0 0 61 45" id="book" xmlns="http://www.w3.org/2000/svg"><path fill-rule="evenodd" clip-rule="evenodd" d="M11.8.4c-1.5 0-3 .1-4.6.4a1.5 1.5 0 00-1 1l-.1.5a1332196 1332196 0 01.1 35.2 1.5 1.5 0 001 .8h.6a29 29 0 0117.4 3.4H3.5v-33a1.4 1.4 0 00-.5-1 1.5 1.5 0 00-1.6-.3 1.5 1.5 0 00-.8.8l-.1.5v34.5a1.4 1.4 0 00.9 1.3l.6.1h28.4a1.5 1.5 0 001.1-.4 1.5 1.5 0 00.5-1v-34c0-.5-.3-.8-.6-1-6.5-5-13-7.8-19.6-7.8zm0 2.9c5.5 0 11.3 2.4 17.2 6.7v30.5a34 34 0 00-20-5.2V3.5l2.8-.2z"/><path fill-rule="evenodd" clip-rule="evenodd" d="M49.2.4C42.7.4 36.1 3.3 29.6 8c-.4.3-.5.7-.6 1.2v33.9a1.4 1.4 0 001 1.3l.5.1H59a1.5 1.5 0 001-.4 1.5 1.5 0 00.5-1V8.7a1.4 1.4 0 00-.4-1 1.5 1.5 0 00-1.6-.3 1.5 1.5 0 00-.9.8v33.5H35.7a29 29 0 0118-3.4 1.5 1.5 0 001-.8l.1-.6V2.3a1.4 1.4 0 00-.3-1l-.8-.5a22 22 0 00-4.6-.4zm0 2.9c1 0 1.8 0 2.8.2v31.8a34 34 0 00-20 5.2V10c6-4.3 11.6-6.7 17.2-6.7z"/></symbol><symbol viewBox="0 0 40 40" id="box" xmlns="http://www.w3.org/2000/svg"><path fill-rule="evenodd" clip-rule="evenodd" d="M18.413 2.136a1 1 0 00-1.018.007L9.457 6.905a1.002 1.002 0 00-.036.022l-7.915 4.749a.995.995 0 00-.506.887v12.71a1 1 0 00.496.864l19.072 11.125a.996.996 0 001.116-.047l15.89-11.123a1 1 0 00.426-.82v-11.12a.996.996 0 00-.516-.891L18.414 2.136zm16.623 12.012l-17.12-9.986-5.998 3.599 17.12 9.986 5.998-3.599zM9.962 8.935l-5.998 3.598 17.12 9.987 5.998-3.599-17.12-9.986zM3 14.286v10.412l17.091 9.97V24.256l-17.09-9.97zm19.091 20.202l13.91-9.736v-8.85l-6.42 3.852a.84.84 0 01-.026.016l-.014.008-7.45 4.47v10.24z"/></symbol><symbol fill="none" viewBox="0 0 137 100" id="box-opened" xmlns="http://www.w3.org/2000/svg"><path d="M55.248 18l-3.5-6.5-44 15.5 4.5 7 43-16z" fill="#FDD7DF"/><path d="M19.748 52v23.347a1 1 0 00.598.916L68.749 97.5m-49-45.5l49 19.5m-49-19.5l49-18.5m-49 18.5L2.484 26.583a1 1 0 01.502-1.508L51.998 8.257a1 1 0 011.172.415L68.748 33.5m0 64l48.402-21.237a.999.999 0 00.598-.916V52m-49 45.5v-26m49-19.5l-49 19.5m49-19.5l16.719-21.118c.632-.799-.196-1.922-1.146-1.553L95.748 43.898m-27 27.602l18.83-24.28a1 1 0 01.429-.32l7.741-3.002m-27 27.602v-38m27 10.398l-27-10.398" stroke="#000" stroke-width="3"/><path d="M25.748 20.5l-18 6.5 4.5 7c1-.333 5.9-2.1 17.5-6.5S42.915 11.333 42.248 6c-.5-.667-2.2-2.8-5-6 .8 13.6-7.333 19.333-11.5 20.5z" fill="#F997AB" fill-opacity=".8"/></symbol><symbol viewBox="0 0 18 18" id="brand" xmlns="http://www.w3.org/2000/svg"><path d="M10.049 18h-.31c-1.71 0-3.497-.05-5.362-.126-.88-.025-1.761-.126-2.616-.202l-.414-.025C.544 17.572 0 16.967 0 16.16v-2.37c0-.655.388-1.033 1.036-1.033h.466c.648 0 1.321-.025 1.968.025.363.026.726.127 1.14.328.544.277 1.062.555 1.58.857l.337.202c.285.151.57.227.906.227H11.19c.336 0 .362-.076.414-.227.026-.126.052-.303-.233-.48l-2.538-1.386c-2.46-1.386-4.947-2.747-7.433-4.108C.466 7.691 0 6.91 0 5.876V1.894C0 1.037.544.457 1.424.356 4.092.104 6.578-.022 9.013.003c.31 0 4.48.151 6.656.277l.777.076.207.025C17.43.457 18 1.087 18 1.818v2.42c0 .605-.414 1.008-1.01 1.008h-.414c-.674 0-1.399.025-2.098-.025-.44-.025-.83-.202-1.114-.328-.544-.277-1.088-.58-1.606-.857l-.31-.176a1.831 1.831 0 00-.881-.227H6.812c-.389 0-.389.1-.44.201-.053.152-.053.328.258.505L9.194 5.75c2.46 1.361 4.921 2.697 7.407 4.033.933.504 1.399 1.285 1.399 2.344v3.932c0 .882-.518 1.462-1.399 1.563-2.356.252-4.506.378-6.552.378zm-9.013-4.235v2.395c0 .202.078.428.414.479l.415.05c.829.076 1.71.177 2.564.202 1.839.076 3.626.1 5.31.126 2.097 0 4.298-.1 6.759-.353.285-.025.492-.126.492-.554v-3.932c0-.681-.26-1.135-.88-1.462-2.461-1.336-4.947-2.697-7.408-4.059L6.138 5.246c-.647-.353-.932-.983-.725-1.664.181-.63.673-.957 1.424-.957h3.73c.492 0 .958.126 1.424.352l.311.177c.518.277 1.036.58 1.554.832.104.05.44.227.7.227.673.025 1.372.025 2.045.025h.415v-2.42c0-.252-.181-.429-.44-.454l-.208-.025c-.259-.025-.492-.05-.725-.076-2.305-.1-6.371-.252-6.63-.252-2.383-.025-4.843.101-7.485.353-.363.025-.492.177-.492.53v3.982c0 .68.259 1.11.855 1.437l7.459 4.083 2.538 1.386c.621.353.906.958.725 1.614-.181.63-.647.983-1.399.983H7.46c-.518 0-.984-.101-1.424-.353l-.337-.202c-.518-.277-1.036-.58-1.554-.832a2.384 2.384 0 00-.725-.227c-.622-.025-1.295-.025-1.917-.025l-.466.025z"/></symbol><symbol viewBox="0 0 50 50" id="burger-menu" xmlns="http://www.w3.org/2000/svg"><rect x="8" y="24.297" width="35" height="2.5" rx="1.25"/><rect x="8" y="12" width="35" height="2.5" rx="1.25"/><rect x="8" y="36.595" width="35" height="2.5" rx="1.25"/></symbol><symbol viewBox="0 0 18 23" id="buying" xmlns="http://www.w3.org/2000/svg"><path d="M8.564 1.515C6.94 1.515 5.61 2.82 5.61 4.42v1.01h5.906v-1.01c0-1.6-1.33-2.904-2.953-2.904zm2.018 6.546c.32 0 .566.246.566.566 0 .32-.271.566-.566.566H6.546a.557.557 0 01-.566-.566c0-.32.27-.566.566-.566h4.036zm5.512 8.613l-.123 4.159.443-.221-.32-3.938zM15.233 6.56H1.575L1.18 21.227h13.633l.419-14.667zM8.563.383c2.265 0 4.11 1.821 4.11 4.036v1.01h3.15c.025-.001.074.024.099.024.024 0 .073 0 .098.024.05.025.074.05.123.074.025.025.05.025.074.05 0 0 .025 0 .025.024.024.025.024.05.049.074.024.024.049.049.049.074.025.024.025.073.025.123 0 .024.024.049.024.073l1.206 14.913a.548.548 0 01-.295.542l-1.649.886h-.025a.416.416 0 01-.246.073H.566a.698.698 0 01-.418-.172.668.668 0 01-.148-.418L.443 5.994c0-.32.27-.541.566-.541h3.42v-1.01C4.455 2.205 6.3.384 8.565.384z"/></symbol><symbol viewBox="0 0 50 50" id="calendar" xmlns="http://www.w3.org/2000/svg"><path fill-rule="evenodd" clip-rule="evenodd" d="M17.3 8c.677 0 1.224.548 1.224 1.224v3.426h12.728V9.224a1.224 1.224 0 012.447 0v3.426h5.63a2.937 2.937 0 012.937 2.937v24.476A2.937 2.937 0 0139.329 43H10.937A2.937 2.937 0 018 40.063V15.587a2.937 2.937 0 012.937-2.937h5.14V9.224c0-.676.548-1.224 1.224-1.224zm-6.363 7.098H39.33c.27 0 .49.22.49.49v6.608H10.447v-6.609c0-.27.219-.49.49-.49zm-.49 9.545v15.42c0 .27.22.49.49.49H39.33c.27 0 .49-.22.49-.49v-15.42H10.447z"/></symbol><symbol viewBox="0 0 22 22" id="call" xmlns="http://www.w3.org/2000/svg"><path d="M5.8 5.7c0-.6.5-1.1 1.2-1.1h8c.7 0 1.3.5 1.3 1.1v5a1 1 0 00-.8 1v1.1c0 .6.4 1 1 1h.7c.6 0 1-.4 1-1v-1.2a1 1 0 00-.8-1V5.8c0-1.3-1-2.3-2.3-2.3H7c-1.3 0-2.4 1-2.4 2.3v5a1 1 0 00-.8 1v1.1c0 .6.4 1 1 1 .2 1.7.7 3 1.6 3.7.8.7 2 1 3.2 1 .1.3.5.6.9.6h.8c.5 0 1-.5 1-1v-.4c0-.5-.5-1-1-1h-.8a1 1 0 00-1 .6c-1 0-1.8-.2-2.4-.7-.6-.5-1-1.3-1.2-2.8.3-.2.6-.5.6-1v-1.2a1 1 0 00-.7-1V5.8zm10.8 6h.5v1h-.5v-1zm-11.7 1v-1h.5v1H5zm5.7 5.3v-.1h.5-.5z"/></symbol><symbol viewBox="0 0 50 50" id="card" xmlns="http://www.w3.org/2000/svg"><path fill-rule="evenodd" clip-rule="evenodd" d="M41.76 10H8.24C6.45 10 5 11.422 5 13.178v23.644c0 .843.341 1.65.95 2.247.606.596 1.43.931 2.29.931h33.52a3.273 3.273 0 002.29-.93c.609-.597.95-1.405.95-2.248V13.178c0-.843-.341-1.65-.95-2.247A3.273 3.273 0 0041.76 10zM8.24 11.966h33.52c.68.002 1.232.545 1.236 1.212v3.238h-36v-3.238a1.2 1.2 0 01.366-.859 1.25 1.25 0 01.878-.353zm33.52 26.068H8.24a1.228 1.228 0 01-1.236-1.212V19.384h36v17.438a1.2 1.2 0 01-.366.859 1.25 1.25 0 01-.878.353zM25.444 27.236H10.725a.881.881 0 01-.889-.872.88.88 0 01.89-.871h14.718c.491 0 .89.39.89.87a.88.88 0 01-.89.873zm-7.36 3.924h-7.359a.88.88 0 01-.889-.873c0-.48.398-.87.89-.87h7.359a.88.88 0 01.889.87.88.88 0 01-.89.873z"/></symbol><symbol viewBox="0 0 22 21" id="care" xmlns="http://www.w3.org/2000/svg"><path fill-rule="evenodd" clip-rule="evenodd" d="M.967 1.7a.46.46 0 01.54-.07l3.53 1.811a.462.462 0 01.212.212l1.106 2.259 2.047 2-.658.635-2.118-2.07a.715.715 0 01-.118-.165L4.473 4.17 1.39 2.594l-.353.353L2.59 6.029l2.165 1.012c.07.024.118.047.165.118l2.118 2.07-.66.636-2.046-2-2.283-1.083a.462.462 0 01-.212-.211L.05 3.04c-.094-.165-.047-.377.094-.518L.967 1.7zm2.188 15.06c.33-.33.87-.33 1.2 0 .33.329.33.847 0 1.176-.33.33-.87.33-1.2 0-.33-.306-.33-.847 0-1.177zM15.768 1.3c-1.13 0-2.236.423-3.036 1.247a4.185 4.185 0 00-1.059 4.306.49.49 0 01-.117.47L2.33 16.408a1.633 1.633 0 000 2.306l.048.047c.635.635 1.694.635 2.353 0l9.224-9.083a.49.49 0 01.47-.118c1.553.494 3.248.118 4.4-1.035.942-.942 1.389-2.212 1.224-3.483L17.91 7.135a.492.492 0 01-.141.094c-.07.024-1.553.683-2.989-.753-1.435-1.411-.776-2.87-.753-2.94a.49.49 0 01.095-.142l2.164-2.07c-.164-.024-.33-.024-.517-.024zm-1.483 12.495a.943.943 0 00-.682.282l-.965.965a.854.854 0 00-.282.659c0 .258.094.494.282.659l2.87 2.823a.982.982 0 001.342 0l.965-.965a.835.835 0 00.306-.658.855.855 0 00-.283-.66l-2.87-2.823a.943.943 0 00-.683-.282zM12.073 1.888C13.462.523 15.485.053 17.344.618c.165.046.283.164.306.329.047.164 0 .33-.117.423l-2.66 2.636c-.07.235-.258 1.035.589 1.859.847.823 1.647.659 1.882.588l2.683-2.636a.448.448 0 01.447-.117.48.48 0 01.33.306 5.093 5.093 0 01-1.295 5.2 5.374 5.374 0 01-5.083 1.318l-9.035 8.895a2.621 2.621 0 01-1.836.753 2.663 2.663 0 01-1.835-.753l-.047-.047a2.515 2.515 0 010-3.6l9.036-8.895a5.114 5.114 0 011.364-4.989zm2.212 10.989c.494 0 .965.188 1.341.541l2.871 2.824c.353.353.541.823.541 1.318 0 .494-.188.964-.54 1.317l-.966.965a1.947 1.947 0 01-1.34.541 1.99 1.99 0 01-1.342-.54l-2.87-2.825a1.85 1.85 0 01-.542-1.317c0-.495.188-.965.541-1.318l.965-.965a1.948 1.948 0 011.341-.541z"/></symbol><symbol viewBox="0 0 50 50" id="cart" xmlns="http://www.w3.org/2000/svg"><path d="M42 44.1H7l3.4-28a2.1 2.1 0 012.1-2H16c0-3.8.7-6.2 2-7.6C19.7 5 21.8 5 24 5h1c2.4 0 4.5 0 6 1.5 1.4 1.3 2 3.5 2 7.5h3.3a2.1 2.1 0 012.1 2l3.5 28zM9.8 41.6h29.4l-3.1-25H12.9l-3 25zm8.6-27.5h12.2c0-3.2-.5-5-1.3-5.8-.8-.8-2-.8-4.2-.8h-1.3c-2 0-3.3 0-4 .8-1 .8-1.4 2.8-1.4 5.8z"/></symbol><symbol viewBox="0 0 50 50" id="check" xmlns="http://www.w3.org/2000/svg"><path fill-rule="evenodd" clip-rule="evenodd" d="M38.051 15.93c.591.58.6 1.53.019 2.121l-15.724 16a1.5 1.5 0 01-2.14 0l-8.276-8.42a1.5 1.5 0 112.14-2.103l7.206 7.332L35.93 15.949a1.5 1.5 0 012.121-.019z"/></symbol><symbol viewBox="0 0 51 55" id="chrono" xmlns="http://www.w3.org/2000/svg"><path d="M50.8 14.3a29.8 29.8 0 00-8.7-8.8c-.6-.4-1.3-.2-1.7.3-.3.6-.2 1.3.4 1.7 1.2.8 2.3 1.7 3.4 2.7l-2.5 2.5c-3.3-3-7.4-5-12-5.8v-4h2.4c.7 0 1.2-.5 1.2-1.2S32.8.5 32.1.5H19c-.7 0-1.2.5-1.2 1.2s.5 1.2 1.2 1.2h2.4v4a24 24 0 00-12 5.8l-2.5-2.5c1-1 2.2-1.9 3.4-2.7.6-.4.7-1.1.4-1.7-.4-.5-1.1-.7-1.7-.3a30.5 30.5 0 00-4.7 3.8v.1c-1.6 1.5-2.9 3.1-4 4.9-.4.5-.2 1.3.4 1.6l.6.2c.4 0 .8-.2 1-.6C3.1 14.2 4 13 5.1 12l2.5 2.5a24 24 0 1035.7 0L46 12c1 1.1 2 2.3 2.9 3.6a1.2 1.2 0 001.6.4c.6-.4.8-1.1.4-1.6zM23.7 2.9h3.6v3.7a25.7 25.7 0 00-3.6 0V2.9zm1.8 49.2c-12 0-21.7-9.7-21.7-21.6a21.7 21.7 0 0143.4 0c0 12-9.7 21.6-21.7 21.6zm12.8-34.3h-.1a18 18 0 00-25.4-.1l-.1.2a18 18 0 000 25.2v.1h.1a18 18 0 0025.4.1l.1-.2a18 18 0 000-25.2v-.1zm.5 13.9H41c-.2 3.4-1.6 6.5-3.7 9L35.7 39c-.4-.5-1.2-.5-1.7 0-.4.5-.4 1.2 0 1.7l1.7 1.6a15.6 15.6 0 01-9 3.7v-2.3a1.2 1.2 0 00-2.4 0v2.4c-3.4-.3-6.5-1.7-9-3.8l1.7-1.6c.5-.5.5-1.2 0-1.7s-1.2-.5-1.7 0l-1.7 1.6a15.5 15.5 0 01-3.7-8.9h2.3c.7 0 1.3-.5 1.3-1.2s-.6-1.2-1.3-1.2H10c.2-3.4 1.6-6.5 3.7-9l1.7 1.7a1.2 1.2 0 101.7-1.7l-1.7-1.6c2.5-2.1 5.6-3.5 9-3.7v2.3a1.2 1.2 0 002.4 0v-2.4c3.4.3 6.5 1.7 9 3.8L34 20.3a1.2 1.2 0 101.7 1.7l1.7-1.6c2 2.4 3.4 5.5 3.7 8.9h-2.4c-.6 0-1.2.5-1.2 1.2s.6 1.2 1.3 1.2zm-4.9-1.2c0 .7-.5 1.2-1.2 1.2h-7.2c-.7 0-1.2-.5-1.2-1.2v-7.2a1.2 1.2 0 012.4 0v6h6c.7 0 1.2.5 1.2 1.2z"/></symbol><symbol viewBox="0 0 30 28" id="city" xmlns="http://www.w3.org/2000/svg"><path fill-rule="evenodd" clip-rule="evenodd" d="M15.2 1.5c.4 0 .7.3.7.6v3.6h10.7c.4 0 .7.3.7.6V27h2c.4 0 .7.3.7.6s-.3.6-.7.6H.7c-.4.1-.7-.2-.7-.6s.3-.6.7-.6h2V2.1c0-.4.3-.6.7-.6h11.8zM26 7H13v20h4.1v-3.7c0-.4.3-.6.7-.6h3.5c.4 0 .7.3.7.6V27h4V7zm-5.4 17h-2.2v3h2.2v-3zm-6-21.3H4V27h7.6V6.3c0-.4.3-.6.7-.6h2.3v-3zm9.5 15.6v2.1h-1.6v-2.1h1.6zm-3.8 0v2.1h-1.6v-2.1h1.6zm-3.8 0v2.1h-1.6v-2.1h1.6zM8 14.8v2.1H6.3v-2.1H8zm16.1-.9V16h-1.6v-2.1h1.6zm-3.8 0V16h-1.6v-2.1h1.6zm-3.8 0V16h-1.6v-2.1h1.6zM8 10.4v2.1H6.3v-2.1H8zm16.1-.8v2.1h-1.6V9.6h1.6zm-3.8 0v2.1h-1.6V9.6h1.6zm-3.8 0v2.1h-1.6V9.6h1.6zM8 6v2.1H6.3V6H8z"/></symbol><symbol viewBox="0 0 51 51" id="close" xmlns="http://www.w3.org/2000/svg"><path fill-rule="evenodd" clip-rule="evenodd" d="M38.06 13.06a1.5 1.5 0 00-2.12 0L25.62 23.38 15.181 12.94a1.5 1.5 0 00-2.121 2.122L23.5 25.5 13.312 35.688a1.5 1.5 0 102.121 2.121l10.188-10.188 10.067 10.067a1.5 1.5 0 102.121-2.121L27.743 25.5 38.06 15.182a1.5 1.5 0 000-2.121z"/></symbol><symbol viewBox="0 0 30 30" id="cod" xmlns="http://www.w3.org/2000/svg"><path d="M23.5 12.8h-1.4c-.3 0-.6.2-.6.5v3c0 .2.3.5.6.5h3.1c.2 0 .4-.1.5-.3v-.6L24 13a.5.5 0 00-.5-.2zm-.9 2.9v-1.9h.6l1 1.9h-1.6z"/><path d="M28.1 16l-3-5.2a.5.5 0 00-.5-.2h-3.9V8.2c0-1.2-1-2.2-2.2-2.2H4C2.8 6 1.8 7 1.8 8.2v11.1c0 1.2 1 2.2 2.2 2.2h.5c.3 0 .5-.3.5-.6s-.2-.5-.5-.5H4a1 1 0 01-1.1-1v-2h16.7v3h-8.4a2.8 2.8 0 00-5.5.5 2.8 2.8 0 005.5.6H21a2.8 2.8 0 005.4 0h1.3c.3 0 .5-.3.5-.6v-5zM8.5 22.5a1.7 1.7 0 110-3.4 1.7 1.7 0 010 3.4zm-5.6-6.2V8.2c0-.6.5-1.1 1-1.1h14.6c.6 0 1.1.5 1.1 1v8.3H3zm20.8 6.2a1.7 1.7 0 110-3.4 1.7 1.7 0 010 3.4zm3.4-2.2h-.7a2.8 2.8 0 00-5.4 0h-.3v-8.8h3.6l2.8 4.8v4z"/><path d="M6.6 10.1c.5 0 .8.3.9.8h1c0-.6-.3-1-.6-1.2a2 2 0 00-1.3-.5 2 2 0 00-1.4.6c-.2.2-.4.5-.4.9l-.1 1.2V13l.5.9c.4.3.9.5 1.4.5.5 0 1-.1 1.3-.4.3-.3.5-.7.6-1.2h-1c-.1.5-.4.7-.9.7-.2 0-.5 0-.6-.2-.2-.2-.2-.4-.3-.8V12c0-.8 0-1.2.2-1.4.2-.2.4-.4.7-.4zm5.7-.3a2 2 0 00-1.4-.6 2 2 0 00-1.4.6c-.2.2-.4.5-.4.9v2.4c0 .3.2.6.4.9.4.3.9.5 1.4.5.6 0 1-.2 1.4-.5.3-.3.4-.6.5-1v-2.2c0-.4-.2-.7-.5-.9zm-.6 3.5c-.2.2-.5.3-.8.3-.2 0-.5 0-.6-.3-.1-.1-.2-.3-.2-.7a9.6 9.6 0 010-1.5c0-.3 0-.5.2-.7.2-.2.4-.2.6-.2.3 0 .5 0 .7.2l.2.7v.8l-.1 1.4zM17 9.8c-.4-.4-.8-.5-1.4-.5h-2v5.2h2c.6 0 1-.2 1.3-.5.3-.3.5-.6.5-1a9.6 9.6 0 000-2.3c0-.3-.2-.7-.5-1zm-.6 3c0 .2 0 .3-.2.5-.1.2-.4.3-.7.3h-.8v-3.4h.8c.3 0 .6 0 .7.3l.2.5a7.7 7.7 0 010 1.8z"/></symbol><symbol viewBox="0 0 36 36" id="confirm" xmlns="http://www.w3.org/2000/svg"><path fill-rule="evenodd" clip-rule="evenodd" d="M18 0A18 18 0 000 18a18 18 0 0018 18 18 18 0 0018-18A18 18 0 0018 0zm0 34.3C9 34.3 1.8 27 1.8 18S9 1.8 18 1.8 34.2 9 34.2 18 27 34.3 18 34.3z"/><path fill-rule="evenodd" clip-rule="evenodd" d="M25.8 12.6c.4.3.4.9 0 1.2l-9.4 9.6a.9.9 0 01-1.3 0l-5-5a.9.9 0 011.3-1.3l4.4 4.4 8.8-9c.3-.3.9-.3 1.2 0z"/></symbol><symbol viewBox="0 0 58 54" id="crown" xmlns="http://www.w3.org/2000/svg"><path d="M44.1 6.5c1.4-1.3 1-3 0-4.2C42.8 1.2 41.4.5 41.4.5c-.1.1-2 3 2.6 6zm3.5-1.8s-2.7 2.5 1 6.4c3.6-1.8-.8-6.7-1-6.4zm6.1 8.4c-.4-1.5-1.3-2.8-1.3-2.8-.2 0-3.2 1.7-.7 6.5 2-.4 2.3-2.1 2-3.7zm-.4 9.9c4 .2 2.6-6.2 2.3-6 0 0-3.6.8-2.3 6zm3.7 1.2c-.1 0-3.6-.1-3.9 5.3 1.9.6 3.2-.7 3.6-2.2.4-1.5.3-3.1.3-3.1zm-2.5 7.5c-1 .4-2.1 1.4-3.1 4 1.7 1 3 .1 4-1.2s1-3 1-3-.9-.2-2 .2zm-6.3 9.7c2.8 2.9 6.1-2.7 6-2.8 0 0-3.3-2-6 2.8zm-4.7 4.4c1 1.7 2.8 1.8 4.1 1 1.4-.9 2.4-2 2.4-2 0-.2-2.5-2.7-6.5 1zm-.5 2.5c-1-.4-2.6-.5-5 .7.5 2 2 2.2 3.7 2 1.6-.3 2.7-1.5 2.8-1.4 0 0-.5-.9-1.5-1.3zm-11.3 2.5c0 2 1.5 2.6 3 2.6 1.7 0 3.2-.3 3.2-.4 0 0-1-3.7-6.2-2.2z"/><path d="M37.4 48.1c5.7-2 12.3-8 14.4-16 2.1-8-.4-16.5-4.5-21-1.8-2.4-4-3.9-5.3-5l-1.3-.7a4.7 4.7 0 00-3.9-2.6c-1.5-.1-2.5.3-2.5.3S35 4.1 36 5c1 .6 2.4 1.2 4.3 1.1l1.2.7L43.4 8c-3.8-3-5.4.9-5.3.8 0 0 .9.5 2 .7 1 .3 2.4.3 3.5-1.3 1 .8 2.2 1.9 3.2 3.2l.4.5c-3-3.2-5-.3-5-.3 0-.1 2.5 3.3 5.4.9 1 1.2 1.8 2.7 2.5 4.4-1.9-3.8-4.9-1.4-4.8-1.5 0 0 .5 1 1.4 1.6.8.8 2 1.4 3.7.6l1 3.8c-1.2-2.8-3.9-1.6-3.9-1.6.3 0 .6 4 4.2 3.5a24 24 0 01.1 4c-.3-3.1-3.5-2.6-3.4-2.6 0 0 0 1 .4 2.1.4 1 1 2.2 2.9 2.3-.1 1-.3 1.8-.6 2.7 0 .5-.2.9-.4 1.3.2-1.3-.2-2.2-.9-2.7-.8-.7-1.7-.8-1.7-.8.2.1-1.5 3.9 2 5.2-.5 1.3-1.2 2.5-2 3.6 1.4-3-1.6-4-1.6-4 .1 0-2.4 3.2.7 5.4-.7 1-1.5 1.7-2.3 2.5 1.1-2.2-1-3.7-.9-3.6 0 0-.8.7-1.2 1.7-.4 1-.8 2.2.3 3.5-1.2 1-2.4 1.8-3.6 2.4 1.2-.8 1.5-1.7 1.3-2.6 0-1-.7-1.8-.7-1.8.1.3-3.7 1.8-2.1 5.1l-.8.4c-1.1.6-2.3.7-3.4 1 3.1-1.3 1.8-4 1.8-4s-4 .6-3.4 4.3l-2 .2h-3.3c-.6 0-1.3 0-2-.2.7-3.7-3.3-4.3-3.3-4.3s-1.4 2.7 1.7 4c-1-.3-2.2-.4-3.4-1L19 47c1.6-3.3-2.2-4.8-2-5 0 0-.7.7-.8 1.7-.1.9.2 1.8 1.3 2.6-1.2-.6-2.4-1.4-3.6-2.4 1.1-1.3.7-2.4.4-3.5-.5-1-1.3-1.7-1.3-1.7.1 0-2 1.4-.9 3.6L10 40c3-2.2.5-5.4.6-5.5 0 0-3 1-1.6 4.1-.8-1.1-1.5-2.3-2-3.6 3.5-1.3 1.8-5 2-5.2 0 0-.9.1-1.7.8-.7.5-1.1 1.4-1 2.7L6 31.9c-.3-.9-.4-1.8-.5-2.7 1.9-.1 2.4-1.3 2.8-2.3.5-1 .4-2.1.4-2.1.1 0-3-.5-3.4 2.6l.1-4c3.6.5 4-3.5 4.2-3.5 0 0-2.6-1.2-3.9 1.6l1-3.8c1.8.8 3 .2 3.7-.6.9-.7 1.4-1.6 1.4-1.6.1 0-2.9-2.3-4.8 1.5.7-1.7 1.6-3.2 2.5-4.4 3 2.4 5.3-1 5.5-.9 0 0-2.1-3-5 .3 0-.2.2-.3.3-.5 1-1.3 2.2-2.4 3.2-3.2 1.1 1.6 2.4 1.6 3.5 1.3 1.1-.2 2-.7 2-.7C19 9 17.5 5 13.7 8l1.7-1.4 1.2-.7c2 .1 3.2-.5 4.3-1.1C22.1 4 22.8 3 22.8 3s-1-.4-2.6-.3c-1.4 0-3 .9-3.9 2.6L15 6c-1.3 1.1-3.4 2.6-5.3 5a24 24 0 00-4.5 21c2 8 8.7 14 14.4 16 1.3.8 2.8.8 4 1.2a10.2 10.2 0 003.7.4h3c.9 0 2 0 3.2-.4 1.1-.4 2.6-.4 4-1.2zm2-1.6l-.3.2.3-.2zM15.6.5S14 1.2 13 2.3c-1 1.2-1.5 2.9 0 4.2 4.4-3 2.7-5.9 2.6-6zM8.4 11.1c3.7-4 1-6.4 1-6.4-.1-.3-4.6 4.6-1 6.4zm-3.1 5.7c2.5-4.8-.5-6.5-.7-6.5 0 0-.9 1.3-1.3 2.8-.3 1.6.1 3.3 2 3.7z"/><path d="M3.7 23c1.3-5.2-2.3-6-2.3-6-.3-.2-1.7 6.2 2.3 6zm.2 6.5C3.6 24.1.2 24.2 0 24.2c0 0-.1 1.6.3 3.1S2 30.1 4 29.5zm1.7 6.2c-1-2.6-2-3.6-3-4-1-.4-2-.1-2-.1s0 1.6 1 2.9c1 1.3 2.3 2.2 4 1.2zm-2.7 2.9c-.2 0 3.2 5.7 6 2.8-2.8-4.8-6-2.8-6-2.8zm10.6 7.2c-4-3.7-6.4-1.2-6.5-1 0 0 1 1.1 2.4 2 1.3.8 3.2.7 4-1zm.5 2.5c-1 .4-1.5 1.3-1.5 1.3s1.3 1.1 2.9 1.3c1.6.3 3.2 0 3.7-1.9-2.5-1.2-4-1-5-.7zm5.1 4.7s1.6.5 3.1.4c1.6 0 3.1-.6 3.1-2.6-5.3-1.5-6.2 2.2-6.2 2.2z"/></symbol><symbol viewBox="0 0 28 28" fill="none" id="distance" xmlns="http://www.w3.org/2000/svg"><path d="M18.544 20.525c-.934-.345-2.094-.937-2.812-1.565l.565 1.565-.565 1.565c.718-.628 1.878-1.217 2.812-1.565z" fill="#000"/><path d="M16.556 20.523H8.554a3.18 3.18 0 01-3.17-3.17 3.18 3.18 0 013.17-3.17h9.986a3.18 3.18 0 003.17-3.171 3.18 3.18 0 00-3.17-3.17H8.554m11.159 12.583h1.21m0 0c.617 0 1.122-.504 1.122-1.12 0-.617-.505-1.122-1.121-1.122h-1.211v4.483h1.21c.617 0 1.122-.504 1.122-1.12 0-.617-.505-1.121-1.121-1.121zM4.94 9.718V6.471a1.144 1.144 0 012.286 0v3.25M7.222 7.57H4.94" stroke="#000" stroke-width=".909" stroke-linecap="round" stroke-linejoin="round"/></symbol><symbol fill="none" viewBox="0 0 15 32" id="dollar" xmlns="http://www.w3.org/2000/svg"><path d="M1.318 21.665c0 2.978 2.594 5.396 5.8 5.396s5.8-2.418 5.8-5.396c0-2.978-3.102-4.285-5.82-5.665-2.72-1.38-5.811-2.688-5.811-5.665 0-2.978 2.604-5.396 5.81-5.396 3.206 0 5.8 2.418 5.8 5.396M7.097 4.918v-3.62M7.097 30.703v-3.621" stroke="#000" stroke-miterlimit="10" stroke-linecap="round"/></symbol><symbol viewBox="0 0 50 50" fill="none" id="dpd" xmlns="http://www.w3.org/2000/svg"><path d="M39.102 34.83v-.158-4.528c0-.105.022-.144.138-.144h2.614c.109 0 .144.025.144.14v14.654a.144.144 0 01-.134.169c-.8.2-1.618.33-2.441.39-.785.072-1.574.09-2.361.056a6.96 6.96 0 01-2.997-.788 4.572 4.572 0 01-2.337-2.99 6.185 6.185 0 01.243-3.983 4.791 4.791 0 013.138-2.832 6.686 6.686 0 013.61-.116c.13.036.258.08.383.13zM15.612 34.83v-.158-4.514c0-.123.031-.158.158-.158h2.568c.116 0 .141.035.141.144v14.653c0 .102-.032.138-.127.162-.799.2-1.613.331-2.434.394-.781.072-1.566.09-2.35.056a6.713 6.713 0 01-3.318-.985 4.575 4.575 0 01-2.072-2.951 6.22 6.22 0 01.292-3.85 4.798 4.798 0 013.142-2.814 6.71 6.71 0 013.602-.109c.135.036.268.08.398.13zM20.094 42.409v-6.864a.176.176 0 01.134-.197 12.97 12.97 0 013.025-.736 10.937 10.937 0 012.09-.074 6.29 6.29 0 013.166.996 4.575 4.575 0 011.995 3.093 6.713 6.713 0 01-.236 3.366 4.708 4.708 0 01-3.187 3.09c-.79.241-1.612.36-2.438.351-.099 0-.116-.035-.116-.127v-2.202c0-.105.031-.127.127-.13.468-.006.93-.103 1.361-.285a2.566 2.566 0 001.513-1.682 3.66 3.66 0 00.063-1.984 2.443 2.443 0 00-1.966-1.868 4.991 4.991 0 00-2.432.088.222.222 0 00-.197.257V49.22c0 .186 0 .186-.182.186h-2.53c-.183 0-.183 0-.183-.176l-.007-6.821z" fill="#3F3F42"/><path d="M39.102 40.108v2.624c0 .12-.02.176-.15.194-.891.171-1.81.117-2.675-.159a2.652 2.652 0 01-1.8-2.294 3.69 3.69 0 01.112-1.639 2.464 2.464 0 011.854-1.73 4.405 4.405 0 012.462.136.229.229 0 01.183.257c.01.87.014 1.742.014 2.61zM15.612 40.097v2.663c0 .099-.021.144-.13.158a5.497 5.497 0 01-2.713-.147 2.633 2.633 0 01-1.776-2.217 3.742 3.742 0 01.077-1.629 2.463 2.463 0 012.164-1.889 4.573 4.573 0 012.198.197.229.229 0 01.183.26c-.007.873-.003 1.738-.003 2.604z" fill="#FEFEFE"/><path d="M24.05.253a1.906 1.906 0 011.9 0l10.1 5.805.095.058-7.54 4.293c-.073.043-.218.172-.218.345v.754a.44.44 0 00.193.294c.133.081.5.298.667.395a.411.411 0 00.436 0c.19-.11 4.926-2.81 7.317-4.172v11.28c0 .675-.362 1.3-.95 1.637l-10.1 5.805a1.907 1.907 0 01-1.9 0l-10.1-5.805a1.888 1.888 0 01-.95-1.637V8.003l10.82 6.148c.047.034.14.161.14.396v8.723c0 .089.042.29.206.383.164.092.496.268.642.345.06.038.223.091.397 0l.655-.345c.072-.051.218-.192.218-.345V13.283c0-.068-.049-.235-.244-.358-.193-.12-7.955-4.542-11.959-6.822l.074-.045L24.051.253z" fill="#EA4335"/></symbol><symbol viewBox="0 0 30 30" id="eye" xmlns="http://www.w3.org/2000/svg"><path fill-rule="evenodd" clip-rule="evenodd" d="M14.7 7.8c-4.83 0-8.95 3.694-11.157 6.561-.355.461-.328 1.164.137 1.68C6.244 18.887 9.811 22.5 15 22.5c5.545 0 9.037-3.311 11.643-6.371.437-.513.432-1.217.036-1.672-1.235-1.416-3.01-3.094-5.103-4.412C19.48 8.725 17.121 7.8 14.7 7.8zM2.117 13.263C4.417 10.275 9.003 6 14.7 6c2.874 0 5.566 1.092 7.836 2.522 2.273 1.431 4.178 3.236 5.5 4.752 1.027 1.18.946 2.885-.022 4.022C25.333 20.443 21.38 24.3 15 24.3c-6.067 0-10.12-4.239-12.657-7.054-.97-1.077-1.179-2.746-.226-3.983z"/><path d="M21.6 13.2a6.6 6.6 0 11-13.2 0 6.6 6.6 0 0113.2 0z"/><path d="M17.4 13.2a2.4 2.4 0 11-4.8 0 2.4 2.4 0 014.8 0z" fill="#fff"/></symbol><symbol viewBox="0 0 30 30" id="eye-crossed" xmlns="http://www.w3.org/2000/svg"><path fill-rule="evenodd" clip-rule="evenodd" d="M14.7 7.8c-4.83 0-8.95 3.694-11.157 6.561-.355.461-.328 1.164.137 1.68C6.244 18.887 9.811 22.5 15 22.5c5.545 0 9.037-3.311 11.643-6.371.437-.513.432-1.217.036-1.672-1.235-1.416-3.01-3.094-5.103-4.412C19.48 8.725 17.121 7.8 14.7 7.8zM2.117 13.263C4.417 10.275 9.003 6 14.7 6c2.874 0 5.566 1.092 7.836 2.522 2.273 1.431 4.178 3.236 5.5 4.752 1.027 1.18.946 2.885-.022 4.022C25.333 20.443 21.38 24.3 15 24.3c-6.067 0-10.12-4.239-12.657-7.054-.97-1.077-1.179-2.746-.226-3.983z"/><path d="M21.6 13.2a6.6 6.6 0 11-13.2 0 6.6 6.6 0 0113.2 0z"/><path d="M17.4 13.2a2.4 2.4 0 11-4.8 0 2.4 2.4 0 014.8 0z" fill="#fff"/><path fill-rule="evenodd" clip-rule="evenodd" d="M4.449 26.049a1.2 1.2 0 010-1.698L24.352 4.448a1.2 1.2 0 111.697 1.698L6.146 26.048a1.2 1.2 0 01-1.697 0z"/><path fill-rule="evenodd" clip-rule="evenodd" d="M3.176 27.321a3 3 0 010-4.242L23.078 3.176a3 3 0 114.243 4.242L7.418 27.321a3 3 0 01-4.242 0zm1.272-2.97a1.2 1.2 0 001.697 1.698L26.048 6.146a1.2 1.2 0 00-1.697-1.698L4.448 24.351z" fill="#fff"/></symbol><symbol viewBox="0 0 50 50" id="free-shipping" xmlns="http://www.w3.org/2000/svg"><path fill-rule="evenodd" clip-rule="evenodd" d="M27.875 10.338l.85 5.429 5.576-.845-.85-5.429-5.576.845zm-1.298-1.826a.994.994 0 00-.834 1.138l1.158 7.404c.085.546.597.921 1.143.839l7.554-1.145a.994.994 0 00.835-1.138l-1.159-7.404a1.006 1.006 0 00-1.143-.839l-7.554 1.145zm-9.34 1.749a.999.999 0 011.363-.375l4.93 2.79c.534.303.901.833.996 1.438l3.292 21.047 19.027-2.883a1.006 1.006 0 011.144.838.994.994 0 01-.834 1.138l-19.028 2.883a2.213 2.213 0 01-.036.005c.294 2.053-1.144 3.964-3.233 4.28-2.105.32-4.075-1.102-4.4-3.174-.323-2.073 1.121-4.011 3.227-4.33a3.898 3.898 0 011.946.198l-3.082-19.702-4.93-2.79a1.001 1.001 0 01-.381-1.363zm-9.45 10.872a1 1 0 100 2H15.5a1 1 0 100-2H7.786zM2 26.828a1 1 0 100 2h13.501a1 1 0 100-2H2zm29.072 3.947l-1.436-9.181 11.295-1.711 1.436 9.18-11.295 1.712zm-3.568-9.87a.994.994 0 01.834-1.137l13.273-2.011a1.006 1.006 0 011.143.838l1.745 11.157a.994.994 0 01-.834 1.138L30.392 32.9a1.006 1.006 0 01-1.143-.837l-1.745-11.157zm-1.397 16.487c.149.953-.516 1.897-1.558 2.054-1.042.158-1.964-.545-2.113-1.498-.149-.953.516-1.896 1.558-2.054 1.042-.158 1.964.545 2.113 1.498z"/></symbol><symbol viewBox="0 0 50 50" id="gift-card" xmlns="http://www.w3.org/2000/svg"><path d="M40.3 11H9.7c-2 0-3.7 1.7-3.7 3.7v19.7c0 2 1.7 3.6 3.7 3.6h30.6c2 0 3.7-1.6 3.7-3.6V14.7c0-2-1.6-3.7-3.7-3.7zM13 19.3c.1-.6.4-1.1.8-1.5a2 2 0 011.2-.3c.8 0 1.6.4 2.3 1 1.5 1.7 2 3.8 2 5-1.5-.2-4.1-.8-5.6-2.3-.6-.7-.7-1.4-.7-1.9zm10.2-.7c.7-.7 1.5-1.1 2.3-1.1.5 0 1 .1 1.3.4.4.3.6.8.7 1.4 0 .5 0 1.2-.7 1.9-1.4 1.6-4.1 2.2-5.6 2.4.1-1.2.6-3.4 2-5zm4.9 3.7a4 4 0 001-3.1c0-1.1-.5-2-1.3-2.7-1.8-1.3-4.4-.6-5.8 1-.7.8-1.3 1.7-1.7 2.8-.5-1-1-2-1.8-2.8-1.4-1.5-4-2.3-5.7-1-.8.6-1.3 1.6-1.4 2.7a4 4 0 001 3.1l1.9 1.4H7.7v-9c0-1.1.9-2 2-2h30.6c1.1 0 2 .9 2 2v9H26.1c.8-.4 1.4-.9 1.9-1.4zm-15.6 8.8l-.2.6c0 .2 0 .4.2.5l.6.3c.2 0 .4 0 .6-.3l6.5-6.5 6.6 6.6.6.2c.2 0 .4 0 .6-.2l.2-.6c0-.2 0-.4-.2-.6l-5.7-5.7h20.2v9c0 1-1 2-2 2H9.6a2 2 0 01-2-2v-9h10.5L12.4 31z"/><path d="M35.8 33.5h3.4c.4 0 .8-.4.8-.8 0-.5-.4-.9-.8-.9h-3.4c-.4 0-.8.4-.8.9 0 .4.4.8.8.8zm-4.3 0h1.1c.5 0 .9-.4.9-.8 0-.5-.4-.9-.9-.9h-1.1c-.5 0-.8.4-.8.9 0 .4.4.8.8.8z"/></symbol><symbol viewBox="0 0 20 21" id="help" xmlns="http://www.w3.org/2000/svg"><path fill-rule="evenodd" clip-rule="evenodd" d="M10 17.2a6.7 6.7 0 100-13.4 6.7 6.7 0 000 13.4zm0 .9a7.6 7.6 0 100-15.2 7.6 7.6 0 000 15.2z"/><path d="M10.5 11.5c-.1.2-.3.5-.6.5s-.5-.3-.5-.6v-.2c0-.2.2-.4.3-.5 0-.2.2-.4.4-.6l.4-.4.3-.4v-1l-.3-.3a.9.9 0 00-.5-.1 1 1 0 00-.4 0l-.3.3c-.2.3-.4.6-.7.6-.3 0-.6-.3-.5-.6a1.6 1.6 0 01.9-1c.3-.2.6-.3 1-.3s.8 0 1 .2c.4.2.6.4.8.7l.2 1c0 .3 0 .5-.2.7 0 .3-.2.5-.4.7l-.5.6a1.3 1.3 0 00-.4.7zm-1.2 2l.1-.5.5-.1a.6.6 0 01.7.6l-.2.4-.5.2c-.2 0-.3 0-.5-.2a.6.6 0 01-.1-.4z"/></symbol><symbol viewBox="0 0 40 40" id="info" xmlns="http://www.w3.org/2000/svg"><path d="M21 19a1 1 0 10-2 0h2zm-2 9a1 1 0 102 0h-2zm2-15a1 1 0 10-2 0h2zm-2 1a1 1 0 102 0h-2zm18 6c0 9.389-7.611 17-17 17v2c10.493 0 19-8.507 19-19h-2zM20 37c-9.389 0-17-7.611-17-17H1c0 10.493 8.507 19 19 19v-2zM3 20c0-9.389 7.611-17 17-17V1C9.507 1 1 9.507 1 20h2zM20 3c9.389 0 17 7.611 17 17h2C39 9.507 30.493 1 20 1v2zm-1 16v9h2v-9h-2zm0-6v1h2v-1h-2z"/></symbol><symbol viewBox="0 0 50 50" id="label" xmlns="http://www.w3.org/2000/svg"><path fill-rule="evenodd" clip-rule="evenodd" d="M11.333 5a1 1 0 00-.707.293l-5.333 5.333a1 1 0 00-.293.707V22a1 1 0 00.293.707l22 22a1 1 0 001.414 0l16-16a1 1 0 000-1.414l-22-22A1 1 0 0022 5H11.333zM7 11.748L11.748 7h9.838l21 21L28 42.586l-21-21v-9.838zM14.333 16a1.667 1.667 0 113.334 0 1.667 1.667 0 01-3.334 0zM16 12.333a3.667 3.667 0 100 7.334 3.667 3.667 0 000-7.334z"/></symbol><symbol fill="none" viewBox="0 0 20 21" id="less" xmlns="http://www.w3.org/2000/svg"><path fill-rule="evenodd" clip-rule="evenodd" d="M10 20.8a10 10 0 100-20 10 10 0 000 20z" fill="#F5F5F5"/><rect x="6" y="11.2" width="1.2" height="8" rx=".6" transform="rotate(-90 6 11.2)" fill="#000"/></symbol><symbol viewBox="0 0 15 13" id="like" xmlns="http://www.w3.org/2000/svg"><path d="M6.76 2.455l.392.493.392-.493c.665-.838 1.643-1.323 2.688-1.323 1.88 0 3.42 1.54 3.42 3.42 0 1.98-1.492 3.903-3.16 5.41a22.193 22.193 0 01-3.34 2.463c-.431-.258-1.9-1.16-3.34-2.462C2.146 8.455.653 6.533.653 4.552c0-1.88 1.54-3.42 3.42-3.42 1.046 0 2.024.485 2.689 1.323z"/></symbol><symbol fill="none" viewBox="0 0 21 20" id="link" xmlns="http://www.w3.org/2000/svg"><g clip-path="url(#bvclip0_2626_137528)" fill="#000"><path d="M17.968 8.333a.416.416 0 00-.416.417v8.75c0 .919-.748 1.667-1.667 1.667H1.718a.834.834 0 01-.833-.834v-15c0-.459.374-.833.833-.833h9.584a.417.417 0 100-.833H1.718C.8 1.667.052 2.415.052 3.333v15C.052 19.253.8 20 1.718 20h14.167c1.378 0 2.5-1.122 2.5-2.5V8.75a.417.417 0 00-.417-.417z"/><path d="M20.051.416a.412.412 0 00-.008-.08c-.002-.013-.007-.024-.01-.036L20.02.258 20 .218c-.007-.01-.011-.022-.017-.031a.408.408 0 00-.116-.116c-.01-.007-.022-.012-.032-.018l-.04-.02c-.013-.006-.027-.009-.042-.013-.012-.003-.023-.008-.036-.01a.366.366 0 00-.075-.008h-5.839a.417.417 0 100 .834h4.827l-8.873 8.87a.417.417 0 00.59.589l8.871-8.872V6.25a.417.417 0 10.833 0V.416z"/></g><defs><clipPath id="bvclip0_2626_137528"><path fill="#fff" transform="translate(.052)" d="M0 0h20v20H0z"/></clipPath></defs></symbol><symbol viewBox="0 0 39 41" id="livep-chrono" xmlns="http://www.w3.org/2000/svg"><path fill-rule="evenodd" clip-rule="evenodd" d="M38 10.8c-.8-1.3-1.7-2.5-2.8-3.6L35 7c-1-1-2.1-1.8-3.3-2.6a.9.9 0 00-1.3.2c-.2.4-.1 1 .3 1.2l2.5 2-1.9 1.9a17.7 17.7 0 00-8.7-4.3v-3h1.8c.4 0 .8-.3.8-.8s-.4-.9-.8-.9h-9.8c-.4 0-.8.4-.8.9s.4.9.8.9h1.8v2.9c-3.3.6-6.3 2-8.7 4.3l-2-2 2.6-1.9c.4-.2.5-.8.3-1.2a.9.9 0 00-1.3-.2A22.4 22.4 0 001 10.8c-.2.4-.1 1 .3 1.2l.5.1c.3 0 .6-.1.7-.4l2-2.7 1.9 2a17.7 17.7 0 1026.2 0l1.9-2c.7.9 1.5 1.8 2 2.7a.9.9 0 001.3.3c.4-.3.5-.8.3-1.2zM18.3 2.5h2.6v2.7a18.8 18.8 0 00-2.6 0V2.5zm1.3 36c-8.8 0-15.9-7-15.9-15.8a15.9 15.9 0 0131.8 0c0 8.7-7.1 15.8-15.9 15.8zM29 13.4a13.2 13.2 0 00-18.7 0H10A13.1 13.1 0 0010 32a13.2 13.2 0 0018.7 0h.1a13.1 13.1 0 000-18.6zm.3 10.2H31c-.1 2.5-1.1 4.7-2.7 6.5L27 29a.9.9 0 00-1.3 0c-.3.4-.3 1 0 1.3l1.3 1.2c-1.8 1.5-4.1 2.5-6.6 2.7v-1.7a.9.9 0 00-1.8 0V34c-2.5-.2-4.8-1.2-6.6-2.7l1.3-1.2c.3-.4.3-1 0-1.3a.9.9 0 00-1.3 0L10.8 30c-1.6-1.8-2.5-4-2.7-6.5h1.7c.5 0 .9-.4.9-.9s-.4-.9-1-.9H8.2c.1-2.5 1.1-4.7 2.7-6.5l1.2 1.2a.9.9 0 101.2-1.3L12 14c1.8-1.5 4.1-2.5 6.6-2.7V13a.9.9 0 001.8 0v-1.7c2.5.2 4.8 1.2 6.6 2.7l-1.3 1.2a.9.9 0 101.3 1.3l1.2-1.2c1.5 1.8 2.5 4 2.7 6.5h-1.7c-.5 0-.9.4-.9.9s.4.9 1 .9zm-3.5-.9c0 .5-.4.9-.9.9h-5.3a.9.9 0 01-.9-.9v-5.3a.9.9 0 011.8 0v4.4h4.4c.5 0 .9.4.9.9z"/></symbol><symbol viewBox="0 0 55 27" id="livep-distance" xmlns="http://www.w3.org/2000/svg"><path fill-rule="evenodd" clip-rule="evenodd" d="M54.8 24.8L38 2h10.2a1 1 0 100-2H6.7a1 1 0 000 2H17L.2 24.8a1 1 0 001.3 1.5l.3-.3L19.4 2h3.2L5.9 24.8A1 1 0 107.5 26L25.1 2h1.4v1.4a1 1 0 102 0V2H30l17.5 24a1 1 0 001.8-.2 1 1 0 00-.1-1L32.4 2h3.2l17.6 24a1 1 0 00.8.4 1 1 0 00.8-1.6z"/><path fill-rule="evenodd" clip-rule="evenodd" d="M27.5 18.4a1 1 0 00-1 1v5.1a1 1 0 102 0v-5a1 1 0 00-1-1.1zm0-10.5a1 1 0 00-1 1v4.3a1 1 0 102 0V8.9a1 1 0 00-1-1z"/></symbol><symbol viewBox="0 0 55 55" id="livep-laps" xmlns="http://www.w3.org/2000/svg"><path fill-rule="evenodd" clip-rule="evenodd" d="M36.667 10.8H18.333C9.313 10.8 2 18.113 2 27.133s7.313 16.334 16.333 16.334h18.334c9.02 0 16.333-7.313 16.333-16.334 0-9.02-7.313-16.333-16.333-16.333zm-18.334-2C8.208 8.8 0 17.008 0 27.133c0 10.125 8.208 18.334 18.333 18.334h18.334C46.792 45.467 55 37.258 55 27.133S46.792 8.8 36.667 8.8H18.333z"/><path fill-rule="evenodd" clip-rule="evenodd" d="M35.933 14.467H19.067c-6.996 0-12.667 5.67-12.667 12.667C6.4 34.129 12.07 39.8 19.067 39.8h16.866c6.996 0 12.667-5.67 12.667-12.666s-5.671-12.667-12.667-12.667zm-16.866-2c-8.1 0-14.667 6.566-14.667 14.667 0 8.1 6.566 14.666 14.667 14.666h16.866c8.1 0 14.667-6.566 14.667-14.666 0-8.1-6.567-14.667-14.667-14.667H19.067z"/><path fill-rule="evenodd" clip-rule="evenodd" d="M35.933 18.867H19.067a8.267 8.267 0 100 16.533h16.866a8.267 8.267 0 100-16.533zm-16.866-2c-5.67 0-10.267 4.596-10.267 10.266S13.396 37.4 19.067 37.4h16.866c5.67 0 10.267-4.596 10.267-10.267 0-5.67-4.597-10.266-10.267-10.266H19.067z"/></symbol><symbol viewBox="0 0 55 37" id="livep-speed" xmlns="http://www.w3.org/2000/svg"><path fill-rule="evenodd" clip-rule="evenodd" d="M32.2 16.5a1.3 1.3 0 000-2.6h-21a1.3 1.3 0 000 2.6h21zm1.3 5.1a1.3 1.3 0 00-1.3-1.3h-31a1.3 1.3 0 000 2.6h31a1.3 1.3 0 001.3-1.3z"/><path fill-rule="evenodd" clip-rule="evenodd" d="M54.6 17.5L38.6.9a1.3 1.3 0 00-2.2 1v5.6H8.1a1.3 1.3 0 100 2.6h29.6A1.3 1.3 0 0039 8.8V5l13 13.4-13 13.2V28a1.3 1.3 0 00-1.3-1.4H8.1a1.3 1.3 0 100 2.7h28.3v5.6a1.3 1.3 0 001.3 1.3 1.3 1.3 0 001-.4l16-16.5a1.3 1.3 0 000-1.8z"/></symbol><symbol viewBox="0 0 26 26" id="lock" xmlns="http://www.w3.org/2000/svg"><path fill-rule="evenodd" clip-rule="evenodd" d="M19.26 22.36c.48 0 .895-.337.993-.807v-8.584a1.014 1.014 0 00-.993-1.22H6.734c-.643 0-1.124.59-.993 1.22v8.584c.098.47.513.807.993.807H19.26z"/><path fill-rule="evenodd" clip-rule="evenodd" d="M13.39 16.466a1.3 1.3 0 10-1.3 0v2.124a.65.65 0 101.3 0v-2.124z" fill="#F5F5F5"/><path fill-rule="evenodd" clip-rule="evenodd" d="M16.127 11.748V7.349c0-1.63-1.827-2.262-3.302-2.262-1.476 0-3.302.633-3.302 2.262v4.399h6.604zM12.825 3.64c-2.685 0-4.75 1.66-4.75 3.71v5.325h9.5V7.35c0-2.048-1.975-3.71-4.75-3.71z"/></symbol><symbol viewBox="0 0 50 50" id="mail" xmlns="http://www.w3.org/2000/svg"><path fill-rule="evenodd" clip-rule="evenodd" d="M47.478 37.5H2.522V14.041l19.757 8.036a5.81 5.81 0 004.283.037l20.916-8.093V37.5zm-2.41-25l-19.344 7.485a3.486 3.486 0 01-2.57-.023L4.807 12.5h40.26zm4.879 25.51c0 .99-1.274 1.99-2.469 1.99H2.522c-1.194 0-2.468-1-2.468-1.99v-25C.054 11.5.923 10 2.522 10h44.956c1.599 0 2.468 1.5 2.468 3.01v25z"/></symbol><symbol viewBox="0 0 47 57" id="medal" xmlns="http://www.w3.org/2000/svg"><path d="M46.1.6a1.1 1.1 0 00-1-.6h-12a1.1 1.1 0 00-1 .6l-9 16.5-9-16.5a1.1 1.1 0 00-1-.6h-12a1.1 1.1 0 00-1 1.7L11.3 22A19.1 19.1 0 1035 22L46 1.7a1.1 1.1 0 000-1.1zm-2.9 1.7l-10 18.5c-1-.5-1.8-1-2.8-1.3l9.4-17.2h3.4zM25.2 18l8.6-15.8h3.4l-9 16.4-3-.6zM40 37a16.9 16.9 0 11-33.7 0A16.9 16.9 0 0140 37zM13.2 20.8L3 2.3h3.5l9.4 17.2c-1 .4-1.9.8-2.7 1.3zm-.7-18.5L21 18l-3 .6L9 2.3h3.4z"/><path d="M9.3 37.2a13.9 13.9 0 1027.7 0 13.9 13.9 0 00-27.7 0zm2.1 0a11.7 11.7 0 1123.5 0 11.7 11.7 0 01-23.5 0z"/></symbol><symbol fill="none" viewBox="0 0 20 21" id="more" xmlns="http://www.w3.org/2000/svg"><path fill-rule="evenodd" clip-rule="evenodd" d="M10 20.827c5.523 0 10-4.478 10-10 0-5.523-4.477-10-10-10s-10 4.477-10 10c0 5.522 4.477 10 10 10z" fill="var(--icon-more-background-color, #f5f5f5)"/><path fill-rule="evenodd" clip-rule="evenodd" d="M10 6.827a.5.5 0 00-.5.5v3h-3a.5.5 0 100 1h3v3a.5.5 0 001 0v-3h3a.5.5 0 000-1h-3v-3a.5.5 0 00-.5-.5z" fill="var(--icon-more-color, #000000)"/></symbol><symbol viewBox="0 0 55 55" id="movie" xmlns="http://www.w3.org/2000/svg"><path d="M53.3 25.3H9.7l41.3-13c.6-.2 1-.7.7-1.3l-2.9-9.2a1 1 0 00-.5-.6c-.3-.1-.6-.1-.8 0l-46 14.3c-.5.2-.8.8-.7 1.3l3 9.2.2.4v26.9c0 .6.5 1 1.1 1h48.2c.5 0 1-.4 1-1v-27c0-.5-.4-1-1-1zM25.6 10.2l-2.3 8.6-9.2 2.9 2.4-8.6 9.1-3zm11.9-3.7L35.1 15l-9.3 3L28 9.3l9.4-3zm11.9 4.1l-11.8 3.7L40 5.7l7-2.2 2.4 7.1zM3.3 17.2L14 13.8l-2.4 8.6-6.1 2-2.3-7.2zm48.9 35h-46V27.5h46v24.9z"/><path d="M53 54.4H5.2c-.8 0-1.4-.6-1.4-1.4V26.1c0-.7.6-1.3 1.4-1.3H53c.7 0 1.4.6 1.4 1.3v27c0 .7-.7 1.3-1.4 1.3zM6.6 51.7h45V27.5h-45v24.2z"/><path d="M4.8 27.2a1.4 1.4 0 01-1-1L.8 17c-.3-.7 0-1.4.8-1.7L47 .7h1c.4.3.6.5.8.9l3 9.2c.3.7-.1 1.5-.9 1.8L5.5 27h-.7zm-1-9.8L6 24l42.8-13.7-2.2-6.7L3.8 17.4zm20.8 28.8c-.3 0-.5 0-.7-.2-.5-.2-.8-.7-.8-1.3V34.4c0-.5.3-1 .8-1.3.4-.3 1-.3 1.4 0l9 5.2c.4.2.7.7.7 1.3 0 .5-.3 1-.7 1.3l-9 5.1c-.2.2-.4.2-.7.2zm1.5-9.2v5l4.5-2.5L26 37z"/></symbol><symbol viewBox="0 0 40 40" id="newsletter" xmlns="http://www.w3.org/2000/svg"><path fill-rule="evenodd" clip-rule="evenodd" d="M10.454 7a1 1 0 00-1 1v4.172l-5.041 3.655a1 1 0 00-.413.81V33a1 1 0 001 1h30a1 1 0 001-1V16.636a1 1 0 00-.413-.81l-5.042-3.655V8a1 1 0 00-1-1h-19.09zm18.091 5.691v6.264l-8.306 3.941-8.785-4.033V9h17.091v3.691zm4.806 3.985l-2.806 1.33v-3.364l2.806 2.034zm-13.098 8.428L34 18.58V32H6V18.56l14.253 6.544zM9.455 14.642l-2.79 2.022 2.79 1.28v-3.302zm6.454-1.37a1 1 0 100 2h8.182a1 1 0 100-2h-8.182z"/></symbol><symbol viewBox="0 0 50 50" id="no-icon" xmlns="http://www.w3.org/2000/svg"><path d="M20.705 20.752a1 1 0 01.968-.752h8.705a1 1 0 01.969 1.248l-2.052 8a1 1 0 01-.968.752h-8.705a1 1 0 01-.969-1.248l2.052-8z"/></symbol><symbol viewBox="0 0 50 50" fill="none" id="paypal" xmlns="http://www.w3.org/2000/svg"><path d="M33.6 12.3c-1.3-1.6-3.9-2.3-7-2.3h-9.4a1.3 1.3 0 00-1.3 1.1L12 35.7a.8.8 0 00.8 1h5.8l1.4-9.2v.3a1.3 1.3 0 011.3-1.1H24c5.4 0 9.6-2.2 10.8-8.5l.1-.6c.4-2.3 0-3.9-1.3-5.3" fill="#003087"/><path d="M33.6 12.3c-1.3-1.6-3.9-2.3-7-2.3h-9.4a1.3 1.3 0 00-1.3 1.1L12 35.7a.8.8 0 00.8 1h5.8l1.4-9.2v.3a1.3 1.3 0 011.3-1.1H24c5.4 0 9.6-2.2 10.8-8.5l.1-.6c.4-2.3 0-3.9-1.3-5.3" fill="#003087"/><path d="M21.6 17.7a1.2 1.2 0 011.1-1H30a15.5 15.5 0 013.6.4l1.3.5c.4-2.3 0-3.9-1.3-5.3-1.3-1.6-3.9-2.3-7-2.3h-9.4a1.3 1.3 0 00-1.3 1.1L12 35.7a.8.8 0 00.8 1h5.8l1.4-9.2 1.6-9.8z" fill="#003087"/><path d="M35 17.6l-.2.6c-1.2 6.3-5.4 8.5-10.8 8.5h-2.7a1.3 1.3 0 00-1.3 1l-1.4 9-.4 2.5a.7.7 0 00.7.8h4.8a1.2 1.2 0 001.2-1v-.2l1-5.8v-.3a1.2 1.2 0 011.1-1h.8c4.7 0 8.3-2 9.4-7.5.5-2.3.2-4.2-1-5.6a4.6 4.6 0 00-1.3-1" fill="#009CDE"/><path d="M33.6 17.1l-1.2-.3a15 15 0 00-2.4-.1h-7.3a1.2 1.2 0 00-1.1 1L20 27.5v.3a1.3 1.3 0 011.3-1.1H24c5.4 0 9.6-2.2 10.8-8.5l.1-.6a6.6 6.6 0 00-1.3-.5z" fill="#012169"/></symbol><symbol viewBox="0 0 41 53" id="pdf" xmlns="http://www.w3.org/2000/svg"><g clip-path="url(#ciclip0_3000_78521)"><g clip-path="url(#ciclip1_3000_78521)"><path d="M28.63 12.1c-.48-.48-.74-1.12-.74-1.8V0H3.04C2.23 0 1.46.32.89.89.32 1.46 0 2.24 0 3.04v46.54c0 .81.32 1.58.89 2.15.57.57 1.34.89 2.15.89h34.65c.81 0 1.58-.32 2.15-.89.57-.57.89-1.34.89-2.15V12.84h-10.3c-.67 0-1.32-.27-1.8-.74zM10.5 32.31c-.06.14-.14.27-.25.38a1.195 1.195 0 01-.85.34 1.18 1.18 0 01-.84-.34 1.195 1.195 0 01-.34-.84 1.18 1.18 0 01.34-.84 1.195 1.195 0 01.84-.34 1.195 1.195 0 01.85.34 1.195 1.195 0 01.34.84c0 .16-.03.32-.09.46zm8.03-1.28c-.13.39-.32.75-.57 1.07-.24.31-.55.56-.9.74-.35.19-.75.28-1.2.28-.38 0-.77-.06-1.13-.19-.34-.12-.64-.34-.86-.64h-.02v3.62h-1.94v-9.23h1.78v.83h.03c.09-.12.19-.24.3-.34.13-.12.28-.23.44-.32.17-.1.36-.18.55-.23.21-.06.42-.09.63-.09.43 0 .86.08 1.27.24.37.15.7.38.98.67.28.3.49.65.63 1.03.15.42.22.86.22 1.3 0 .43-.07.85-.2 1.26h-.01zm7.78 1.93h-1.78v-.83h-.03c-.09.12-.19.24-.3.34-.13.12-.28.23-.44.32-.18.1-.36.18-.56.23-.2.06-.41.09-.63.09-.43 0-.86-.08-1.27-.24-.37-.15-.7-.38-.98-.67-.28-.3-.49-.65-.63-1.03a3.86 3.86 0 01-.22-1.3c0-.43.07-.85.2-1.26.13-.39.32-.75.57-1.07.24-.31.55-.56.9-.74.35-.18.75-.28 1.2-.28.38 0 .77.06 1.13.19.34.12.64.34.86.64h.03v-4.16h1.94v9.77h.01zm5.12-9.9c.19.02.37.05.56.09l-.09 1.64c-.1-.04-.2-.07-.31-.1-.11-.02-.21-.03-.32-.03-.31 0-.54.07-.7.2-.16.13-.23.41-.23.82v1h1.43v1.55h-1.43v4.73H28.4v-4.73h-1.28v-1.55h1.28v-1.11c0-.33.03-.65.09-.98.05-.29.17-.57.35-.81.17-.23.42-.42.74-.55.32-.13.75-.2 1.27-.2.2 0 .39 0 .58.03z"/><path d="M22.98 28.23c-.49 0-.87.15-1.14.44-.27.29-.41.68-.41 1.15 0 .47.14.86.41 1.15.27.29.65.44 1.14.44.49 0 .87-.15 1.14-.44.27-.29.41-.68.41-1.15 0-.47-.14-.86-.41-1.15-.27-.29-.65-.44-1.14-.44zM15.24 28.23c-.49 0-.87.15-1.14.44-.27.29-.41.68-.41 1.15 0 .47.14.86.41 1.15.27.29.65.44 1.14.44.49 0 .87-.15 1.14-.44.27-.29.41-.68.41-1.15 0-.47-.14-.86-.41-1.15-.27-.29-.65-.44-1.14-.44zM31.68 10.94h9.05L29.79 0v9.05c0 .5.2.98.55 1.34.36.36.84.55 1.34.55z"/></g></g><defs><clipPath id="ciclip0_3000_78521"><path fill="#fff" d="M0 0h41v53H0z"/></clipPath><clipPath id="ciclip1_3000_78521"><path fill="#fff" d="M0 0h40.73v52.62H0z"/></clipPath></defs></symbol><symbol viewBox="0 0 50 50" id="play" xmlns="http://www.w3.org/2000/svg"><path d="M8 40.2V10.8c0-2.158 2.66-3.502 4.778-2.415l28.646 14.7c2.102 1.08 2.102 3.75 0 4.83l-28.646 14.7C10.66 43.702 8 42.358 8 40.2z"/></symbol><symbol viewBox="0 0 50 50" id="print" xmlns="http://www.w3.org/2000/svg"><path fill-rule="evenodd" clip-rule="evenodd" d="M12.213 5.984c0-.544.44-.984.984-.984h23.606c.544 0 .984.44.984.984v5.245a.984.984 0 01-1.967 0V6.968H14.18v4.263a.984.984 0 11-1.967 0V5.983zM7.64 16.82a2.295 2.295 0 011.623-.672h31.476a2.295 2.295 0 012.295 2.295v15.41h-5.246v-9.509a.984.984 0 00-.984-.983H13.197a.984.984 0 00-.984.983v9.508H6.967v-15.41c0-.608.242-1.192.672-1.622zm4.574 19h-6.23A.984.984 0 015 34.836V18.443a4.262 4.262 0 014.262-4.263h31.476A4.262 4.262 0 0145 18.443v16.393c0 .543-.44.984-.984.984h-6.23v8.196c0 .544-.44.984-.983.984H13.197a.984.984 0 01-.984-.984V35.82zm23.607-.984v-9.508H14.18v17.705h21.64v-8.197zm1.639-15.082a1.312 1.312 0 11-2.623 0 1.312 1.312 0 012.623 0zM18.77 30.902c0-.544.44-.984.984-.984h10.492a.984.984 0 010 1.967H19.754a.984.984 0 01-.984-.983zm.984 5.573a.984.984 0 000 1.968h10.492a.984.984 0 000-1.968H19.754z"/></symbol><symbol viewBox="0 0 70 57" id="quote" xmlns="http://www.w3.org/2000/svg"><path fill-rule="evenodd" clip-rule="evenodd" d="M15.462 24.535H6.334L11.178.037h24.497l-4.47 22.123C26.732 44.934 16.3 56.297 0 56.297l1.21-6.148c3.634 0 6.335-1.257 8.058-3.726 1.77-2.468 3.353-7.405 4.797-14.717l1.397-7.172zm34.278 0h-9.128L45.502.037H70L65.529 22.16c-4.471 22.774-14.904 34.138-31.204 34.138l1.21-6.148c3.633 0 6.335-1.257 8.104-3.726 1.77-2.468 3.354-7.405 4.797-14.717l1.304-7.172z"/></symbol><symbol viewBox="0 0 95 14.2" id="ranking" xmlns="http://www.w3.org/2000/svg"><path d="M53.9 4.7h-3.5c-.5 0-.9-.3-1-.7L48.3.7a.9.9 0 00-.6-.6c-.5-.2-1.1.1-1.3.6l-1 3.3c-.1.4-.5.7-1 .7H41a1 1 0 00-.8.4 1 1 0 00.2 1.4l2.8 2c.4.3.5.7.4 1.1l-1.1 3.3c-.1.3 0 .6.1.9.3.4 1 .5 1.4.2l2.8-2c.4-.3.8-.3 1.2 0l2.9 2c.3.2.6.2.9.1.5-.2.8-.7.6-1.3l-1.1-3.3c-.1-.4 0-.9.4-1.1l2.8-1.9c.3-.2.4-.5.4-.8 0-.6-.5-1-1-1zm20 0h-3.5c-.5 0-.9-.3-1-.7L68.3.7a.9.9 0 00-.6-.6c-.5-.2-1.1.1-1.3.6l-1 3.3c-.1.4-.5.7-1 .7H61a1 1 0 00-.8.4 1 1 0 00.2 1.4l2.8 2c.4.3.5.7.4 1.1l-1.1 3.3c-.1.3 0 .6.1.9.3.4 1 .5 1.4.2l2.8-2c.4-.3.8-.3 1.2 0l2.9 2c.3.2.6.2.9.1.5-.2.8-.7.6-1.3l-1.1-3.3c-.1-.4 0-.9.4-1.1l2.8-1.9c.3-.2.4-.5.4-.8 0-.6-.5-1-1-1zm17.8 3.7l2.8-1.9c.3-.2.4-.5.4-.8 0-.6-.5-1-1-1h-3.5c-.5 0-.9-.3-1-.7L88.3.7a.9.9 0 00-.6-.6c-.5-.2-1.1.1-1.3.6l-1 3.3c-.1.4-.5.7-1 .7H81a1 1 0 00-.8.4 1 1 0 00.2 1.4l2.8 2c.4.3.5.7.4 1.1l-1.1 3.3c-.1.3 0 .6.1.9.3.4 1 .5 1.4.2l2.8-2c.4-.3.8-.3 1.2 0l2.9 2c.3.2.6.2.9.1.5-.2.8-.7.6-1.3l-1.1-3.3c-.1-.4 0-.9.4-1.1zM33.8 4.7h-3.5c-.5 0-.9-.3-1-.7L28.2.7a.9.9 0 00-.6-.6c-.5-.2-1.1.1-1.3.6l-1 3.3c-.1.4-.5.7-1 .7h-3.4a1 1 0 00-.8.4 1 1 0 00.2 1.4l2.8 2c.4.3.5.7.4 1.1l-1.1 3.3c-.1.3 0 .6.1.9.3.4 1 .5 1.4.2l2.8-2c.4-.3.8-.3 1.2 0l2.9 2c.3.2.6.2.9.1.5-.2.8-.7.6-1.3l-1.1-3.3c-.1-.4 0-.9.4-1.1l2.8-1.9c.3-.2.4-.5.4-.8 0-.6-.5-1-1-1zM14 4.7h-3.5c-.5 0-.9-.3-1-.7L8.4.7a.9.9 0 00-.6-.6c-.5-.2-1.1.1-1.3.6L5.5 4c-.1.4-.5.7-1 .7H1.1a1 1 0 00-.8.4 1 1 0 00.2 1.4l2.8 2c.4.3.5.7.4 1.1l-1.1 3.3c-.1.3 0 .6.1.9.3.4 1 .5 1.4.2l2.8-2c.4-.3.8-.3 1.2 0l2.9 2c.3.2.6.2.9.1.5-.2.8-.7.6-1.3l-1.1-3.3c-.1-.4 0-.9.4-1.1l2.8-1.9c.3-.2.4-.5.4-.8 0-.6-.5-1-1-1z"/></symbol><symbol fill="none" viewBox="0 0 19 21" id="remove" xmlns="http://www.w3.org/2000/svg"><path fill-rule="evenodd" clip-rule="evenodd" d="M10 20.827c5.523 0 10-4.478 10-10 0-5.523-4.477-10-10-10s-10 4.477-10 10c0 5.522 4.477 10 10 10z" fill="var(--icon-remove-background-color, #f5f5f5)"/><path fill-rule="evenodd" clip-rule="evenodd" d="M6.911 7.916a.5.5 0 000 .707l2.404 2.404-2.404 2.404a.5.5 0 10.707.707l2.404-2.404 2.405 2.404a.5.5 0 10.707-.707l-2.405-2.404 2.405-2.404a.5.5 0 10-.707-.707l-2.405 2.404-2.404-2.404a.5.5 0 00-.707 0z" fill="var(--icon-remove-color, #000000)"/></symbol><symbol viewBox="0 0 22 21" id="repair" xmlns="http://www.w3.org/2000/svg"><path fill-rule="evenodd" clip-rule="evenodd" d="M.967 1.7a.46.46 0 01.54-.07l3.53 1.811a.462.462 0 01.212.212l1.106 2.259 2.047 2-.658.635-2.118-2.07a.715.715 0 01-.118-.165L4.473 4.17 1.39 2.594l-.353.353L2.59 6.029l2.165 1.012c.07.024.118.047.165.118l2.118 2.07-.66.636-2.046-2-2.283-1.083a.462.462 0 01-.212-.211L.05 3.04c-.094-.165-.047-.377.094-.518L.967 1.7zm2.188 15.06c.33-.33.87-.33 1.2 0 .33.329.33.847 0 1.176-.33.33-.87.33-1.2 0-.33-.306-.33-.847 0-1.177zM15.768 1.3c-1.13 0-2.236.423-3.036 1.247a4.185 4.185 0 00-1.059 4.306.49.49 0 01-.117.47L2.33 16.408a1.633 1.633 0 000 2.306l.048.047c.635.635 1.694.635 2.353 0l9.224-9.083a.49.49 0 01.47-.118c1.553.494 3.248.118 4.4-1.035.942-.942 1.389-2.212 1.224-3.483L17.91 7.135a.492.492 0 01-.141.094c-.07.024-1.553.683-2.989-.753-1.435-1.411-.776-2.87-.753-2.94a.49.49 0 01.095-.142l2.164-2.07c-.164-.024-.33-.024-.517-.024zm-1.483 12.495a.943.943 0 00-.682.282l-.965.965a.854.854 0 00-.282.659c0 .258.094.494.282.659l2.87 2.823a.982.982 0 001.342 0l.965-.965a.835.835 0 00.306-.658.855.855 0 00-.283-.66l-2.87-2.823a.943.943 0 00-.683-.282zM12.073 1.888C13.462.523 15.485.053 17.344.618c.165.046.283.164.306.329.047.164 0 .33-.117.423l-2.66 2.636c-.07.235-.258 1.035.589 1.859.847.823 1.647.659 1.882.588l2.683-2.636a.448.448 0 01.447-.117.48.48 0 01.33.306 5.093 5.093 0 01-1.295 5.2 5.374 5.374 0 01-5.083 1.318l-9.035 8.895a2.621 2.621 0 01-1.836.753 2.663 2.663 0 01-1.835-.753l-.047-.047a2.515 2.515 0 010-3.6l9.036-8.895a5.114 5.114 0 011.364-4.989zm2.212 10.989c.494 0 .965.188 1.341.541l2.871 2.824c.353.353.541.823.541 1.318 0 .494-.188.964-.54 1.317l-.966.965a1.947 1.947 0 01-1.34.541 1.99 1.99 0 01-1.342-.54l-2.87-2.825a1.85 1.85 0 01-.542-1.317c0-.495.188-.965.541-1.318l.965-.965a1.948 1.948 0 011.341-.541z"/></symbol><symbol viewBox="0 0 32 32" id="report" xmlns="http://www.w3.org/2000/svg"><path d="M16 0C7.164 0 0 7.164 0 16s7.164 16 16 16 16-7.164 16-16S24.836 0 16 0zm-1.801 8.657a1.81 1.81 0 113.602 0l-1.068 10.68a.737.737 0 01-1.466-.001L14.199 8.657zM16 25.667a1.668 1.668 0 11.002-3.336A1.668 1.668 0 0116 25.667z"/></symbol><symbol viewBox="0 0 50 50" id="return" xmlns="http://www.w3.org/2000/svg"><path fill-rule="evenodd" clip-rule="evenodd" d="M12 23.6c.3-.1.6-.2.8 0l9.2 4.6c.3.1.5.4.5.7v5.2a.9.9 0 01-1.3.8l-9.1-4.6a.9.9 0 01-.5-.8v-5.1c0-.3.1-.6.4-.8zm1.3 2.1V29l7.5 3.7v-3.2l-7.5-3.8z"/><path fill-rule="evenodd" clip-rule="evenodd" d="M24.3 8a.9.9 0 00-.8 0l-7.4 3.8-8.6 4.3a.9.9 0 00-.5.8v16c0 .4.2.7.5.8L25.8 43a.9.9 0 00.4.1.9.9 0 00.4-.1l16-8c.4-.2.5-.5.5-.8v-16a.9.9 0 00-.4-.8L24.3 8zm16 10L24 9.8l-5.6 2.8 16 8.4 6-3zm-23.9-4.4l-6.6 3.3L26.2 25l6.3-3.1-16-8.4zm-7.7 4.7v14.1l16.7 8.3v-14L8.7 18.2zm18.4 22.4l14.3-7.1V19.4l-14.3 7.2v14.1z"/></symbol><symbol viewBox="0 0 50 50" id="return-box" xmlns="http://www.w3.org/2000/svg"><path fill-rule="evenodd" clip-rule="evenodd" d="M12 23.6c.3-.1.6-.2.8 0l9.2 4.6c.3.1.5.4.5.7v5.2a.9.9 0 01-1.3.8l-9.1-4.6a.9.9 0 01-.5-.8v-5.1c0-.3.1-.6.4-.8zm1.3 2.1V29l7.5 3.7v-3.2l-7.5-3.8z"/><path fill-rule="evenodd" clip-rule="evenodd" d="M24.3 8a.9.9 0 00-.8 0l-7.4 3.8-8.6 4.3a.9.9 0 00-.5.8v16c0 .4.2.7.5.8L25.8 43a.9.9 0 00.4.1.9.9 0 00.4-.1l16-8c.4-.2.5-.5.5-.8v-16a.9.9 0 00-.4-.8L24.3 8zm16 10L24 9.8l-5.6 2.8 16 8.4 6-3zm-23.9-4.4l-6.6 3.3L26.2 25l6.3-3.1-16-8.4zm-7.7 4.7v14.1l16.7 8.3v-14L8.7 18.2zm18.4 22.4l14.3-7.1V19.4l-14.3 7.2v14.1z"/></symbol><symbol viewBox="0 0 22 11" id="rule" xmlns="http://www.w3.org/2000/svg"><path fill-rule="evenodd" clip-rule="evenodd" d="M2.195 10.835h17.638c1.207 0 2.167-.987 2.167-2.194V2.195C22 .988 21.04 0 19.833 0H2.195A2.201 2.201 0 000 2.195V8.64a2.2 2.2 0 002.195 2.194zm14.044-6.803h1.317V1.18h1.893c.74 0 1.317.603 1.317 1.316V8.34c0 .713-.576 1.317-1.317 1.317H2.55A1.335 1.335 0 011.233 8.34V2.496c0-.713.604-1.316 1.317-1.316h1.262v4.937h1.344V1.18h2.826v2.852h1.344V1.18h2.907v4.855h1.317V1.18h2.688v2.852z"/></symbol><symbol viewBox="0 0 127 35" id="s-plus" xmlns="http://www.w3.org/2000/svg"><path fill-rule="evenodd" clip-rule="evenodd" d="M17.7 13.2l.3-1.8v-.2c.2-1 0-1.3-1-1.4h-6.3a4 4 0 00-.6 0 1.1 1.1 0 00-1 .8 1.3 1.3 0 00.3 1.5l1.2.6 10.3 4 .8.3c1 .6 1.5 1.3 1.3 2.5-.2 1.6-.5 3.2-1 4.8-.5 2.1-1.7 3-4 3.3H4.7c-1 0-1.8 0-2.7-.4a2.8 2.8 0 01-2-2.5c0-1.2.3-2.4.5-3.5l.2-1.7c0-.2.1-.2.3-.2h6c.3 0 .4 0 .3.2-.1.7-.3 1.4-.3 2.2-.1.8.2 1.2 1 1.2h6.5c.8 0 1.1-.3 1.3-.9.2-.8 0-1.3-.6-1.8-.9-.5-1.9-.8-2.8-1.1a2416 2416 0 00-8-3.1c-1.2-.8-1.9-1.8-1.7-3.3.1-1.5.4-3 .8-4.5.5-1.9 1.9-2.8 3.8-3l2-.2h11.9l1.8.3c.5 0 1 .4 1.4.8.4.5.6 1 .6 1.6 0 1-.2 2-.4 3 0 .8-.2 1.5-.3 2.2 0 .2 0 .3-.3.3h-6.3zm96.3 14a31 31 0 01-6-.4c-.8-.1-1.5-.4-2.2-.8a3.6 3.6 0 01-1.8-2.9c-.1-1 0-2 .2-3 0-.2.1-.3.3-.3h1.7c.2 0 .3 0 .2.3l-.3 1.7c-.1 1.4.4 2.3 1.8 2.8 1.2.4 2.5.7 3.7.7a44.6 44.6 0 008.8-.5 3.4 3.4 0 002.6-3v-.4c.2-1.4-.2-2-1.4-2.7l-4.2-1.5-7.9-2.5-1-.4c-2-1-2.6-2.4-2.2-4.5.6-2.3 2.1-3.5 4.3-4a33.1 33.1 0 0113.3 0c2 .6 2.9 1.8 3 3.9 0 .8-.1 1.7-.3 2.5 0 .1-.1.2-.3.2h-1.7c-.3 0-.3-.1-.2-.3a9 9 0 00.3-2.2c0-1.2-.6-2-1.7-2.4-1.2-.4-2.5-.5-3.7-.6h-6c-1 .2-2.1.3-3.2.8a3.3 3.3 0 00-1.7 3.6 1.9 1.9 0 001 1.2l2.2.8a3497.7 3497.7 0 0011.7 4c1.5.8 2.1 2.1 2 3.8l-.3 1.5c-.4 1.9-1.6 3-3.5 3.6-1.5.5-3 .8-4.7.9l-2.8.1zM85.4 5.3l-2 11.3c-.3 1.1-.5 2.3-.6 3.4-.4 2.5.8 4.2 3.3 4.8 2.6.6 5.3.6 7.9 0a6 6 0 004.8-5.2l1.5-8.4 1-5.6c0-.2.1-.3.4-.3h1.9l-1.5 8.2-1 6.2a8.4 8.4 0 01-7 7c-3 .7-6.1.7-9 0-1.3-.4-2.5-1-3.4-2-1.2-1.4-1.4-3-1.2-4.8l1.8-10 .7-4.2c.1-.3.2-.4.5-.4h1.9zM67.2 26.7h-8.7c-.3 0-.3 0-.3-.3L61 10.9l1-5.3c0-.2 0-.3.3-.3h1.5c.4 0 .4 0 .4.4l-1 5-1.8 10.6-.6 3.2c0 .3 0 .4.3.4h15c.5 0 .5 0 .4.4 0 .5-.1.7-.3 1.4h-9zM25.5 35A9206.3 9206.3 0 0031.8.2c0-.1 0-.2.3-.2h1.6c.2 0 .2 0 .2.3a571.3 571.3 0 00-3.2 18L28.5 30l-.8 4.6c0 .2-.1.3-.3.3h-1.9zm12-21l-2.3 12.7H37c.4 0 .5 0 .5-.4l.6-3.1.7-4c0-.3.2-.3.5-.3H49l3-.3c2.6-.6 4.4-1.9 5.2-4.4.3-1.2.6-2.4.7-3.6.3-2.2-.7-3.8-2.8-4.6-1.3-.5-2.5-.7-3.8-.7h-12c-.2 0-.3 0-.4.3l-1.5 8.5zm2 3h9.3c1 0 1.9 0 2.8-.3 2-.4 3.3-1.4 3.7-3.4l.3-1.5a109.8 109.8 0 01.2-1.2c.1-1.6-.6-2.6-2.2-3-1.2-.4-2.4-.5-3.7-.5h-8.6c-.3 0-.4.1-.4.5l-1.6 9c-.1.4 0 .4.3.4z"/></symbol><symbol viewBox="0 0 82 82" id="s-plus-sign" xmlns="http://www.w3.org/2000/svg"><path d="M21.106 23.22H29.9a9.357 9.357 0 012.398.273c1.88.498 2.856 1.728 2.928 3.69.056 1.593-.352 3.125-.592 4.7-.127.851-.296 1.697-.433 2.548-.051.31-.145.47-.526.47-2.78-.025-5.56-.025-8.344 0-.432 0-.47-.103-.39-.508.188-.799.31-1.617.442-2.435.207-1.255-.14-1.739-1.41-1.936a3.85 3.85 0 00-.606-.07h-8.739c-.94 0-1.584.422-1.805 1.085a1.941 1.941 0 00.696 2.397c.453.334.954.599 1.485.785l14.694 5.754.155.061c2.257.917 2.896 1.88 2.539 4.292a59.498 59.498 0 01-1.223 6.345c-.817 3.042-2.585 4.485-5.725 4.753-.898.075-1.795.103-2.698.103H6.468c-.92.01-1.838-.089-2.736-.291C1.02 54.6-.188 53.012.024 50.253c.164-2.172.7-4.292 1.043-6.44.038-.235.155-.254.338-.254h8.626c.395 0 .31.217.273.433-.165.94-.339 1.88-.47 2.82-.212 1.307.24 1.88 1.56 1.956 2.985.127 5.97.047 8.96.042 1.114 0 1.72-.47 1.94-1.293.344-1.292.104-2.007-.94-2.66-1.254-.776-2.665-1.185-4.028-1.697-3.065-1.156-6.143-2.28-9.208-3.427a13.705 13.705 0 01-1.58-.724c-1.964-1.053-2.975-2.684-2.73-4.93A36.41 36.41 0 014.972 27.6c.785-2.646 2.68-3.901 5.321-4.23 1.439-.144 2.884-.2 4.33-.17l6.482.02zM73.71 40.072h-7.272c-.362 0-.498.075-.564.47-.729 4.324-1.49 8.644-2.219 12.969-.08.47-.211.705-.761.658a17.997 17.997 0 00-2.14 0c-.352 0-.403-.118-.347-.428.502-2.858.998-5.72 1.49-8.583.254-1.462.503-2.92.757-4.381.117-.687.113-.687-.602-.687H48.867c-.428 0-.592-.084-.554-.54a9.283 9.283 0 000-1.575c-.038-.437.112-.517.526-.517 4.602 0 9.204 0 13.806.028.535 0 .719-.131.808-.672.724-4.306 1.49-8.607 2.237-12.912.047-.264.137-.381.433-.376H68.6c.282 0 .334.07.282.357-.681 3.84-1.344 7.68-2.012 11.521-.103.592-.192 1.184-.305 1.772-.047.226 0 .31.244.296h14.093c.427 0 .601.08.559.545-.04.487-.04.976 0 1.462.038.47-.066.635-.592.626-2.388-.052-4.771-.033-7.16-.033zM36.274 65.995c.997-5.617 1.98-11.168 2.962-16.724 1.034-5.83 2.07-11.658 3.107-17.486.908-5.134 1.811-10.265 2.707-15.395.057-.315.184-.395.47-.385h2.2c.315 0 .358.084.301.39a6284.39 6284.39 0 00-3.05 17.152c-.96 5.425-1.917 10.85-2.873 16.278l-2.82 15.827c-.042.25-.113.357-.38.353-.838-.02-1.698-.01-2.624-.01z"/></symbol><symbol fill="none" viewBox="0 0 50 50" id="sagawa" xmlns="http://www.w3.org/2000/svg"><path d="M4.678 23.714a.757.757 0 00-.388-.58 1.478 1.478 0 00-.69-.152c-.595 0-.85.177-.85.48 0 1.274 4.703.492 4.703 3.584 0 1.982-1.576 2.941-3.83 2.941-2.157 0-3.575-1.312-3.623-2.852h2.57c.06.303.217.53.447.669.219.139.497.214.764.214.666 0 1.115-.227 1.115-.63 0-1.288-4.714-.405-4.714-3.662C.182 21.923 1.684 21 3.732 21c2.279 0 3.309 1.212 3.503 2.701l-2.557.013zm14.978 1.237l-.012 1.893h.897c-.085.682-.8 1.023-1.285 1.023-1.381 0-1.6-1.35-1.6-2.146 0-.58-.12-2.55 1.6-2.55.606 0 1.224.48 1.297.972h2.399c-.34-1.944-1.672-3.118-3.78-3.118-1.976 0-4.06 1.401-4.06 4.633 0 2.26 1.672 4.342 3.938 4.342.848 0 1.636-.29 2.23-.934v.707h1.817V24.95h-3.441zm22.552-3.724l-1.89 8.558h-2.921l-.8-4.506-.788 4.506h-2.932l-1.89-8.558h2.423l.97 5.302.981-5.302h2.472l.994 5.302.957-5.302h2.424zm-16.13 6.98h2.679l.484 1.566h2.4l-2.581-8.546h-3.284l-2.582 8.546h2.4l.484-1.565zm1.346-4.86l.787 2.967h-1.575l.788-2.966zm-17.426 4.86h2.678l.484 1.566h2.4l-2.57-8.546H9.708l-2.57 8.546h2.4l.46-1.565zm1.345-4.86l.787 2.967h-1.575l.788-2.966zm33.095 4.86h2.69l.473 1.566H50l-2.581-8.546h-3.284l-2.581 8.546h2.399l.485-1.565zm1.333-4.86l.787 2.967h-1.575l.788-2.966z" fill="#3B499F"/></symbol><symbol viewBox="0 0 140 17" id="salomon-inline" xmlns="http://www.w3.org/2000/svg"><path fill-rule="evenodd" clip-rule="evenodd" d="M25.475.148l-8.197 15.85h5.479l1.31-2.899h6.09l.522 2.9h5.478L32.991.149h-7.516zm-.046 9.918l3.374-6.655h.046l1.017 6.655H25.43zM45.217.148H39.94l-2.378 15.849h13.089l.543-3.804h-7.812L45.217.148zM89.639.148l-5.07 11.888h-.046L83.119.148h-6.726l-5.862 15.849h5.161L79.54 4.56h.046l1.222 11.436h6.25l4.756-11.163h.043l.793 11.163h5.275L96.545.148H89.64zM135.244.148l-1.788 11.615h-.044L128.386.148h-7.134l-2.376 15.849h5.025L125.44 4.63h.046l4.756 11.366h7.38L140 .148h-4.756zM71.5 5.775c.452-2.445-.218-3.917-1.653-4.777-1.434-.86-3.646-.996-6.295-.996s-4.913.136-6.68.996c-1.766.86-2.986 2.34-3.44 4.777l-.84 4.586c-.451 2.443.22 3.893 1.678 4.753 1.458.86 3.644 1.02 6.293 1.02 2.648 0 4.959-.16 6.703-1.02 1.745-.86 2.944-2.31 3.396-4.753l.838-4.586zm-5.367.437l-.747 3.828c-.498 2.513-1.561 2.76-4.301 2.76s-3.736-.218-3.239-2.76l.758-3.828c.5-2.513 1.653-2.74 4.302-2.74 2.797.002 3.703.25 3.227 2.74zM116.769 1.007c-1.45-.86-3.646-.996-6.295-.996-2.648 0-4.913.135-6.679.996-1.767.86-2.99 2.332-3.442 4.768l-.838 4.586c-.452 2.443.218 3.893 1.677 4.753 1.459.86 3.644 1.02 6.293 1.02s4.959-.16 6.701-1.02c1.743-.86 2.937-2.312 3.398-4.753l.836-4.586c.45-2.436-.225-3.908-1.651-4.768zm-3.712 5.207l-.738 3.828c-.498 2.513-1.563 2.76-4.301 2.76-2.738 0-3.736-.218-3.239-2.76l.736-3.83c.498-2.513 1.653-2.74 4.302-2.74 2.808.002 3.714.251 3.238 2.74l.002.002zM15.877 8.865L8.19 5.08c-1.246-.611-1.338-.86-1.224-1.428.067-.34.272-.522 1.11-.612.523-.045 1.497-.07 2.449-.07.59 0 1.338.025 1.723.049 1.384.09 1.541.292 1.36 1.2l-.27 1.361h4.919l.497-2.496C19.163 1.022 18.438 0 15.763 0H6.898C3.633 0 2.77.59 2.273 3.083l-.295 1.474c-.294 1.498.114 2.358 2.359 3.47l5.69 2.788c1.655.817 1.79 1.02 1.677 1.566-.09.476-.271.611-1.092.679a38.02 38.02 0 01-2.426.067c-1.293 0-1.965-.021-2.518-.113-.655-.114-.814-.408-.724-.86l.316-1.588H.55l-.454 2.267c-.454 2.268.68 3.288 3.627 3.288h8.89c3.172 0 3.93-.908 4.419-3.334l.316-1.542c.227-1.155.046-1.63-1.471-2.38z"/></symbol><symbol viewBox="0 0 62 61" id="salomon-monogram" xmlns="http://www.w3.org/2000/svg"><path d="M61.2 20.7v-11c0-7.5-1.6-9.2-9-9.4C43 0 42.4 0 31.3 0c-9.6 0-10 0-17 .2C3.6.3.8 2.2.8 10.4V19c0 5.3.3 5.9 7 9L33 40c7.7 3.7 8.1 4.2 8.1 5.8 0 1.6-.7 2-3.5 2.2a136.4 136.4 0 01-16.9-.1c-2.5-.4-3.3-.7-3.3-2.7v-6H0v10.2c0 8 2.4 10 14.4 10.4l16 .2c8 0 8.3 0 16.1-.2 12.4-.6 13.8-2.5 13.8-10.4v-8.8c0-4.2-.3-4.8-3.3-6.2L24.3 18.9c-5.2-2.5-5.6-3-5.6-4.7 0-1.6.6-2 3.6-2.4a119.7 119.7 0 0114.7 0c5.2.2 5.9.6 5.9 3.9v5H61z"/></symbol><symbol viewBox="0 0 419.63 38.31" id="salomon-tv" xmlns="http://www.w3.org/2000/svg"><g data-name="Calque 2"><g data-name="Calque 1"><path d="M60.4.35L41 37.93h13l3.12-6.88h14.39l1.23 6.88h13L78.22.35zm-.11 23.51l8-15.78h.1l2.42 15.78zM107.2.35H94.69l-5.63 37.57h31.02l1.29-9.01h-18.52L107.2.35zM212.52.35l-12.03 28.18h-.11L197.06.35h-15.94l-13.91 37.57h12.24l9.12-27.1h.11l2.9 27.1h14.82l11.27-26.46h.11l1.88 26.46h12.5L228.89.35h-16.37zM316.4 27.89h-.11L304.37.35h-16.91l-5.63 37.57h11.92l3.64-26.94h.11l11.28 26.94h17.49L331.91.35h-11.27l-4.24 27.54zM169.51 13.71c1.07-5.8-.54-9.28-3.92-11.32S157 0 150.67 0 139 .35 134.83 2.39s-7.08 5.52-8.15 11.32l-2 10.84c-1.07 5.8.54 9.24 4 11.28s8.64 2.41 14.92 2.41 11.76-.37 15.89-2.41 7-5.48 8.06-11.28zm-12.72 1L155 23.8c-1.18 6-3.71 6.55-10.2 6.55s-8.86-.53-7.68-6.55l1.77-9.07c1.19-6 3.92-6.49 10.2-6.49 6.68 0 8.83.59 7.7 6.49zM276.83 2.39C273.4.35 268.19 0 261.91 0s-11.65.33-15.83 2.37-7.08 5.54-8.16 11.34l-2 10.84c-1.07 5.8.54 9.24 4 11.28s8.64 2.41 14.93 2.41 11.75-.37 15.88-2.41 7-5.48 8.06-11.28l2-10.84c1.04-5.8-.57-9.28-3.96-11.32zM268 14.73l-1.77 9.07c-1.18 6-3.7 6.55-10.2 6.55s-8.86-.53-7.68-6.55l1.78-9.07c1.18-6 3.91-6.49 10.19-6.49 6.68 0 8.84.59 7.68 6.49zM37.64 21l-18.22-9c-3-1.45-3.17-2-2.9-3.39.16-.8.64-1.23 2.63-1.45C20.38 7.1 22.7 7 25 7c1.4 0 3.17.06 4.09.11 3.28.21 3.65.7 3.22 2.85l-.64 3.22h11.61l1.19-5.91c1-4.89-.76-7.31-7.1-7.31h-21c-7.74 0-9.78 1.4-11 7.31l-.7 3.49C4 14.35 5 16.39 10.28 19l13.49 6.61c3.93 1.93 4.25 2.42 4 3.71-.22 1.13-.65 1.45-2.58 1.61-1.51.11-3.76.16-5.75.16a37.77 37.77 0 01-6-.27c-1.56-.27-1.93-1-1.72-2l.75-3.76H1.3L.23 30.42c-1.08 5.38 1.61 7.8 8.6 7.8H29.9c7.52 0 9.3-2.15 10.48-7.91l.75-3.65c.54-2.74.11-3.87-3.49-5.66zM343.7 6.76h13.06l-5.5 31.55h7.51L365.4.55h-20.77l-.93 6.21zM369.18 6.9h8.12l1.26-6.35h-8.31l-1.07 6.35zM380.94.55l7.28 37.67h7.42L388.69.55h-7.75zM411.51.55L398.25 25.8l1.92 10.36L419.63.55h-8.12z"/></g></g></symbol><symbol viewBox="0 0 50 50" id="search" xmlns="http://www.w3.org/2000/svg"><path fill-rule="evenodd" clip-rule="evenodd" d="M31.745 20.37c0 6.11-5.016 11.07-11.21 11.07-6.195 0-11.211-4.96-11.211-11.07S14.34 9.3 20.534 9.3c6.195 0 11.21 4.96 11.21 11.07zm-11.21 13.67c3.226 0 6.195-1.093 8.549-2.923L40.02 41.921a1.32 1.32 0 001.853 0l.041-.041a1.291 1.291 0 000-1.84l-10.89-10.758a13.523 13.523 0 003.345-8.912c0-7.553-6.198-13.67-13.835-13.67C12.897 6.7 6.7 12.817 6.7 20.37s6.197 13.67 13.834 13.67zm6.03-1.698a13.58 13.58 0 002.542-1.626l.04.042a1.081 1.081 0 01-.04-.042c-.78.63-1.631 1.177-2.542 1.626zm6.085-6.006a13.391 13.391 0 01-2.039 2.96l.009.008-.009-.009a13.391 13.391 0 002.039-2.96zM9.266 22.7a11.285 11.285 0 01-.242-2.33C9.024 14.09 14.177 9 20.534 9c-6.357 0-11.51 5.09-11.51 11.37 0 .798.083 1.578.242 2.33z"/></symbol><symbol fill="none" viewBox="0 0 18 23" id="share" xmlns="http://www.w3.org/2000/svg"><path d="M14.543 7.788H11.88a.38.38 0 100 .76h2.662c.419 0 .76.342.76.761v11.318c0 .42-.341.76-.76.76H2.373a.762.762 0 01-.76-.76V9.309c0-.419.34-.76.76-.76h2.662a.38.38 0 100-.76H2.373c-.838 0-1.52.682-1.52 1.52v11.318c0 .838.682 1.521 1.52 1.521h12.17c.838 0 1.52-.683 1.52-1.521V9.309c0-.838-.682-1.52-1.52-1.52z" fill="#000" stroke="#000" stroke-width=".75"/><path d="M4.924 5.304l3.153-3.153v11.068a.38.38 0 10.76 0V2.15l3.155 3.153a.378.378 0 00.538 0 .381.381 0 000-.538L8.727.963A.388.388 0 008.67.916c-.01-.007-.02-.01-.03-.017A.322.322 0 008.604.88L8.566.87C8.555.866 8.544.86 8.533.859a.334.334 0 00-.069-.006h-.011a.417.417 0 00-.069.006c-.011.002-.021.007-.033.01L8.313.88c-.012.005-.024.013-.036.02-.01.005-.02.009-.03.016a.393.393 0 00-.057.046L4.386 4.766a.381.381 0 00.538.538z" fill="#000" stroke="#000" stroke-width=".75"/></symbol><symbol viewBox="0 0 50 50" id="shipping" xmlns="http://www.w3.org/2000/svg"><path fill-rule="evenodd" clip-rule="evenodd" d="M5 6.952C5 6.426 5.426 6 5.952 6h5.08c.526 0 .952.426.952.952v28.35a4.767 4.767 0 013.714 3.714h28.35a.952.952 0 110 1.905h-28.35a4.764 4.764 0 01-9.428-.953 4.764 4.764 0 013.81-4.666V7.905H5.951A.952.952 0 015 6.952zm8.889 33.016a2.857 2.857 0 10-5.714 0 2.857 2.857 0 005.714 0zm4.76-23.174h24.446v-4.445H17.064v4.445h1.585zm23.811 1.904h1.588a.952.952 0 00.952-.952v-6.35a.952.952 0 00-.952-.952H16.11a.952.952 0 00-.952.953v6.349c0 .526.426.952.952.952h1.587v16.19c0 .527.427.953.953.953h22.857a.952.952 0 00.952-.952v-16.19zm-1.904 0v15.239H19.603V18.698h20.953z"/></symbol><symbol viewBox="0 0 50 50" id="shoe" xmlns="http://www.w3.org/2000/svg"><path d="M47.963 32.084c-.06-.182-.121-.364-.304-.486.304-.972.608-2.734-.243-4.375-.668-1.215-2.43-1.64-4.375-2.066-.79-.182-1.58-.364-2.188-.547-2.005-.729-4.07-1.58-5.712-2.795l-.06-.06c-.122-.062-9.42-5.652-11.789-7.84-.06-.06-.06-.06-.122-.06-.121-.061-2.309-1.459-4.314-.547-1.398.668-2.309 2.187-2.674 4.557-.06.061-.182.061-.182.122-1.337.607-4.679 1.823-5.712.182-.06-.06-.85-1.58-1.397-2.37-.426-.607-1.398-1.215-2.431-1.094-.79.122-1.823.669-2.491 2.553-.061.303-2.188 7.474.06 14.644 0 .06-.06.06-.06.122-.304 1.337-.244 4.01 2.126 4.557H42.86c1.64-.243 3.706-1.094 4.618-2.37.425-.668.608-1.397.486-2.127zm-12.76-8.325c-.487.365-1.277.79-2.128.426-.243-.06-.547-.243-.911-.365l1.033-1.337c.547.304.911.547 1.033.608.364.243.668.425.972.668zm-6.564-1.944l1.216-1.458c.729.486 1.458.911 2.066 1.337l-1.094 1.458c-.668-.425-1.398-.85-2.188-1.337zm-3.342-2.248l1.216-1.398c.668.425 1.336.912 2.005 1.337l-1.215 1.458c-.608-.425-1.337-.911-2.006-1.397zm-5.833-4.862c1.154-.546 2.552.243 2.795.426.668.607 1.701 1.397 2.917 2.248l-1.155 1.276c-2.37-1.884-3.646-2.37-5.347-2.005-.243.06-.486.182-.79.304.425-1.155.911-1.945 1.58-2.249zM5.427 17.744c.304-.912.73-1.459 1.215-1.52.426-.06.79.244.972.426.487.73 1.277 2.248 1.337 2.309 2.127 3.342 8.021.304 8.264.182.061-.06.183-.121.244-.182.668-.365 1.336-.73 1.64-.79.912-.182 1.702-.182 4.01 1.64-.303.304-.242.79.061 1.095a.69.69 0 00.487.182c.182 0 .425-.061.547-.243l.06-.061c.669.486 1.337.972 2.066 1.458-.243.304-.182.79.122 1.033a.69.69 0 00.486.183c.243 0 .425-.122.608-.243l.121-.122c.79.486 1.58.972 2.249 1.337-.183.304-.122.73.182.911a.69.69 0 00.486.183c.243 0 .425-.122.608-.304l.06-.122c.486.243.973.426 1.337.547.426.122.79.243 1.155.243 1.397 0 2.491-.911 2.917-1.276 1.215.608 2.491 1.094 3.706 1.52.73.242 1.52.425 2.37.607 1.337.304 3.038.668 3.342 1.276.73 1.337.243 2.917.061 3.524H27.303l1.762-5.225c.121-.304 0-.608-.243-.851-.243-.182-.608-.243-.85-.06l-3.586 2.004 1.884-2.673c.182-.243.182-.608 0-.912-.183-.243-.547-.364-.851-.304l-5.165 1.641 2.734-2.066a.774.774 0 00.243-.911c-.121-.304-.486-.487-.85-.426l-12.275 2.674-5.47-2.248c.244-2.613.79-4.436.79-4.436zm.06 13.733c-.85-2.674-1.032-5.408-.972-7.657l18.534 7.657H5.488zm20.357-.486l-2.795-1.155 3.889-2.188-1.094 3.343zm-4.557-1.884l-3.646-1.52 6.076-1.944-2.43 3.464zm-5.53-2.43l-.121.12-3.1-1.275 6.685-1.459-3.464 2.613zM46.201 33.3c-.669.911-2.248 1.58-3.585 1.762H6.338c-.972-.304-1.033-1.398-.972-2.127h41.078c-.06.182-.122.304-.243.365z"/></symbol><symbol viewBox="0 0 39 39" id="showcase" xmlns="http://www.w3.org/2000/svg"><path d="M37.3.7h-3a.8.8 0 100 1.5h1.5a.8.8 0 01.8.8v1.5a.8.8 0 101.5 0v-3a.8.8 0 00-.8-.8zm0 33a.8.8 0 00-.7.8V36a.8.8 0 01-.8.8h-1.5a.8.8 0 000 1.6h3a.8.8 0 00.8-.8v-3a.8.8 0 00-.8-.9zM1.2 5.3a.8.8 0 00.8-.8V3a.8.8 0 01.8-.8h1.5a.8.8 0 000-1.6H1.2a.8.8 0 00-.8.8v3.1a.8.8 0 00.8.8zm3.1 31.5H2.8A.8.8 0 012 36v-1.5a.8.8 0 00-1.6 0v3a.8.8 0 00.8.9h3a.8.8 0 100-1.6zm29.6-9.3v-16a.8.8 0 00-.4-.7l-13.8-8a.8.8 0 00-.8 0L5 10.9a.8.8 0 00-.4.7v16a.8.8 0 00.4.7l13.8 8a.8.8 0 00.8 0l13.8-8a.8.8 0 00.4-.7zm-1.6-.5l-12.2 7.1v-6.6a.8.8 0 00-1.6 0v6.6l-12.3-7V12.8l5.7 3.3a.8.8 0 00.8-1.4L7 11.5l12.3-7 12.2 7-5.6 3.3a.8.8 0 00.8 1.4l5.6-3.3V27z"/><path d="M17.8 20.5c.5-.2.6-.6.6-1.2 0-1-.4-1.6-2.6-1.6h-2.1V19h2c.8 0 1 0 1 .5 0 .4-.1.5-.6.5h-1.2v1.2h1.2c.5 0 .7.1.7.5 0 .3-.3.5-1 .5h-2.1v1.3h2.2c2.2 0 2.6-.8 2.6-1.7 0-.8-.3-1.2-.7-1.3zm4.3-2.8h-2.7v5.8h2.7c1.3 0 2.5-.4 2.5-2.1v-1.6c0-1.8-1.2-2-2.5-2zm1 3.5c0 .9-.4 1-1.3 1H21V19h.8c.8 0 1.2.1 1.2 1v1.2z"/></symbol><symbol viewBox="0 0 23 21" id="skills" xmlns="http://www.w3.org/2000/svg"><path d="M22.241 4.452c-.043 0-.524-.262-1.44-.48V.524A.504.504 0 0020.277 0h-.873c-5.326 0-7.42 3.361-8.076 4.933-.829-.568-2.488-1.44-4.976-1.44-3.58 0-5.412.916-5.456.96a.537.537 0 00-.306.48v14.492c0 .174.088.349.262.436a.73.73 0 00.524.044c.087-.044 1.746-.83 4.976-.83 3.187 0 4.845 1.572 4.845 1.616a.553.553 0 00.393.174c.088 0 .131 0 .219-.044.043 0 .087-.043.087-.043l.087-.087s1.615-1.616 4.845-1.616c3.274 0 4.977.83 4.977.83.174.087.349.087.523-.044.175-.087.262-.262.262-.48V4.933a.676.676 0 00-.349-.48zm-15.54.175v3.929l-.96-.655c-.087-.044-.174-.088-.262-.088-.087 0-.174.044-.262.088l-.96.655V4.758a14.95 14.95 0 012.095-.131c.131-.044.262-.044.35 0zm4.322 14.623c-.96-.567-2.488-1.222-4.67-1.222-2.314 0-3.886.393-4.671.655V5.282c.305-.131.829-.306 1.615-.437v4.54c0 .13.043.262.13.35a.496.496 0 00.35.13c.087 0 .174-.044.262-.087l1.484-.917 1.484.917a.424.424 0 00.393.043c.13-.043.218-.13.305-.218.044-.087.088-.174.088-.262V4.714c1.833.262 2.924 1.048 3.317 1.353V19.25h-.087zm1.091-13.357c.175-.568 1.572-4.802 7.29-4.802h.349v13.445h-.35c-3.971 0-6.154 1.877-7.289 3.535V5.893zm9.341 12.746c-.785-.262-2.357-.655-4.67-.655-1.746 0-3.1.437-3.972.83.873-1.354 2.75-3.274 6.59-3.274h.874a.53.53 0 00.524-.524V5.063c.305.088.524.175.654.219v13.357z"/></symbol><symbol viewBox="0 0 50 50" id="skis" xmlns="http://www.w3.org/2000/svg"><path d="M20.59 0c-1.4 0-2.394.993-2.98 2.98-.497 1.67-.61 3.724-.61 5.146v.226c.135 3.364.429 11.58.451 15.643a545.6 545.6 0 01-.067 6.976l-.068 3.43v.046c-.09 3.883-.18 8.059-.316 11.76v.204A3.584 3.584 0 0020.59 50c.947 0 1.85-.384 2.527-1.06a3.586 3.586 0 001.061-2.552v-.135a781.198 781.198 0 01-.293-11.806v-.045l-.068-3.431a545.6 545.6 0 01-.068-6.976c0-3.837.271-11.4.43-15.575v-.294c0-5.395-1.197-8.126-3.59-8.126zm-1.445 23.973v-.564l1.467-1.829 1.467 1.829v.564c0 1.332.023 3.34.068 6.004h-3.07c.045-2.663.067-4.672.067-6.004zm3.34-15.689c-.113 2.641-.316 7.698-.406 12.46l-.655-.812a1.106 1.106 0 00-.835-.406 1.07 1.07 0 00-.835.406l-.655.813c-.09-4.989-.316-10.361-.406-12.483v-.158c0-3.77.79-6.411 1.896-6.411.452 0 1.896.451 1.896 6.388v.203zm-.745 27.292c-.293.316-.7.474-1.128.474-.43 0-.835-.18-1.129-.474a1.534 1.534 0 01-.451-1.107c.022-.948.045-1.896.045-2.799h3.092c.023.926.023 1.851.045 2.8a1.766 1.766 0 01-.474 1.106zm-3.047 10.722c.09-2.528.18-5.711.248-8.984a3.229 3.229 0 003.296 0c.09 4.47.203 7.54.248 9.007v.09a1.908 1.908 0 01-1.896 1.896c-1.038 0-1.896-.835-1.896-1.874v-.135zM35.623 34.447v-.045l-.068-3.431a547.04 547.04 0 01-.067-6.976c0-3.837.27-11.4.428-15.575v-.316c0-3.025-.451-8.104-3.589-8.104-1.196 0-2.122.7-2.708 2.1-.587 1.354-.88 3.385-.88 6.026v.226c.135 3.341.428 11.58.428 15.62 0 1.468-.023 3.816-.068 6.976l-.067 3.431v.045c-.068 3.883-.181 8.06-.294 11.761v.203a3.584 3.584 0 003.59 3.59c.947 0 1.85-.384 2.527-1.062a3.586 3.586 0 001.062-2.55v-.136a767.67 767.67 0 01-.294-11.783zm-4.74-10.474v-.564l1.467-1.829 1.467 1.829v.564c0 1.332.023 3.34.068 6.004h-3.07a388.5 388.5 0 00.068-6.004zm3.34-15.689c-.112 2.641-.316 7.698-.406 12.46l-.654-.812a1.106 1.106 0 00-.836-.406c-.316 0-.632.158-.835.406l-.655.813c-.09-4.989-.316-10.361-.406-12.483v-.158c0-5.96 1.445-6.411 1.896-6.411 1.129 0 1.897 2.619 1.897 6.388v.203zm-.744 27.292c-.294.316-.7.474-1.13.474-.428 0-.834-.18-1.128-.474a1.534 1.534 0 01-.451-1.107c.022-.948.045-1.896.045-2.799h3.092c.023.926.023 1.851.046 2.8a1.767 1.767 0 01-.474 1.106zM30.43 46.298c.09-2.528.18-5.711.248-8.984a3.229 3.229 0 003.296 0c.09 4.47.203 7.54.248 9.007v.09a1.908 1.908 0 01-1.896 1.896c-1.038 0-1.896-.835-1.896-1.874v-.135z"/></symbol><symbol viewBox="0 0 32 32" id="smiley" xmlns="http://www.w3.org/2000/svg"><path d="M25.024 7.104c-4.928-4.864-13.12-4.864-18.048 0s-4.928 12.864 0 17.728 13.12 4.864 18.048 0 4.928-12.736 0-17.728zm-1.408 16.448c-4.16 4.096-11.136 4.096-15.296 0s-4.16-10.944 0-15.04 11.136-4.096 15.296 0 4.16 10.944 0 15.04zM11.2 12.672c0-.896.704-1.408 1.472-1.408.896 0 1.472.704 1.472 1.408 0 .896-.704 1.408-1.472 1.408s-1.472-.512-1.472-1.408zm6.72 0c0-.896.704-1.408 1.472-1.408.896 0 1.472.704 1.472 1.408 0 .896-.704 1.408-1.472 1.408s-1.472-.512-1.472-1.408zm3.52 6.08c-.896 2.176-3.072 3.392-5.44 3.392-2.56 0-4.736-1.408-5.44-3.392-.192-.384 0-.704.384-.896h.384c.384 0 .576.192.704.384.704 1.6 2.368 2.688 4.16 2.688s3.456-1.088 4.16-2.688c.192-.384.576-.512.896-.384.192 0 .32.512.192.896z"/></symbol><symbol viewBox="0 0 32 32" id="social-facebook" xmlns="http://www.w3.org/2000/svg"><path d="M19 6h5V0h-5c-3.86 0-7 3.14-7 7v3H8v6h4v16h6V16h5l1-6h-6V7c0-.542.458-1 1-1z"/></symbol><symbol viewBox="0 0 24 24" id="social-google" xmlns="http://www.w3.org/2000/svg"><path fill="#4285F4" d="M23.745 12.27c0-.79-.07-1.54-.19-2.27h-11.3v4.51h6.47c-.29 1.48-1.14 2.73-2.4 3.58v3h3.86c2.26-2.09 3.56-5.17 3.56-8.82z"/><path fill="#34A853" d="M12.255 24c3.24 0 5.95-1.08 7.93-2.91l-3.86-3c-1.08.72-2.45 1.16-4.07 1.16-3.13 0-5.78-2.11-6.73-4.96h-3.98v3.09C3.515 21.3 7.565 24 12.255 24z"/><path fill="#FBBC05" d="M5.525 14.29c-.25-.72-.38-1.49-.38-2.29s.14-1.57.38-2.29V6.62h-3.98a11.86 11.86 0 000 10.76l3.98-3.09z"/><path fill="#EA4335" d="M12.255 4.75c1.77 0 3.35.61 4.6 1.8l3.42-3.42C18.205 1.19 15.495 0 12.255 0c-4.69 0-8.74 2.7-10.71 6.62l3.98 3.09c.95-2.85 3.6-4.96 6.73-4.96z"/></symbol><symbol viewBox="0 0 21 20" id="social-instagram" xmlns="http://www.w3.org/2000/svg"><path fill-rule="evenodd" clip-rule="evenodd" d="M10.5 1.795a30.6 30.6 0 013.992.11 5.143 5.143 0 011.884.334 3.894 3.894 0 011.885 1.884c.228.602.341 1.242.333 1.885 0 .998.111 1.331.111 3.992.05 1.331.013 2.665-.11 3.992a5.143 5.143 0 01-.334 1.884 3.894 3.894 0 01-1.885 1.885 5.143 5.143 0 01-1.885.333c-.997 0-1.33.111-3.991.111-1.332.05-2.665.013-3.992-.11a5.142 5.142 0 01-1.885-.334 3.894 3.894 0 01-1.884-1.885 5.143 5.143 0 01-.333-1.884c0-.998-.111-1.332-.111-3.992a30.599 30.599 0 01.11-3.992 5.143 5.143 0 01.334-1.885c.193-.41.455-.786.776-1.109.26-.387.655-.664 1.108-.775a5.143 5.143 0 011.885-.333 30.599 30.599 0 013.992-.111zm0-1.774a32.76 32.76 0 00-4.103.11A6.846 6.846 0 003.96.576a4.34 4.34 0 00-1.774 1.109 4.34 4.34 0 00-1.11 1.775 5.052 5.052 0 00-.443 2.438A32.761 32.761 0 00.52 10a32.761 32.761 0 00.11 4.102c-.001.834.15 1.66.445 2.44.22.673.6 1.282 1.109 1.774.492.509 1.1.89 1.774 1.11a6.865 6.865 0 002.44.443c1.363.122 2.733.159 4.1.11a32.76 32.76 0 004.103-.111 6.848 6.848 0 002.44-.444 4.65 4.65 0 002.883-2.883c.295-.78.446-1.606.444-2.44-.001-1.107.11-1.44.11-4.101a32.759 32.759 0 00-.111-4.103 6.848 6.848 0 00-.444-2.44 4.34 4.34 0 00-1.11-1.773A4.34 4.34 0 0017.04.574a6.846 6.846 0 00-2.439-.442A32.762 32.762 0 0010.5.02zm0 4.878A5.018 5.018 0 005.4 10a5.1 5.1 0 105.1-5.1zm0 8.428A3.267 3.267 0 017.173 10 3.267 3.267 0 0110.5 6.673 3.267 3.267 0 0113.827 10a3.267 3.267 0 01-3.327 3.327zm5.322-9.868a1.22 1.22 0 101.22 1.22 1.23 1.23 0 00-1.22-1.22z"/></symbol><symbol viewBox="0 0 18 17" id="social-instagram-filled" xmlns="http://www.w3.org/2000/svg"><path d="M4.533 0C1.983 0 0 1.983 0 4.533v8.028C0 15.017 1.983 17 4.533 17h8.028c2.456 0 4.533-1.983 4.533-4.533V4.533C17 1.983 15.017 0 12.467 0H4.533zm9.445 2.078a1.25 1.25 0 011.228 1.228 1.25 1.25 0 01-1.228 1.227 1.25 1.25 0 01-1.228-1.227 1.25 1.25 0 011.228-1.228zM8.5 3.306c2.833 0 5.194 2.36 5.194 5.194 0 2.833-2.36 5.194-5.194 5.194-2.833 0-5.194-2.36-5.194-5.194 0-2.833 2.36-5.194 5.194-5.194zm0 1.888c-1.794 0-3.306 1.512-3.306 3.306s1.512 3.306 3.306 3.306 3.306-1.512 3.306-3.306S10.294 5.194 8.5 5.194z"/></symbol><symbol viewBox="0 0 32 32" id="social-linkedin" xmlns="http://www.w3.org/2000/svg"><path d="M27.52 18.624v8.768h-4.864V19.2c0-2.048-.704-3.52-2.496-3.52a2.612 2.612 0 00-2.496 1.856c-.128.384-.192.832-.128 1.216v8.576h-4.864V11.904h4.864v2.24c.896-1.6 2.56-2.624 4.416-2.56 3.136.064 5.568 2.304 5.568 7.04zM7.488 4.544c-1.472-.256-2.816.768-3.072 2.176-.256 1.472.704 2.88 2.176 3.136.256.064.576.064.832 0a2.689 2.689 0 003.2-2.048 2.689 2.689 0 00-2.048-3.2c-.384-.064-.768-.064-1.088-.064zM4.992 27.392h4.864v-15.36H4.992v15.36z"/></symbol><symbol viewBox="0 0 64 64" id="social-strava" xmlns="http://www.w3.org/2000/svg"><path d="M41 47.9l-5.5-11h-8.2L41 64l13.8-27.1h-8.2M27.9 22l7.6 14.9h11L28 0 9.2 36.9h11.2"/></symbol><symbol viewBox="0 0 448 512" id="social-tiktok" xmlns="http://www.w3.org/2000/svg"><path d="M448 210a210 210 0 01-122.8-39.3v178.7a162.6 162.6 0 11-140.2-161v89.8a74.6 74.6 0 1052.2 71.2V0h88a121.2 121.2 0 001.9 22.2 122.2 122.2 0 0053.9 80.2 121.4 121.4 0 0067 20.1z"/></symbol><symbol viewBox="0 0 32 32" id="social-twitter" xmlns="http://www.w3.org/2000/svg"><path d="M32 7.075a12.941 12.941 0 01-3.769 1.031 6.601 6.601 0 002.887-3.631 13.21 13.21 0 01-4.169 1.594A6.565 6.565 0 0022.155 4a6.563 6.563 0 00-6.563 6.563c0 .512.056 1.012.169 1.494A18.635 18.635 0 012.23 5.195a6.56 6.56 0 00-.887 3.3 6.557 6.557 0 002.919 5.463 6.565 6.565 0 01-2.975-.819v.081a6.565 6.565 0 005.269 6.437 6.574 6.574 0 01-2.968.112 6.588 6.588 0 006.131 4.563 13.17 13.17 0 01-9.725 2.719 18.568 18.568 0 0010.069 2.95c12.075 0 18.681-10.006 18.681-18.681 0-.287-.006-.569-.019-.85A13.216 13.216 0 0032 7.076z"/></symbol><symbol viewBox="0 0 20 20" id="social-website" xmlns="http://www.w3.org/2000/svg"><path d="M10 .2a9.8 9.8 0 100 19.6A9.8 9.8 0 0010 .2zm5.9 8h-.7c-1-.2-2-.3-2.9-.2-.7.1-1.2.4-1.5 1-.2.2-1 1.6-.4 2.5l.6 1h2c.4 0 .5 0 .6.2l.2.4.1.6.2.2c.2.2.3.3.3.6l-.2.4c0 .2-.1.5 0 .8 0 .3 0 .5.2.7l.2.6v.4a8.6 8.6 0 01-7 1l.1-.3a1.5 1.5 0 00.5-1l.3-.4.2-.2c.3-.2.5-.3.5-.7 0-.5.1-.6.4-1 .2-.3.2-.6.1-.8 0-.3-.5-.5-.9-.6l-.5-.2-.6-.5a6.4 6.4 0 00-.9-.7l-.4-.3c-.4-.3-1.3-.7-2-.7a1 1 0 00-.6.2c-.2.2-.3.5-.3.8v.3l-.2.2c-.1.4-.3.8-.1 1.3.1.5.5.9 1 1.2l.7.8.1 1v.3A8.7 8.7 0 011.4 10v-.6l.4-.2L2 9h1.1c.3-.1.8-.3 1.3-.7l.3-.5.3-.3c.4-.5 1-.7 1.6-1l.8-.2c.4-.2.7-.7.8-1.2 0-.3 0-.7-.3-1-.4-.3-.8-.4-1.5-.1h-.1l-.4.2V3.6c0-.2.1-.5 0-.8l-.1-.4-.1-.1c.9-.5 1.8-.8 2.9-1l.2.3v.1c.4.4.5.6.6 1v.6c-.1.5-.2 1.2.7 1.5h.3a.5.5 0 00.6-.5v-.5c0-.3 0-.3.2-.4l.4-.1c.3 0 .5-.2.8-.4.4-.3.4-1 .3-1.3 1.1.4 2.1 1 3 1.7l-.5-.1c-.5-.1-.9 0-1.2.1-.6.3-.5.8-.5 1V5l-.6.2h-.2c-.5.1-.8.3-.9.6 0 .3 0 .6.2.8.2.3.6.5 1 .5h.5c.7-.2 2.4.2 2.4 1z"/></symbol><symbol viewBox="0 0 32 32" id="social-youtube" xmlns="http://www.w3.org/2000/svg"><path d="M31.681 9.6s-.313-2.206-1.275-3.175C29.187 5.15 27.825 5.144 27.2 5.069c-4.475-.325-11.194-.325-11.194-.325h-.012s-6.719 0-11.194.325c-.625.075-1.987.081-3.206 1.356C.631 7.394.325 9.6.325 9.6s-.319 2.588-.319 5.181v2.425c0 2.587.319 5.181.319 5.181s.313 2.206 1.269 3.175c1.219 1.275 2.819 1.231 3.531 1.369 2.563.244 10.881.319 10.881.319s6.725-.012 11.2-.331c.625-.075 1.988-.081 3.206-1.356.962-.969 1.275-3.175 1.275-3.175s.319-2.587.319-5.181v-2.425c-.006-2.588-.325-5.181-.325-5.181zM12.694 20.15v-8.994l8.644 4.513-8.644 4.481z"/></symbol><symbol viewBox="0 0 20 21" id="store" xmlns="http://www.w3.org/2000/svg"><circle cx="10" cy="8.5" r="1.6"/><path d="M15.1 6.3c-.3-.7-.6-1.3-1.2-1.8a5.7 5.7 0 00-6-1.2A5 5 0 006 4.5c-.6.5-1 1.1-1.3 1.8a5 5 0 00-.4 2c0 3 2.9 7 4.6 9 .2.3.6.5 1 .5s.8-.2 1-.5c1.8-2 4.6-6 4.6-9a6 6 0 00-.5-2zm-5-2.2c.5 0 1 0 1.6.3.5.2 1 .5 1.4.9.5.4.8.9 1 1.4.2.5.4 1 .4 1.6 0 1.1-.6 2.6-1.6 4.3l-2.8 4H10c-.8-1-1.9-2.4-2.8-4a9.7 9.7 0 01-1.5-4.3A4.3 4.3 0 0110 4.1h.1z"/></symbol><symbol viewBox="0 0 28 28" fill="none" id="terrain" xmlns="http://www.w3.org/2000/svg"><path d="M6.45 20.272a.304.304 0 01-.25-.48l5.83-8.214a.305.305 0 01.497.352l-5.829 8.213a.304.304 0 01-.248.128v.001zM20.831 20.272a.303.303 0 01-.248-.129l-5.83-8.212a.304.304 0 11.497-.352l5.829 8.212a.304.304 0 01-.248.481zM3.315 18.895a.304.304 0 01-.208-.526l7.696-7.216-2.51-2.464c-.029-.023-.084-.023-.11.002l-1.87 1.721a.306.306 0 01-.394.016l-.826-.648a.136.136 0 00-.05.002l-3.717 2.614a.305.305 0 01-.35-.498l3.736-2.626a.699.699 0 01.7-.012c.011.006.022.013.031.021l.648.508L7.77 8.243a.696.696 0 01.94 0l.006.006 2.742 2.69a.305.305 0 01-.005.44l-7.929 7.434a.305.305 0 01-.208.082zM23.964 18.896a.303.303 0 01-.208-.083l-7.929-7.432a.305.305 0 01-.005-.44l2.742-2.69.007-.007a.696.696 0 01.94 0l1.676 1.546.648-.508a.318.318 0 01.031-.022.7.7 0 01.7.012l3.605 2.532a.305.305 0 01-.35.499l-3.588-2.52a.15.15 0 00-.05 0l-.824.646a.305.305 0 01-.394-.015l-1.868-1.722c-.027-.025-.083-.025-.111-.002l-2.51 2.464 7.696 7.216a.304.304 0 01-.208.526zM13.973 12.185h-.61v.426h.61v-.426zM13.973 13.134h-.61v.66h.61v-.66zM13.973 14.652h-.61v1.16h.61v-1.16zM13.973 17.471h-.61v2.563h.61V17.47z" fill="#000"/><path d="M6.45 20.272a.304.304 0 01-.25-.48l5.83-8.214a.305.305 0 01.497.352l-5.829 8.213a.304.304 0 01-.248.128v.001zM20.831 20.272a.303.303 0 01-.248-.129l-5.83-8.212a.304.304 0 11.497-.352l5.829 8.212a.304.304 0 01-.248.481zM3.315 18.895a.304.304 0 01-.208-.526l7.696-7.216-2.51-2.464c-.029-.023-.084-.023-.11.002l-1.87 1.721a.306.306 0 01-.394.016l-.826-.648a.136.136 0 00-.05.002l-3.717 2.614a.305.305 0 01-.35-.498l3.736-2.626a.699.699 0 01.7-.012c.011.006.022.013.031.021l.648.508L7.77 8.243a.696.696 0 01.94 0l.006.006 2.742 2.69a.305.305 0 01-.005.44l-7.929 7.434a.305.305 0 01-.208.082zM23.964 18.896a.303.303 0 01-.208-.083l-7.929-7.432a.305.305 0 01-.005-.44l2.742-2.69.007-.007a.696.696 0 01.94 0l1.676 1.546.648-.508a.318.318 0 01.031-.022.7.7 0 01.7.012l3.605 2.532a.305.305 0 01-.35.499l-3.588-2.52a.15.15 0 00-.05 0l-.824.646a.305.305 0 01-.394-.015l-1.868-1.722c-.027-.025-.083-.025-.111-.002l-2.51 2.464 7.696 7.216a.304.304 0 01-.208.526zM13.973 12.185h-.61v.426h.61v-.426zM13.973 13.134h-.61v.66h.61v-.66zM13.973 14.652h-.61v1.16h.61v-1.16zM13.973 17.471h-.61v2.563h.61V17.47z" stroke="#000" stroke-width=".227"/></symbol><symbol fill="none" viewBox="0 0 24 28" id="thin-account" xmlns="http://www.w3.org/2000/svg"><g clip-path="url(#dtclip0_1539_26529)" fill="#000"><path d="M9.623 13.795c-2.437 0-4.423-1.972-4.423-4.392V5.391C5.2 2.971 7.186 1 9.623 1h3.937c2.437 0 4.423 1.972 4.423 4.391v4.012c0 2.42-1.986 4.392-4.423 4.392H9.623zm0-11.919c-1.952 0-3.54 1.578-3.54 3.515v4.012c0 1.938 1.588 3.515 3.54 3.515h3.937c1.951 0 3.54-1.577 3.54-3.515V5.391c0-1.937-1.589-3.515-3.54-3.515H9.623zM0 28v-6.846c0-2.531 2.05-4.594 4.564-4.594h14.792c2.515 0 4.564 2.063 4.564 4.594V28H0zm4.564-10.523c-2.014 0-3.653 1.65-3.653 3.677v5.93h22.098v-5.93c0-2.027-1.64-3.677-3.653-3.677H4.564z"/></g><defs><clipPath id="dtclip0_1539_26529"><path fill="#fff" d="M0 0h24v28H0z"/></clipPath></defs></symbol><symbol fill="none" viewBox="0 0 33 32" id="thin-account-online" xmlns="http://www.w3.org/2000/svg"><g clip-path="url(#duclip0_1539_26533)"><g clip-path="url(#duclip1_1539_26533)" fill="#000"><path d="M11.623 13.795c-2.437 0-4.423-1.972-4.423-4.392V5.391C7.2 2.971 9.186 1 11.623 1h3.937c2.437 0 4.423 1.972 4.423 4.391v4.012c0 2.42-1.986 4.392-4.423 4.392h-3.937zm0-11.919c-1.952 0-3.54 1.578-3.54 3.515v4.012c0 1.938 1.588 3.515 3.54 3.515h3.937c1.951 0 3.54-1.577 3.54-3.515V5.391c0-1.937-1.589-3.515-3.54-3.515h-3.937zM2 28v-6.846c0-2.531 2.05-4.594 4.564-4.594h14.792c2.515 0 4.564 2.063 4.564 4.594V28H2zm4.564-10.523c-2.014 0-3.653 1.65-3.653 3.677v5.93h22.098v-5.93c0-2.027-1.64-3.677-3.653-3.677H6.564z"/></g><path fill="#fff" d="M32 31H17V20h15z"/><path fill-rule="evenodd" clip-rule="evenodd" d="M31.409 20.394c.54.532.548 1.402.016 1.943l-7.854 8.106a1.374 1.374 0 01-1.96 0l-4.217-4.35a1.374 1.374 0 111.96-1.927l3.238 3.354 6.874-7.11a1.374 1.374 0 011.942-.016z" fill="#000"/></g><defs><clipPath id="duclip0_1539_26533"><path fill="#fff" transform="rotate(-180 16.5 16)" d="M0 0h33v32H0z"/></clipPath><clipPath id="duclip1_1539_26533"><path fill="#fff" transform="translate(2)" d="M0 0h24v28H0z"/></clipPath></defs></symbol><symbol fill="none" viewBox="0 0 26 25" id="thin-star" xmlns="http://www.w3.org/2000/svg"><path d="M12.049 1.927c.3-.921 1.603-.921 1.902 0l2.192 6.747a1 1 0 00.951.69h7.094c.969 0 1.372 1.24.588 1.81l-5.74 4.17a1 1 0 00-.362 1.118l2.192 6.746c.3.922-.755 1.688-1.54 1.118l-5.738-4.17a1 1 0 00-1.176 0l-5.739 4.17c-.784.57-1.838-.197-1.539-1.118l2.192-6.746a1 1 0 00-.363-1.118l-5.739-4.17c-.784-.57-.38-1.81.588-1.81h7.094a1 1 0 00.95-.69l2.193-6.747z" stroke="#000" stroke-width=".8"/></symbol><symbol viewBox="0 0 45 46" id="upload" xmlns="http://www.w3.org/2000/svg"><g clip-path="url(#dwclip0)"><path d="M38.6 9.7l-2.9-3.1a1 1 0 00-.6-.3c-.3 0-.4.2-.5.3L32 9l-2.3-2.4c-.2-.2-.4-.4-.6-.4-.3 0-.4.2-.5.3L26 9l-2.3-2.5c-.3-.1-.4-.3-.7-.3-.2 0-.3.2-.5.3L20.1 9l-2.6-2.5c-.4-.3-1-.4-1.2 0l-3.3 3a1 1 0 00-.3.7v14.2H6.3V26c0 6.4 1.8 12.7 5.3 12.7h21.8c3.4 0 5.3-6.7 5.3-13.4V10.2l-.1-.5zM31 37.2H11.7c-1.7 0-3.6-5-3.7-11.2h20.2A22 22 0 0031 37.2zm3.8-10v-1.5h-5v-.4c0-.3-.4-.7-.7-.7H14.3v-14l2.4-2.3 2.6 2.5c.2.3.8.3 1.1 0L23 8.3l2.3 2.5.5.3c.3 0 .4-.2.7-.3L29 8.3l2.3 2.4.6.2.5-.2L35 8.3l2.2 2.2v15c0 6.6-2 11.7-3.6 11.7-1.5 0-3.3-4-3.6-10h4.8z"/><path d="M34.8 14.2H16.6v1.6h18.2v-1.6zm0 3.8H16.6v1.6h18.2v-1.5zm0 3.9H16.6v1.5h18.2V22z"/></g><defs><clipPath id="dwclip0"><path fill="#fff" transform="translate(6.3 6.3)" d="M0 0h32.4v32.4H0z"/></clipPath></defs></symbol><symbol fill="none" viewBox="0 0 50 50" id="ups" xmlns="http://www.w3.org/2000/svg"><path d="M25 45.564c.345-.175 9.32-4.1 12.167-6.454 2.934-2.442 4.488-5.931 4.488-10.118V9.368l-.26-.087c-7.162-3.925-16.05-3.663-16.481-3.663-.346 0-9.234-.262-16.396 3.663l-.173.087V29.08c0 4.186 1.553 7.675 4.487 10.117 2.848 2.355 11.823 6.28 12.168 6.367z" fill="#341B14"/><path d="M25 46s-9.492-4.187-12.426-6.541C9.467 36.842 8 33.266 8 29.167V8.757c7.508-4.098 17-3.75 17-3.75s9.492-.348 17 3.75V29.08c0 4.099-1.467 7.675-4.574 10.291C34.492 41.813 25 46 25 46zM9.38 29.167c0 3.837 1.381 6.977 4.056 9.158 2.417 2.006 9.58 5.233 11.564 6.105 1.985-.872 9.233-4.186 11.563-6.105 2.676-2.18 4.056-5.408 4.056-9.158V9.107c-10.01-.96-21.918-.436-31.238 8.285v11.775z" fill="#FFB406"/><path d="M34.579 26.289c1.294.785 1.812 1.308 1.898 2.267 0 1.047-.69 1.657-1.812 1.657-.95 0-2.071-.523-2.848-1.22v2.79c.95.524 2.071.96 3.28.96 2.933 0 4.314-2.093 4.314-4.012.086-1.745-.431-3.14-2.934-4.623-1.122-.698-1.985-1.134-1.985-2.18 0-1.047.95-1.483 1.726-1.483 1.036 0 2.071.61 2.675 1.221V19.05c-.517-.436-1.64-1.046-3.279-.959-1.985.087-4.056 1.483-4.056 3.925.087 1.657.604 2.878 3.02 4.274zm-10.183 6.28c.259.087.69.174 1.38.174 3.366 0 5.265-3.053 5.265-7.414 0-4.448-1.985-7.152-5.523-7.152-1.64 0-2.934.35-4.056 1.047v19.711h2.934v-6.367zm0-11.862c.259-.088.69-.262 1.035-.262 1.726 0 2.417 1.395 2.417 4.797 0 3.314-.863 4.884-2.59 4.884-.43 0-.776-.087-.948-.174v-9.245h.086zm-9.061 12.036c1.812 0 3.366-.436 4.487-1.221v-13.17h-3.02v11.425c-.345.262-.777.35-1.38.35-1.381 0-1.554-1.309-1.554-2.094v-9.681h-3.02v9.507c0 3.227 1.553 4.884 4.487 4.884z" fill="#FFB406"/></symbol><symbol viewBox="0 0 13 9" id="valid" xmlns="http://www.w3.org/2000/svg"><path d="M5 6.2l6-5.9a.9.9 0 011.2 0 .8.8 0 010 1.2L5.6 8a.9.9 0 01-.7.3.9.9 0 01-.6-.3L.8 4.6A.9.9 0 01.5 4a.8.8 0 01.3-.6.9.9 0 01.6-.3.9.9 0 01.6.3l3 2.8z"/><path d="M11 .3l-6 6-3-3a.9.9 0 00-.6-.2.9.9 0 00-.6.3.9.9 0 00-.3.6.8.8 0 00.3.6L4.3 8a.9.9 0 00.6.3.9.9 0 00.7-.3l6.6-6.5a.8.8 0 000-1.2.9.9 0 00-1.2 0z"/></symbol><symbol viewBox="0 0 4 17" id="warning" xmlns="http://www.w3.org/2000/svg"><path fill-rule="evenodd" clip-rule="evenodd" d="M2 .5c.5 0 1 .4 1 1v9.8a1 1 0 01-2 0V1.5c0-.6.4-1 1-1z"/><path d="M.5 15.3a1.5 1.5 0 113 0 1.5 1.5 0 01-3 0z"/></symbol><symbol viewBox="0 0 50 50" id="warning-sign" xmlns="http://www.w3.org/2000/svg"><path fill-rule="evenodd" clip-rule="evenodd" d="M25 8L7.68 38h34.64L25 8zm1.732-2c-.77-1.333-2.694-1.333-3.464 0L5.081 37.5c-.77 1.333.193 3 1.732 3h36.373c1.54 0 2.502-1.667 1.733-3L26.732 6z"/><path d="M25.3 29.2c.7 0 1.3-.6 1.3-1.3v-10c0-.7-.6-1.3-1.3-1.3-.7 0-1.3.5-1.3 1.2v10c0 .8.6 1.4 1.3 1.4zM25.3 34.1a1.8 1.8 0 100-3.6 1.8 1.8 0 000 3.6z"/></symbol><symbol viewBox="0 0 50 50" id="warranty" xmlns="http://www.w3.org/2000/svg"><path d="M41.224 14.35L26.03 7.127a1.307 1.307 0 00-1.119 0L9.717 14.35a1.262 1.262 0 00-.562.522 1.217 1.217 0 00-.146.744l1.113 9.051c1.496 12.168 11.413 16.62 15.109 17.31.158.03.321.03.48 0 3.695-.69 13.612-5.143 15.108-17.31l1.113-9.051a1.217 1.217 0 00-.146-.744 1.262 1.262 0 00-.562-.522zm-2.94 10.022C37.004 34.8 28.826 38.75 25.472 39.486c-3.355-.736-11.533-4.685-12.815-15.113L11.651 16.2l13.82-6.57L39.29 16.2l-1.005 8.173zM23.19 27.354l8.839-8.616c.239-.233.564-.364.902-.364.339 0 .663.13.903.364a1.227 1.227 0 010 1.759l-9.741 9.495a1.279 1.279 0 01-.903.365 1.304 1.304 0 01-.903-.364l-5.178-5.048a1.241 1.241 0 01-.373-.88 1.215 1.215 0 01.374-.879 1.278 1.278 0 01.902-.364 1.304 1.304 0 01.902.365l4.276 4.167z"/><path d="M32.028 18.738l-8.839 8.616-4.276-4.167a1.279 1.279 0 00-.902-.365 1.305 1.305 0 00-.902.364 1.242 1.242 0 00-.374.88 1.215 1.215 0 00.373.88l5.178 5.046a1.279 1.279 0 00.903.365 1.303 1.303 0 00.902-.364l9.742-9.496a1.225 1.225 0 000-1.76 1.293 1.293 0 00-.903-.363c-.338 0-.663.13-.902.364z"/></symbol></svg>