<svg viewBox="0 0 948.76 110.78" class="logo-salomon" fill="#fff"><path d="M933.977,108.883 C917.889,108.883 901.893,109.045 885.912,108.628 C884.349,108.587 882.382,105.191 881.445,102.995 C872.877,82.908 864.507,62.736 856.047,42.603 C854.966,40.030 853.698,37.536 851.011,35.087 C847.660,59.422 844.309,83.757 840.898,108.521 C829.729,108.521 819.030,108.521 806.963,108.521 C812.280,73.003 817.548,37.820 822.913,1.980 C838.320,1.980 853.064,1.743 867.783,2.243 C869.904,2.315 872.755,5.553 873.827,7.965 C884.186,31.256 894.236,54.683 905.863,78.142 C907.372,68.809 908.931,59.483 910.380,50.140 C912.597,35.835 914.569,21.487 917.107,7.239 C917.462,5.246 920.357,2.324 922.218,2.213 C931.114,1.684 940.059,1.976 949.999,1.976 C944.629,37.808 939.384,72.807 933.977,108.883 ZM797.366,73.828 C793.243,92.101 781.666,103.463 763.224,106.872 C752.118,108.925 740.761,109.621 729.170,110.967 C718.319,109.623 707.148,109.161 696.437,106.702 C679.633,102.845 672.427,91.193 675.110,74.313 C676.887,63.131 678.808,51.964 681.015,40.859 C685.563,17.973 698.180,5.214 722.319,2.893 C740.582,1.137 759.271,1.264 777.556,2.921 C798.233,4.796 806.941,17.489 803.987,38.100 C802.269,50.082 800.030,62.019 797.366,73.828 ZM745.478,23.1000 C740.263,24.581 734.590,24.090 729.964,26.054 C725.558,27.924 720.019,31.723 718.859,35.780 C715.124,48.844 712.890,62.370 710.677,75.817 C709.653,82.040 713.386,86.077 719.624,86.437 C728.257,86.936 736.946,87.034 745.585,86.675 C754.431,86.306 759.387,80.790 761.310,72.534 C763.099,64.858 764.652,57.121 766.095,49.371 C770.261,26.996 768.144,24.479 745.478,23.1000 ZM623.703,36.172 C623.245,36.080 622.787,35.987 622.329,35.895 C615.764,51.295 609.287,66.733 602.600,82.080 C598.735,90.950 596.714,102.878 589.850,107.540 C583.280,112.001 571.518,108.844 562.037,109.030 C560.982,109.050 559.925,109.034 558.868,109.033 C548.329,109.028 548.437,109.018 547.467,98.308 C546.493,87.551 545.309,76.812 544.150,66.073 C543.027,55.674 541.820,45.284 539.344,34.525 C538.396,37.074 537.384,39.601 536.512,42.176 C529.761,62.119 522.791,81.993 516.462,102.070 C514.689,107.695 512.019,109.430 506.391,109.146 C497.734,108.709 489.039,109.031 479.376,109.031 C480.459,105.759 481.177,103.360 482.042,101.016 C493.341,70.395 504.827,39.842 515.829,9.115 C517.901,3.327 520.796,1.600 526.709,1.817 C539.043,2.271 551.405,1.955 564.319,1.955 C567.504,28.609 570.518,53.834 573.532,79.060 C574.065,79.159 574.598,79.259 575.130,79.358 C576.398,76.657 577.746,73.991 578.920,71.250 C587.937,50.198 597.078,29.196 605.792,8.018 C607.708,3.363 610.103,1.715 615.093,1.842 C628.237,2.177 641.395,1.956 655.367,1.956 C658.497,37.672 661.569,72.720 664.698,108.422 C652.720,108.422 641.261,108.422 629.015,108.422 C627.239,84.264 625.471,60.218 623.703,36.172 ZM478.684,75.518 C474.563,92.795 462.997,103.419 445.644,106.755 C434.301,108.935 422.667,109.604 410.793,110.993 C399.702,109.577 388.263,109.076 377.319,106.487 C361.942,102.849 354.835,92.102 356.864,76.494 C358.660,62.673 361.044,48.870 364.213,35.302 C367.936,19.359 378.405,8.714 394.262,4.799 C417.104,-0.841 440.384,-1.002 463.377,3.736 C481.179,7.403 488.159,17.730 485.838,35.897 C484.138,49.196 481.794,62.478 478.684,75.518 ZM427.169,24.088 C422.204,24.584 417.203,24.847 412.285,25.631 C405.987,26.636 401.441,30.442 400.033,36.551 C397.085,49.337 394.454,62.216 392.330,75.161 C391.273,81.605 394.864,86.094 401.528,86.454 C410.421,86.933 419.373,86.921 428.270,86.505 C436.077,86.141 440.831,81.204 442.670,73.942 C444.732,65.799 446.230,57.507 447.808,49.248 C452.084,26.854 450.069,24.468 427.169,24.088 ZM344.244,108.308 C315.088,108.308 285.968,108.308 255.573,108.308 C260.863,73.021 266.137,37.833 271.455,2.356 C274.481,2.199 276.811,1.984 279.142,1.973 C288.065,1.932 296.989,1.957 307.175,1.957 C303.076,29.242 299.111,55.638 294.980,83.138 C312.803,83.138 330.041,83.138 347.844,83.138 C346.573,92.026 345.459,99.814 344.244,108.308 ZM208.898,108.559 C207.626,102.370 206.372,96.267 204.980,89.493 C192.231,89.493 179.605,89.209 167.017,89.774 C164.941,89.867 161.885,93.378 161.242,95.822 C158.344,106.842 151.876,110.881 140.560,109.246 C133.662,108.250 126.502,109.062 118.436,109.062 C119.873,105.796 120.687,103.634 121.741,101.596 C137.830,70.512 154.047,39.492 169.958,8.317 C172.283,3.760 174.742,1.639 180.137,1.817 C193.054,2.246 206.000,1.774 218.921,2.141 C221.095,2.203 224.756,4.323 225.108,6.031 C232.019,39.521 238.543,73.091 245.115,106.651 C245.201,107.090 244.880,107.608 244.622,108.559 C232.989,108.559 221.242,108.559 208.898,108.559 ZM196.662,26.319 C196.122,26.175 195.581,26.032 195.041,25.888 C187.924,39.909 180.808,53.929 173.410,68.503 C183.923,68.503 193.307,68.503 203.093,68.503 C200.902,54.129 198.782,40.224 196.662,26.319 ZM124.382,38.289 C112.793,38.289 102.291,38.289 91.756,38.289 C93.559,21.411 93.559,21.359 76.520,21.143 C69.922,21.059 63.275,20.859 56.738,21.541 C53.773,21.851 51.019,24.181 48.169,25.595 C50.040,28.381 51.270,32.391 53.885,33.753 C70.946,42.640 88.314,50.939 105.568,59.458 C119.665,66.418 120.353,67.874 116.920,83.441 C116.070,87.292 115.254,91.167 114.100,94.932 C111.731,102.665 106.631,107.762 98.444,108.663 C90.867,109.498 83.209,109.834 75.582,109.916 C59.211,110.093 42.835,110.087 26.465,109.886 C21.756,109.829 16.937,109.329 12.381,108.187 C4.007,106.089 0.000,100.401 0.887,91.802 C1.531,85.548 3.071,79.387 4.295,72.734 C14.728,72.734 24.905,72.734 35.286,72.734 C35.286,74.697 35.520,76.522 35.247,78.268 C33.737,87.925 34.618,89.211 44.626,89.432 C53.861,89.636 63.126,89.716 72.335,89.152 C74.917,88.993 77.347,86.367 79.847,84.872 C78.293,82.428 77.317,78.903 75.090,77.717 C62.067,70.783 48.739,64.420 35.541,57.810 C31.537,55.805 27.512,53.802 23.701,51.466 C21.261,49.971 18.829,48.169 17.022,45.987 C7.798,34.854 17.652,5.607 31.719,2.348 C35.545,1.461 39.544,0.947 43.469,0.922 C65.122,0.786 86.779,0.699 108.431,0.903 C125.525,1.064 130.282,6.849 127.469,23.425 C126.636,28.331 125.454,33.178 124.382,38.289 Z"></path></svg>