<svg version="1.1" viewBox="0 0 888.96002 462.72"  xmlns:inkscape="http://www.inkscape.org/namespaces/inkscape" xmlns:sodipodi="http://sodipodi.sourceforge.net/DTD/sodipodi-0.dtd" xmlns="http://www.w3.org/2000/svg" xmlns:svg="http://www.w3.org/2000/svg"> <g inkscape:groupmode="layer" inkscape:label="Image" id="g1">   <path id="path1" d="m 415.27661,43.144102 c -17.76545,0.0079 -28.61633,0.04834 -45.64454,0.0625 11.65623,0.0079 23.31266,0.0135 34.96875,0.01563 4.0607,6.54e-4 8.12097,0.0016 12.18164,0.002 -0.50176,-0.03071 -1.0038,-0.05582 -1.50585,-0.08008 z m -312.26563,25.287109 -0.68359,2.537109 c -0.37554,1.394607 -7.597018,30.40922 -16.048848,64.47852 -8.45183,34.06926 -15.519176,62.44845 -15.705074,63.06445 -0.321623,1.0657 17.127974,1.12109 360.201182,1.12109 H 791.31567 L 807.4602,134.8316 c 8.87962,-35.639884 16.14358,-65.159608 16.14258,-65.599608 -0.002,-0.639047 -72.48943,-0.800781 -360.29688,-0.800781 z m 281.86914,4.310547 c 15.93855,-0.07255 27.40963,3.879531 36.69336,12.638671 7.39258,6.97486 11.75352,16.468941 12.75391,27.769531 l 0.47265,5.35742 5.76172,-21.832031 5.75977,-21.832031 34.8789,0.004 c 28.86208,0.003 35.58751,0.17092 38.98047,0.970701 15.67109,3.69395 24.78777,17.85949 22.45508,34.896491 -2.13761,15.61215 -10.601,30.17799 -22.88867,39.39257 -2.72048,2.0401 -5.1806,3.89769 -5.4668,4.12891 -0.28621,0.23122 1.5808,7.96373 4.14844,17.18359 2.56763,9.2199 4.73546,16.53174 4.81836,16.24805 0.20057,-0.68601 16.73617,-62.60573 24.15039,-90.435551 l 5.88281,-22.080071 20.64649,-0.16993 c 19.47091,-0.15931 20.62641,-0.10371 20.30664,0.960941 -0.98763,3.28827 -21.51172,80.515591 -21.51172,80.943361 0,0.2781 9.92428,0.50586 22.05469,0.50586 h 22.05468 l 0.71485,-2.7207 c 0.39311,-1.496 2.37846,-8.9125 4.41211,-16.48047 2.03363,-7.56797 6.69082,-24.93438 10.3496,-38.593754 l 6.65235,-24.835938 32,0.22461 c 30.76551,0.21548 32.19862,0.27959 37.12109,1.650391 13.21905,3.68122 21.45554,9.91602 26.26367,19.88281 6.42195,13.312041 4.396,34.688601 -5.13281,54.152351 -3.98943,8.14893 -7.38922,13.0422 -13.60156,19.57031 -10.472,11.00428 -20.91752,16.87293 -37.28906,20.94922 l -6.72071,1.67187 -97.70312,0.20508 -97.70508,0.20703 -1.06055,-4.66211 c -0.58404,-2.56369 -1.59826,-7.25387 -2.25195,-10.42187 -0.65368,-3.168 -1.66277,-7.84644 -2.24414,-10.39844 l -1.05664,-4.64062 h -3.01563 -3.01562 l -3.95117,14.80468 c -2.17333,8.14239 -4.06071,14.91421 -4.19531,15.04883 -0.13462,0.1346 -9.32109,0.16911 -20.41407,0.0762 l -20.16992,-0.16992 5.32031,-19.83984 c 2.92649,-10.91197 5.49194,-20.55946 5.70118,-21.43946 0.20921,-0.87997 -1.10658,0.70354 -2.92579,3.51954 -9.39983,14.55024 -20.08714,24.22334 -34.89062,31.58007 -6.62331,3.29154 -12.22895,5.25177 -19.78125,6.91993 -5.19296,1.14703 -21.59571,1.69411 -26.13867,0.87109 -10.95708,-1.98501 -19.3523,-6.11448 -26.02735,-12.79883 -8.45679,-8.46857 -11.79015,-17.15956 -11.78515,-30.73242 0.002,-4.4 0.36813,-9.72787 0.8164,-11.83984 8.13205,-38.31421 41.67255,-66.236712 79.77344,-66.410162 z m -120.31836,2.08789 -0.18359,9.441411 c -0.10019,5.19246 -0.41311,19.952811 -0.69727,32.800781 -0.28416,12.84797 -0.49138,23.40248 -0.45898,23.45508 0.0324,0.0526 2.56269,-5.70629 5.62304,-12.79883 3.06039,-7.09255 9.43037,-21.82436 14.1543,-32.736331 l 8.58789,-19.839841 21.20703,-0.16797 c 11.66363,-0.0927 21.20703,-0.0319 21.20703,0.13672 0,0.30937 -3.52154,7.019451 -41.16406,78.431642 l -20.74804,39.35937 -21.88282,0.16797 -21.88476,0.16992 0.3457,-4.33008 c 0.19007,-2.38062 0.50076,-11.2395 0.68945,-19.6875 0.18868,-8.44797 0.5024,-19.96761 0.69727,-25.59961 l 0.35351,-10.24023 -2.79882,5.11914 c -1.54001,2.816 -7.06921,13.47172 -12.28516,23.67969 -5.21595,10.20797 -10.9307,21.36878 -12.69922,24.80078 l -3.21484,6.24023 h -21.66407 -21.66406 l 0.0137,-1.43945 c 0.008,-0.792 0.43349,-26.06425 0.94532,-56.16016 0.51184,-30.09588 0.93731,-56.087761 0.94531,-57.759761 l 0.0156,-3.041021 h 21.19336 21.19336 l -0.38281,3.359381 c -0.21068,1.848 -1.11383,10.27273 -2.00781,18.7207 -0.89398,8.447971 -2.32342,21.832021 -3.17578,29.742191 -0.85237,7.91017 -1.45017,14.4815 -1.32813,14.60351 0.12205,0.12205 6.28546,-11.82082 13.69531,-26.54101 7.40987,-14.720214 14.98566,-29.716221 16.83594,-33.324221 l 3.36524,-6.560551 h 18.58593 z m 213.47461,34.562502 -0.95703,3.35938 c -2.86371,10.05393 -4.6098,17.13433 -4.30273,17.4414 0.19098,0.19102 4.14265,0.23918 8.78124,0.10742 7.44004,-0.21133 8.75954,-0.41945 11.20899,-1.77343 3.97217,-2.19574 6.49339,-6.05915 6.86328,-10.51954 0.58999,-7.11455 -1.77179,-8.61523 -13.54883,-8.61523 z m -100.32812,1.02539 c -7.05282,-0.75324 -15.27804,1.74269 -21.99219,7.77344 -13.76783,12.36643 -14.40482,31.91625 -1.23438,37.87109 3.93973,1.78133 12.08467,1.81744 17.03907,0.0762 14.72746,-5.17627 24.81034,-21.38999 21.14453,-34 -2.02451,-6.96401 -7.90423,-10.96746 -14.95703,-11.7207 z m 293.44726,1.63086 c -1.38453,0.10039 -1.79492,0.31615 -1.79492,0.68945 0,0.49674 -2.44455,9.95407 -5.43164,21.01758 -2.9871,11.06352 -5.43445,20.47602 -5.43945,20.91602 -0.007,0.60194 2.16965,0.79992 8.79101,0.79492 7.99256,-0.006 9.10928,-0.1514 12.17383,-1.57813 8.74049,-4.06918 15.74278,-16.69567 15.80078,-28.49609 0.0319,-6.48905 -1.17085,-9.48671 -4.68164,-11.66992 -2.09446,-1.30246 -3.29455,-1.47349 -11.77344,-1.66992 -3.90183,-0.0904 -6.26,-0.10412 -7.64453,-0.004 z m 45.50586,101.98242 c -19.83655,0.0545 -37.54105,5.93717 -49.02148,16.50391 l -2.68164,2.46875 1.7871,-6.60547 c 0.98294,-3.63322 1.99265,-7.2549 2.24415,-8.04687 l 0.45703,-1.43946 h -23.67188 -23.67383 l -0.65625,2.08008 c -0.58466,1.8552 -5.01709,18.03159 -30.77929,112.32812 l -6.86524,25.12696 23.73242,-0.16797 23.73438,-0.16797 2.17383,-8.1582 c 1.19605,-4.488 2.39545,-8.16016 2.66406,-8.16016 0.26861,0 2.02874,1.03836 3.91211,2.3086 11.11162,7.49419 27.17189,13.496 42.48242,15.875 7.82703,1.2162 24.05102,1.23861 31.9707,0.0449 23.52973,-3.5464 40.65127,-15.77411 46.73243,-33.375 4.0569,-11.74211 3.2879,-24.60066 -1.96875,-32.92774 -5.91655,-9.3724 -15.11041,-15.06398 -38.48438,-23.82422 -14.66336,-5.49562 -17.78779,-6.94901 -18.72656,-8.70312 -2.84303,-5.31224 3.23521,-8.9467 13.41797,-8.02344 10.8705,0.98562 23.20169,5.50279 32.88476,12.04688 2.42261,1.63723 4.58339,2.9598 4.80078,2.9375 0.21739,-0.0223 6.40574,-7.09487 13.75196,-15.71485 12.55413,-14.73096 13.28501,-15.72827 12.16015,-16.60351 -14.28496,-11.11506 -32.67553,-17.77438 -53.75781,-19.4668 -2.90893,-0.23352 -5.78534,-0.34372 -8.61914,-0.33594 z m -244.74023,2.86524 -2.6836,9.76758 c -12.09411,44.01785 -35.39648,129.27128 -35.39648,129.5 0,0.15662 10.55915,0.20753 23.46484,0.11523 l 23.46485,-0.16797 9.4082,-34.23828 c 5.17445,-18.83194 9.62195,-34.18318 9.88281,-34.11328 0.41661,0.11165 7.92808,15.30556 28.17578,57 l 5.67578,11.68945 21.11524,-0.16797 21.11719,-0.16992 5.25586,-19.19922 c 2.89041,-10.55997 11.34784,-41.52087 18.79492,-68.80078 7.44706,-27.27991 13.66303,-49.95844 13.8125,-50.39844 0.21417,-0.63043 -4.70968,-0.80082 -23.22852,-0.79882 l -23.5,0.002 -8.88086,32.47851 c -4.88497,17.86288 -9.06756,32.82984 -9.29492,33.25977 -0.22735,0.42993 -7.63113,-14.11444 -16.45117,-32.32031 l -16.03516,-33.10157 -22.34961,-0.16796 z m -105.21485,0.0156 -22.27148,0.008 -22.27344,0.008 -18.82031,68.95117 c -10.35131,37.9228 -18.95133,69.31699 -19.11133,69.76137 v 0.002 c -0.23158,0.643 4.51857,0.77238 23.29883,0.63867 l 23.59179,-0.16797 1.36524,-5.11914 c 4.69481,-17.61794 17.1208,-62.24171 17.55469,-63.04101 0.36926,-0.68023 2.00263,2.11909 5.60547,9.60156 2.79654,5.80797 8.59514,17.75862 12.88476,26.55859 4.28964,8.79997 9.55172,19.67216 11.69336,24.16016 l 3.89258,8.16016 21.18359,-0.006 21.18164,-0.008 5.24024,-19.35351 c 6.10114,-22.53092 32.05844,-117.37905 32.57812,-119.04102 0.3331,-1.06527 -0.95604,-1.11953 -23.20312,-0.96093 l -23.55664,0.16796 -8.9961,32.77344 c -4.94798,18.02525 -9.1277,32.89985 -9.28906,33.05469 -0.16135,0.15485 -3.16922,-5.66546 -6.68359,-12.93359 -3.51441,-7.26816 -10.77159,-22.21488 -16.12696,-33.21485 z m -52.13672,0.19531 c -0.28296,-0.283 -245.689622,-0.24796 -245.972664,0.0352 -0.300574,0.30058 -10.435547,37.40713 -10.435547,38.20703 0,0.36338 8.255709,0.60352 20.841793,0.60352 19.551844,0 20.822894,0.0685 20.507824,1.11914 -0.30002,1.00045 -14.827054,54.03956 -23.410164,85.47265 -1.807018,6.6177 -3.444801,12.44869 -3.640625,12.95899 -0.307054,0.80017 2.909755,0.92773 23.375005,0.92773 h 23.730478 l 0.96484,-3.35937 c 0.53063,-1.848 6.71119,-24.3418 13.73633,-49.98633 7.02514,-25.64454 12.89207,-46.74559 13.03711,-46.89063 0.14503,-0.14497 8.19217,-0.18752 17.88086,-0.0937 l 17.61523,0.16992 -1.77539,6.40039 c -0.97658,3.51997 -7.0048,25.55302 -13.39453,48.96093 -6.38973,23.40794 -11.76421,43.06369 -11.94531,43.67969 -0.31196,1.0611 2.88129,1.11914 60.7832,1.11914 h 61.11328 l 0.66016,-2.08007 c 0.68689,-2.16808 9.68009,-35.41709 9.67969,-35.78711 -1.2e-4,-0.11665 -17.008,-0.1727 -37.79493,-0.125 l -37.79492,0.0859 0.43946,-2.00586 c 0.24183,-1.10366 1.21187,-4.5996 2.15429,-7.76757 l 1.71289,-5.75977 34.84766,-0.16602 34.84961,-0.16406 4.53125,-16.63476 4.5332,-16.63477 h -34.7793 c -19.12844,0 -34.77929,-0.23533 -34.77929,-0.52344 0,-0.28811 0.4059,-1.94575 0.90234,-3.68164 0.49644,-1.73589 1.36811,-4.81196 1.9375,-6.83593 l 1.03516,-3.67969 h 37.39844 37.39648 l 0.65234,-2.40039 c 0.35872,-1.32 2.667,-9.72606 5.12891,-18.68164 2.46191,-8.95558 4.38675,-16.37303 4.27734,-16.48243 z m 339.52149,56.77149 c 0.22584,-0.003 0.60482,0.76664 0.84179,1.71094 0.81558,3.2495 3.67008,7.2349 8.15235,11.38476 5.44617,5.04235 16.23729,10.61342 31.00781,16.00781 17.80888,6.50407 20.70703,8.25722 20.70703,12.52149 0,2.92003 -1.64351,4.77277 -5.08398,5.72851 -2.19422,0.60956 -9.54018,0.73135 -12.83594,0.21289 -11.63568,-1.83042 -23.44599,-6.89126 -34.36133,-14.72265 -2.73045,-1.95903 -5.29904,-3.68914 -5.70703,-3.8457 -0.40799,-0.15656 -4.14483,3.69276 -8.30273,8.55468 -4.15794,4.86196 -7.41017,8.40886 -7.22852,7.88086 0.18164,-0.528 3.04587,-10.96484 6.36524,-23.19336 3.31933,-12.22849 6.21946,-22.23723 6.44531,-22.24023 z M 26.24339,386.15778 c -0.02155,0.0132 -0.722656,0.0196 -0.722656,0.0332 0,0.0142 0.73407,0.0194 0.757812,0.0332 -0.01108,-0.0223 -0.02392,-0.0441 -0.03516,-0.0664 z" /> </g>
</svg>
