<?xml version="1.0" encoding="UTF-8" standalone="no"?>
<svg
   width="800px"
   height="800px"
   viewBox="0 0 48 48"
   version="1.1"
   id="svg4"
   sodipodi:docname="contacts-alt-svgrepo-com-move.svg"
   inkscape:version="1.3.2 (091e20ef0f, 2023-11-25)"
   xmlns:inkscape="http://www.inkscape.org/namespaces/inkscape"
   xmlns:sodipodi="http://sodipodi.sourceforge.net/DTD/sodipodi-0.dtd"
   xmlns="http://www.w3.org/2000/svg"
   xmlns:svg="http://www.w3.org/2000/svg">
  <sodipodi:namedview
     id="namedview4"
     pagecolor="#ffffff"
     bordercolor="#111111"
     borderopacity="1"
     inkscape:showpageshadow="0"
     inkscape:pageopacity="0"
     inkscape:pagecheckerboard="1"
     inkscape:deskcolor="#d1d1d1"
     inkscape:zoom="1.5625"
     inkscape:cx="445.44"
     inkscape:cy="168.64"
     inkscape:window-width="1600"
     inkscape:window-height="831"
     inkscape:window-x="0"
     inkscape:window-y="0"
     inkscape:window-maximized="1"
     inkscape:current-layer="svg4" />
  <defs
     id="defs1">
    <style
       id="style1">.a{fill:none;stroke:#000000;stroke-linecap:round;stroke-linejoin:round;}</style>
  </defs>
  <path
     class="a"
     d="M24,5.5a9.2371,9.2371,0,1,1-9.22,9.2543v-.0172A9.2371,9.2371,0,0,1,24,5.5Z"
     id="path1" />
  <path
     class="a"
     d="M24,27.3973c10.3208,0,18.457,6.8726,18.457,10.2956V42.5H5.543V37.6069C5.543,34.1839,13.6792,27.3973,24,27.3973Z"
     id="path2" />
  <path
     class="opacity-0 group-hover:opacity-100 group-focus:opacity-100 group-hover:delay-100 transition"
     d="m 35.7565,0.47585 a 9.4519125,15.455516 0 0 1 8.4017,13.6352"
     id="path3"
     style="stroke-width:1.34295" />
  <path
     class="opacity-0 group-hover:opacity-100 group-focus:opacity-100 transition"
     d="m 31.95115,3.5334 a 8.8407595,14.634876 0 0 1 6.9842,11.7079"
     id="path4"
     style="stroke-width:2.27493" />
  <path
     style="fill:#84cc16;stroke-width:0.06"
     d="M 17.9388,18.1269 29.2542,17.6742 Z"
     id="path5" />
  <path
     style="fill:#000000;stroke-width:0.0465476"
     d="m 28.435755,16.929382 -9.412366,0.07395 c 0,0 2.2995,3.39345 4.807156,3.4395 2.507656,0.04605 4.60521,-3.51345 4.60521,-3.51345 z"
     id="path7"
     sodipodi:nodetypes="ccsc" />
</svg>
